<REAPER_PROJECT 0.1 "6.27/win64" 1659895577
  RIPPLE 0
  GROUPOVERRIDE 0 0 0
  AUTOXFADE 1
  ENVATTACH 1
  POOLEDENVATTACH 0
  MIXERUIFLAGS 11 48
  PEAKGAIN 1
  FEEDBACK 0
  PANLAW 1
  PROJOFFS 0 0 0
  MAXPROJLEN 0 600
  GRID 3199 8 1 8 1 0 0 0
  TIMEMODE 1 5 -1 30 0 0 -1
  VIDEO_CONFIG 0 0 256
  PANMODE 3
  CURSOR 0
  ZOOM 18.0998851155558 0 0
  VZOOMEX 11 0
  USE_REC_CFG 0
  RECMODE 1
  SMPTESYNC 0 30 100 40 1000 300 0 0 1 0 0
  LOOP 0
  LOOPGRAN 0 4
  RECORD_PATH "" ""
  <RECORD_CFG
    ZXZhdxgAAA==
  >
  <APPLYFX_CFG
  >
  RENDER_FILE ""
  RENDER_PATTERN congusbongus_raspberry-jam
  RENDER_FMT 0 2 0
  RENDER_1X 0
  RENDER_RANGE 1 0 0 18 1000
  RENDER_RESAMPLE 3 0 1
  RENDER_ADDTOPROJ 0
  RENDER_STEMS 0
  RENDER_DITHER 0
  TIMELOCKMODE 2
  TEMPOENVLOCKMODE 1
  ITEMMIX 0
  DEFPITCHMODE 589824 0
  TAKELANE 1
  SAMPLERATE 44100 0 0
  <RENDER_CFG
  >
  LOCK 1
  <METRONOME 6 2
    VOL 0.25 0.125
    FREQ 800 1600 1
    BEATLEN 4
    SAMPLES "" ""
    PATTERN 2863311530 2863311529
  >
  GLOBAL_AUTO -1
  TEMPO 112.25 4 4
  PLAYRATE 1 0 0.25 4
  SELECTION 0 0
  SELECTION2 0 0
  MASTERAUTOMODE 0
  MASTERTRACKHEIGHT 0 0
  MASTERPEAKCOL 16576
  MASTERMUTESOLO 0
  MASTERTRACKVIEW 0 0.6667 0.5 0.5 0 -1 0 0 0 0 -1 -1 0
  MASTERHWOUT 0 0 1 0 0 0 0 -1
  MASTER_NCH 2 2
  MASTER_VOLUME 1 0 -1 -1 1
  MASTER_FX 1
  MASTER_SEL 0
  <MASTERPLAYSPEEDENV
    EGUID {5526813A-1277-45E8-BD82-09588DCA63C2}
    ACT 0 -1
    VIS 0 1 1
    LANEHEIGHT 0 0
    ARM 0
    DEFSHAPE 0 -1 -1
  >
  <TEMPOENVEX
    EGUID {7374BE06-6B9F-4DE5-B45A-5FFC10B278EF}
    ACT 1 -1
    VIS 1 0 1
    LANEHEIGHT 0 0
    ARM 0
    DEFSHAPE 1 -1 -1
  >
  <PROJBAY
  >
  <TRACK {D408B2DA-65F6-4698-9F3F-B212B38268AE}
    NAME congusbongus_raspberry-jam
    PEAKCOL 16576
    BEAT -1
    AUTOMODE 0
    VOLPAN 0.4059241760314 0 -1 -1 1
    MUTESOLO 0 0 0
    IPHASE 0
    PLAYOFFS 0 1
    ISBUS 0 0
    BUSCOMP 0 0 0 0 0
    SHOWINMIX 1 0.6667 0.5 1 0.5 0 -1 0
    FREEMODE 0
    SEL 0
    REC 0 0 1 0 0 0 0
    VU 2
    TRACKHEIGHT 0 0 0 0 0 0
    INQ 0 0 0 0.5 100 0 0 100
    NCHAN 2
    FX 1
    TRACKID {D408B2DA-65F6-4698-9F3F-B212B38268AE}
    PERF 0
    MIDIOUT -1
    MAINSEND 1 0
    <ITEM
      POSITION 0
      SNAPOFFS 0
      LENGTH 174.54439909297051
      LOOP 1
      ALLTAKES 0
      FADEIN 1 0.01 0 1 0 0 0
      FADEOUT 1 0.01 0 1 0 0 0
      MUTE 0 0
      SEL 0
      IGUID {ECD2E040-5F99-4D4A-83F4-B2A941395261}
      IID 4
      NAME congusbongus_raspberry-jam.ogg
      VOLPAN 1 0 1 -1
      SOFFS 0
      PLAYRATE 1 1 0 -1 0 0.0025
      CHANMODE 0
      GUID {4F5ADB85-2F0C-420E-B3D8-61C677222E69}
      <SOURCE VORBIS
        FILE "congusbongus_raspberry-jam.ogg"
      >
    >
  >
  <TRACK {AB7B8E08-A6ED-4283-A54B-F2E073290C79}
    NAME Easy
    PEAKCOL 16576
    BEAT -1
    AUTOMODE 0
    VOLPAN 0.00948314186155 0 -1 -1 1
    MUTESOLO 1 0 0
    IPHASE 0
    PLAYOFFS 0 1
    ISBUS 0 0
    BUSCOMP 0 0 0 0 0
    SHOWINMIX 1 0.6667 0.5 1 0.5 0 -1 0
    FREEMODE 0
    SEL 0
    REC 0 0 1 0 0 0 0
    VU 2
    TRACKHEIGHT 0 0 0 0 0 0
    INQ 0 0 0 0.5 100 0 0 100
    NCHAN 2
    FX 1
    TRACKID {AB7B8E08-A6ED-4283-A54B-F2E073290C79}
    PERF 0
    MIDIOUT -1
    MAINSEND 1 0
    <FXCHAIN
      SHOW 0
      LASTSEL 0
      DOCKED 0
      BYPASS 0 0 0
      <VST "VSTi: Magical 8bit Plug 2 (Ymck)" Magical8bitPlug2.dll 0 "" 1937337962<56535473796E6A6D61676963616C2038> ""
        am55c+5e7f4AAAAAAgAAAAEAAAAAAAAAAgAAAAAAAAC1BAAAAQAAAAAAEAA=
        VkMyIawEAAA8cm9vdD48UGFyYW1zPjxQQVJBTSBpZD0iYXJwZWdnaW9EaXJlY3Rpb24iIHZhbHVlPSIwLjAiLz48UEFSQU0gaWQ9ImFycGVnZ2lvVGltZSIgdmFsdWU9
        IjAuMDI5OTk5OTk5MzI5NDQ3NzUiLz48UEFSQU0gaWQ9ImF0dGFjayIgdmFsdWU9IjAuMCIvPjxQQVJBTSBpZD0iYmVuZFJhbmdlIiB2YWx1ZT0iMi4wIi8+PFBBUkFN
        IGlkPSJjb2xvclNjaGVtZSIgdmFsdWU9IjEuMCIvPjxQQVJBTSBpZD0iZGVjYXkiIHZhbHVlPSIwLjAiLz48UEFSQU0gaWQ9ImR1dHkiIHZhbHVlPSIwLjAiLz48UEFS
        QU0gaWQ9ImdhaW4iIHZhbHVlPSIwLjUiLz48UEFSQU0gaWQ9ImlzQWR2YW5jZWRQYW5lbE9wZW5fcmF3IiB2YWx1ZT0iMS4wIi8+PFBBUkFNIGlkPSJpc0FycGVnZ2lv
        RW5hYmxlZF9yYXciIHZhbHVlPSIwLjAiLz48UEFSQU0gaWQ9ImlzRHV0eVNlcXVlbmNlRW5hYmxlZF9yYXciIHZhbHVlPSIwLjAiLz48UEFSQU0gaWQ9ImlzUGl0Y2hT
        ZXF1ZW5jZUVuYWJsZWRfcmF3IiB2YWx1ZT0iMC4wIi8+PFBBUkFNIGlkPSJpc1ZvbHVtZVNlcXVlbmNlRW5hYmxlZF9yYXciIHZhbHVlPSIwLjAiLz48UEFSQU0gaWQ9
        Im1heFBvbHkiIHZhbHVlPSI4LjAiLz48UEFSQU0gaWQ9Im5vaXNlQWxnb3JpdGhtX3JhdyIgdmFsdWU9IjAuMCIvPjxQQVJBTSBpZD0ib3NjIiB2YWx1ZT0iMC4wIi8+
        PFBBUkFNIGlkPSJwaXRjaFNlcXVlbmNlTW9kZV9yYXciIHZhbHVlPSIwLjAiLz48UEFSQU0gaWQ9InJlbGVhc2UiIHZhbHVlPSIwLjAiLz48UEFSQU0gaWQ9InJlc3Ry
        aWN0c1RvTkVTRnJlcXVlbmN5X3JhdyIgdmFsdWU9IjAuMCIvPjxQQVJBTSBpZD0ic3VzbGV2ZWwiIHZhbHVlPSIxLjAiLz48UEFSQU0gaWQ9InN3ZWVwSW5pdGlhbFBp
        dGNoIiB2YWx1ZT0iMjQuMCIvPjxQQVJBTSBpZD0ic3dlZXBUaW1lIiB2YWx1ZT0iMC4xMDAwMDAwMDE0OTAxMTYxIi8+PFBBUkFNIGlkPSJ2aWJyYXRvRGVsYXkiIHZh
        bHVlPSIwLjI5OTk5OTk4MjExODYwNjYiLz48UEFSQU0gaWQ9InZpYnJhdG9EZXB0aCIgdmFsdWU9IjAuMCIvPjxQQVJBTSBpZD0idmlicmF0b0lnbm9yZXNXaGVlbF9y
        YXciIHZhbHVlPSIxLjAiLz48UEFSQU0gaWQ9InZpYnJhdG9SYXRlIiB2YWx1ZT0iMC4xNTAwMDAwMDU5NjA0NjQ1Ii8+PC9QYXJhbXM+PHZvbHVtZUVudj48L3ZvbHVt
        ZUVudj48cGl0Y2hFbnY+PC9waXRjaEVudj48ZHV0eUVudj48L2R1dHlFbnY+PC9yb290PgA=
        AGRlZmF1bHQgZGFyawAQAAAA
      >
      PRESETNAME "default dark"
      FLOATPOS 24 52 656 628
      FXID {FE3EB1DB-4E59-4476-8ED6-239E553F9CF2}
      WAK 0 0
    >
    <ITEM
      POSITION 2.1380846325167
      SNAPOFFS 0
      LENGTH 17.10467706013363
      LOOP 1
      ALLTAKES 0
      FADEIN 1 0 0 1 0 0 0
      FADEOUT 1 0 0 1 0 0 0
      MUTE 0 0
      COLOR 25494976 R
      SEL 0
      IGUID {212756C4-3206-46BF-823C-FCCA026B4E4A}
      IID 17
      NAME "untitled MIDI item-glued"
      VOLPAN 1 0 1 -1
      SOFFS 0 0
      PLAYRATE 1 1 0 -1 0 0.0025
      CHANMODE 0
      GUID {6315C455-3A30-4E41-8D38-79DC741E1097}
      <SOURCE MIDI
        HASDATA 1 960 QN
        CCINTERP 32
        POOLEDEVTS {469FAF94-5A0D-48AD-BA60-EA92E5640500}
        E 0 90 02 60
        E 480 80 02 00
        E 1440 90 03 60
        E 480 80 03 00
        E 240 90 03 60
        E 480 80 03 00
        E 720 90 03 60
        E 480 80 03 00
        E 1440 90 03 60
        E 480 80 03 00
        E 240 90 03 60
        E 480 80 03 00
        E 720 90 02 60
        E 480 80 02 00
        E 1440 90 03 60
        E 480 80 03 00
        E 240 90 03 60
        E 480 80 03 00
        E 720 90 03 60
        E 480 80 03 00
        E 1920 90 03 60
        E 0 90 00 60
        E 480 80 03 00
        E 0 80 00 00
        E 240 90 02 60
        E 0 90 01 60
        E 480 80 02 00
        E 0 80 01 00
        E 3120 90 02 60
        E 240 80 02 00
        E 480 90 03 60
        E 240 80 03 00
        E 960 90 02 60
        E 240 80 02 00
        E 480 90 03 60
        E 240 80 03 00
        E 960 90 02 60
        E 240 80 02 00
        E 480 90 00 60
        E 240 80 00 00
        E 960 90 00 60
        E 480 80 00 00
        E 720 90 00 60
        E 480 80 00 00
        E 1680 90 03 60
        E 480 80 03 00
        E 240 90 02 60
        E 480 80 02 00
        E 240 90 03 60
        E 480 80 03 00
        E 480 90 02 60
        E 480 80 02 00
        E 0 90 02 60
        E 480 80 02 00
        E 0 b0 7b 00
        CCINTERP 32
        CHASE_CC_TAKEOFFS 1
        GUID {11BCF3EA-CE30-48AB-BE97-F715C79BF55C}
        IGNTEMPO 0 120 4 4
        SRCCOLOR 115
        VELLANE -1 100 0
        CFGEDITVIEW 32608.577868 0.062955 85 13 0 -1 0 0 0 0.5
        KEYSNAP 0
        TRACKSEL 252
        EVTFILTER 0 -1 -1 -1 -1 0 0 0 0 -1 -1 -1 -1 0 -1 0 -1 -1
        CFGEDIT 1 1 0 1 0 0 1 1 1 1 1 0.25 12 482 2479 1345 0 0 0 0 2 0 0 0 0 0.5 0 0 1 64
      >
    >
    <ITEM
      POSITION 19.24276169265033
      SNAPOFFS 0
      LENGTH 25.65701559026295
      LOOP 1
      ALLTAKES 0
      FADEIN 1 0 0 1 0 0 0
      FADEOUT 1 0 0 1 0 0 0
      MUTE 0 0
      COLOR 26325731 R
      SEL 0
      IGUID {193DE954-B23D-471A-A86B-78D495C1E77D}
      IID 27
      NAME "untitled MIDI item"
      VOLPAN 1 0 1 -1
      SOFFS 19.24276169258786 35.99999999988312
      PLAYRATE 1 1 0 -1 0 0.0025
      CHANMODE 0
      GUID {C1E69115-093E-4321-A5B1-2CFD8FE53D47}
      <SOURCE MIDI
        HASDATA 1 960 QN
        CCINTERP 32
        POOLEDEVTS {9B148ED2-6C3E-4A03-A042-A65616F2E450}
        E 3840 90 02 60
        E 480 80 02 00
        E 0 90 00 60
        E 480 80 00 00
        E 960 90 03 60
        E 480 80 03 00
        E 240 90 03 60
        E 480 80 03 00
        E 240 90 03 60
        E 480 80 03 00
        E 0 90 03 60
        E 480 80 03 00
        E 0 90 01 60
        E 480 80 01 00
        E 960 90 03 60
        E 480 80 03 00
        E 240 90 03 60
        E 480 80 03 00
        E 240 90 02 60
        E 480 80 02 00
        E 0 90 02 60
        E 480 80 02 00
        E 0 90 00 60
        E 480 80 00 00
        E 960 90 03 60
        E 480 80 03 00
        E 240 90 03 60
        E 480 80 03 00
        E 240 90 03 60
        E 480 80 03 00
        E 0 90 03 60
        E 480 80 03 00
        E 0 90 01 60
        E 480 80 01 00
        E 1440 90 03 60
        E 0 90 00 60
        E 480 80 03 00
        E 0 80 00 00
        E 240 90 03 60
        E 0 90 00 60
        E 480 80 03 00
        E 0 80 00 00
        E 240 90 02 60
        E 240 80 02 00
        E 240 90 02 60
        E 240 80 02 00
        E 0 90 01 60
        E 480 80 01 00
        E 1680 90 02 60
        E 240 80 02 00
        E 240 90 02 60
        E 240 80 02 00
        E 0 90 03 60
        E 240 80 03 00
        E 960 90 02 60
        E 240 80 02 00
        E 240 90 02 60
        E 240 80 02 00
        E 0 90 03 60
        E 240 80 03 00
        E 960 90 02 60
        E 240 80 02 00
        E 240 90 02 60
        E 240 80 02 00
        E 0 90 00 60
        E 240 80 00 00
        E 960 90 00 60
        E 480 80 00 00
        E 0 90 00 60
        E 480 80 00 00
        E 240 90 00 60
        E 480 80 00 00
        E 1680 90 03 61
        E 0 90 00 61
        E 480 80 03 00
        E 0 80 00 00
        E 240 90 02 61
        E 0 90 01 61
        E 480 80 02 00
        E 0 80 01 00
        E 240 90 03 61
        E 0 90 00 61
        E 480 80 03 00
        E 0 80 00 00
        E 480 90 02 61
        E 0 90 01 61
        E 480 80 02 00
        E 0 80 01 00
        E 0 90 01 61
        E 0 90 02 61
        E 480 80 01 00
        E 0 80 02 00
        E 240 90 01 60
        E 240 80 01 00
        E 480 90 03 60
        E 240 80 03 00
        E 480 90 03 60
        E 240 80 03 00
        E 960 90 00 60
        E 240 80 00 00
        E 480 90 00 60
        E 240 80 00 00
        E 960 90 03 60
        E 240 80 03 00
        E 480 90 03 60
        E 240 80 03 00
        E 960 90 00 60
        E 240 80 00 00
        E 720 90 02 60
        E 240 80 02 00
        E 720 90 00 60
        E 240 80 00 00
        E 240 90 02 60
        E 240 80 02 00
        E 1200 90 01 60
        E 480 80 01 00
        E 240 90 03 60
        E 480 80 03 00
        E 720 90 03 60
        E 480 80 03 00
        E 240 90 02 60
        E 480 80 02 00
        E 240 90 03 60
        E 480 80 03 00
        E 240 90 03 60
        E 480 80 03 00
        E 480 90 01 60
        E 240 80 01 00
        E 480 90 03 60
        E 240 80 03 00
        E 480 90 03 60
        E 240 80 03 00
        E 960 90 00 60
        E 240 80 00 00
        E 480 90 00 60
        E 240 80 00 00
        E 960 90 03 60
        E 240 80 03 00
        E 480 90 03 60
        E 240 80 03 00
        E 960 90 00 60
        E 240 80 00 00
        E 720 90 02 60
        E 240 80 02 00
        E 720 90 00 60
        E 240 80 00 00
        E 240 90 01 60
        E 240 80 01 00
        E 1200 90 01 60
        E 480 80 01 00
        E 240 90 03 60
        E 480 80 03 00
        E 720 90 03 60
        E 480 80 03 00
        E 240 90 02 60
        E 480 80 02 00
        E 1920 90 01 60
        E 240 80 01 00
        E 480 90 02 60
        E 240 80 02 00
        E 480 90 03 60
        E 240 80 03 00
        E 480 90 03 60
        E 240 80 03 00
        E 1200 90 03 60
        E 240 80 03 00
        E 240 90 00 60
        E 240 80 00 00
        E 720 90 00 60
        E 240 80 00 00
        E 720 90 02 60
        E 240 80 02 00
        E 960 90 00 60
        E 240 80 00 00
        E 960 90 01 60
        E 240 80 01 00
        E 480 90 03 60
        E 240 80 03 00
        E 960 90 03 60
        E 240 80 03 00
        E 480 90 02 60
        E 240 80 02 00
        E 480 90 02 60
        E 240 80 02 00
        E 1200 90 01 60
        E 240 80 01 00
        E 720 90 02 60
        E 240 80 02 00
        E 720 b0 7b 00
        CCINTERP 32
        CHASE_CC_TAKEOFFS 1
        GUID {0C5A1C8C-9556-41B2-8385-E8D93AE12715}
        IGNTEMPO 0 120 4 4
        SRCCOLOR 125
        VELLANE -1 100 0
        CFGEDITVIEW 38677.601583 0.017881 87 12 0 -1 0 0 0 0.5
        KEYSNAP 0
        TRACKSEL 252
        EVTFILTER 0 -1 -1 -1 -1 0 0 0 0 -1 -1 -1 -1 0 -1 0 -1 -1
        CFGEDIT 1 1 0 1 0 0 1 1 1 1 1 0.25 87 484 2501 1285 0 0 0 0 2 0 0 0 0 0.5 0 0 1 64
      >
    >
    <ITEM
      POSITION 44.89977728285078
      SNAPOFFS 0
      LENGTH 17.10467706013363
      LOOP 1
      ALLTAKES 0
      FADEIN 1 0 0 1 0 0 0
      FADEOUT 1 0 0 1 0 0 0
      MUTE 0 0
      COLOR 17537235 R
      SEL 0
      IGUID {5717BC00-29C3-44D3-A4A4-1E8D6A896DF6}
      IID 8
      NAME "untitled MIDI item"
      VOLPAN 1 0 1 -1
      SOFFS 44.89977728285078 84
      PLAYRATE 1 1 0 -1 0 0.0025
      CHANMODE 0
      GUID {E656B0E6-D016-4194-B629-1EE272FF63A3}
      <SOURCE MIDI
        HASDATA 1 960 QN
        CCINTERP 32
        POOLEDEVTS {02E3ACC3-9A92-40E8-8392-5A0FAF7C9B84}
        E 3840 90 02 60
        E 480 80 02 00
        E 0 90 00 60
        E 480 80 00 00
        E 960 90 03 60
        E 480 80 03 00
        E 240 90 03 60
        E 480 80 03 00
        E 240 90 03 60
        E 480 80 03 00
        E 0 90 03 60
        E 480 80 03 00
        E 0 90 01 60
        E 480 80 01 00
        E 960 90 03 60
        E 480 80 03 00
        E 240 90 03 60
        E 480 80 03 00
        E 240 90 02 60
        E 480 80 02 00
        E 0 90 02 60
        E 480 80 02 00
        E 0 90 00 60
        E 480 80 00 00
        E 960 90 03 60
        E 480 80 03 00
        E 240 90 03 60
        E 480 80 03 00
        E 240 90 03 60
        E 480 80 03 00
        E 0 90 03 60
        E 480 80 03 00
        E 0 90 01 60
        E 480 80 01 00
        E 1440 90 03 60
        E 0 90 00 60
        E 480 80 03 00
        E 0 80 00 00
        E 240 90 03 60
        E 0 90 00 60
        E 480 80 03 00
        E 0 80 00 00
        E 240 90 02 60
        E 240 80 02 00
        E 240 90 02 60
        E 240 80 02 00
        E 0 90 01 60
        E 480 80 01 00
        E 1680 90 02 60
        E 240 80 02 00
        E 240 90 02 60
        E 240 80 02 00
        E 0 90 03 60
        E 240 80 03 00
        E 960 90 02 60
        E 240 80 02 00
        E 240 90 02 60
        E 240 80 02 00
        E 0 90 03 60
        E 240 80 03 00
        E 960 90 02 60
        E 240 80 02 00
        E 240 90 02 60
        E 240 80 02 00
        E 0 90 00 60
        E 240 80 00 00
        E 960 90 00 60
        E 480 80 00 00
        E 0 90 00 60
        E 480 80 00 00
        E 240 90 00 60
        E 480 80 00 00
        E 1680 90 03 60
        E 0 90 00 60
        E 480 80 03 00
        E 0 80 00 00
        E 240 90 02 60
        E 0 90 01 60
        E 480 80 02 00
        E 0 80 01 00
        E 240 90 03 60
        E 0 90 00 60
        E 480 80 03 00
        E 0 80 00 00
        E 480 90 02 60
        E 0 90 01 60
        E 480 80 02 00
        E 0 80 01 00
        E 0 90 01 60
        E 0 90 02 60
        E 480 80 01 00
        E 0 80 02 00
        E 0 90 02 60
        E 240 80 02 00
        E 0 90 01 60
        E 240 80 01 00
        E 480 90 03 60
        E 240 80 03 00
        E 240 90 00 60
        E 240 80 00 00
        E 0 90 03 60
        E 240 80 03 00
        E 960 90 00 60
        E 240 80 00 00
        E 240 90 03 60
        E 240 80 03 00
        E 0 90 00 60
        E 240 80 00 00
        E 960 90 00 60
        E 240 80 00 00
        E 240 90 02 60
        E 240 80 02 00
        E 0 90 00 60
        E 240 80 00 00
        E 960 90 00 60
        E 240 80 00 00
        E 240 90 04 60
        E 240 80 04 00
        E 240 90 02 60
        E 240 80 02 00
        E 240 90 04 60
        E 240 80 04 00
        E 240 90 00 60
        E 240 80 00 00
        E 240 90 02 60
        E 240 80 02 00
        E 1200 90 01 60
        E 0 90 00 60
        E 480 80 01 00
        E 0 80 00 00
        E 240 90 01 60
        E 0 90 03 60
        E 480 80 01 00
        E 0 80 03 00
        E 720 90 00 60
        E 0 90 03 60
        E 480 80 00 00
        E 0 80 03 00
        E 240 90 01 60
        E 0 90 02 60
        E 480 80 01 00
        E 0 80 02 00
        E 240 90 00 60
        E 0 90 03 60
        E 480 80 00 00
        E 0 80 03 00
        E 240 90 00 60
        E 0 90 03 60
        E 480 80 00 00
        E 0 80 03 00
        E 30960 90 01 60
        E 240 80 01 00
        E 1680 90 01 60
        E 240 80 01 00
        E 480 90 01 60
        E 240 80 01 00
        E 480 90 02 60
        E 240 80 02 00
        E 2160 90 00 60
        E 240 80 00 00
        E 480 90 00 60
        E 240 80 00 00
        E 480 90 01 60
        E 240 80 01 00
        E 2160 90 01 60
        E 240 80 01 00
        E 480 90 01 60
        E 240 80 01 00
        E 480 90 03 60
        E 240 80 03 00
        E 720 90 03 60
        E 480 80 03 00
        E 240 90 02 60
        E 480 80 02 00
        E 240 90 03 60
        E 480 80 03 00
        E 480 90 02 60
        E 480 80 02 00
        E 480 90 01 60
        E 480 80 01 00
        E 1440 90 01 60
        E 240 80 01 00
        E 480 90 01 60
        E 240 80 01 00
        E 480 90 00 60
        E 240 80 00 00
        E 2160 90 00 60
        E 0 90 03 60
        E 240 80 00 00
        E 0 80 03 00
        E 480 90 03 60
        E 0 90 00 60
        E 240 80 03 00
        E 0 80 00 00
        E 480 90 00 60
        E 240 80 00 00
        E 2160 90 01 60
        E 240 80 01 00
        E 480 90 01 60
        E 240 80 01 00
        E 480 90 00 60
        E 240 80 00 00
        E 720 90 03 60
        E 480 80 03 00
        E 240 90 02 60
        E 480 80 02 00
        E 240 90 03 60
        E 480 80 03 00
        E 240 90 02 60
        E 480 80 02 00
        E 240 90 02 60
        E 480 80 02 00
        E 200027 b0 7b 00
        CCINTERP 32
        CHASE_CC_TAKEOFFS 1
        GUID {B37B1CEE-42AE-46B4-852E-850F08B2406E}
        IGNTEMPO 0 120 4 4
        SRCCOLOR 105
        VELLANE -1 100 0
        CFGEDITVIEW 89469.423335 0.061327 87 12 0 -1 0 0 0 0.5
        KEYSNAP 0
        TRACKSEL 252
        EVTFILTER 0 -1 -1 -1 -1 0 0 0 0 -1 -1 -1 -1 0 -1 0 -1 -1
        CFGEDIT 1 1 0 1 0 0 1 1 1 1 1 0.25 87 484 2501 1285 0 0 0 0 2 0 0 0 0 0.5 0 0 1 64
      >
    >
    <ITEM
      POSITION 62.00445434299763
      SNAPOFFS 0
      LENGTH 12.82850779508701
      LOOP 1
      ALLTAKES 0
      FADEIN 1 0 0 1 0 0 0
      FADEOUT 1 0 0 1 0 0 0
      MUTE 0 0
      COLOR 26325731 R
      SEL 0
      IGUID {57D2E891-6A4D-4007-99B6-E2AD0B19E7D5}
      IID 27
      NAME "untitled MIDI item"
      VOLPAN 1 0 1 -1
      SOFFS 19.24276169258786 35.99999999988313
      PLAYRATE 1 1 0 -1 0 0.0025
      CHANMODE 0
      GUID {6F62EFF6-1D9D-409D-98F3-9B788107C859}
      <SOURCE MIDI
        HASDATA 1 960 QN
        CCINTERP 32
        POOLEDEVTS {E6244690-02B1-440B-A669-94943C599D78}
        E 3840 90 02 60
        E 480 80 02 00
        E 0 90 00 60
        E 480 80 00 00
        E 960 90 03 60
        E 480 80 03 00
        E 240 90 03 60
        E 480 80 03 00
        E 240 90 03 60
        E 480 80 03 00
        E 0 90 03 60
        E 480 80 03 00
        E 0 90 01 60
        E 480 80 01 00
        E 960 90 03 60
        E 480 80 03 00
        E 240 90 03 60
        E 480 80 03 00
        E 240 90 02 60
        E 480 80 02 00
        E 0 90 02 60
        E 480 80 02 00
        E 0 90 00 60
        E 480 80 00 00
        E 960 90 03 60
        E 480 80 03 00
        E 240 90 03 60
        E 480 80 03 00
        E 240 90 03 60
        E 480 80 03 00
        E 0 90 03 60
        E 480 80 03 00
        E 0 90 01 60
        E 480 80 01 00
        E 1440 90 03 60
        E 0 90 00 60
        E 480 80 03 00
        E 0 80 00 00
        E 240 90 03 60
        E 0 90 00 60
        E 480 80 03 00
        E 0 80 00 00
        E 240 90 02 60
        E 240 80 02 00
        E 240 90 02 60
        E 240 80 02 00
        E 0 90 01 60
        E 480 80 01 00
        E 1680 90 02 60
        E 240 80 02 00
        E 240 90 02 60
        E 240 80 02 00
        E 0 90 03 60
        E 240 80 03 00
        E 960 90 02 60
        E 240 80 02 00
        E 240 90 02 60
        E 240 80 02 00
        E 0 90 03 60
        E 240 80 03 00
        E 960 90 02 60
        E 240 80 02 00
        E 240 90 02 60
        E 240 80 02 00
        E 0 90 00 60
        E 240 80 00 00
        E 960 90 00 60
        E 480 80 00 00
        E 0 90 00 60
        E 480 80 00 00
        E 240 90 00 60
        E 480 80 00 00
        E 1680 90 03 61
        E 0 90 00 61
        E 480 80 03 00
        E 0 80 00 00
        E 240 90 02 61
        E 0 90 01 61
        E 480 80 02 00
        E 0 80 01 00
        E 240 90 03 61
        E 0 90 00 61
        E 480 80 03 00
        E 0 80 00 00
        E 480 90 02 61
        E 0 90 01 61
        E 480 80 02 00
        E 0 80 01 00
        E 0 90 01 61
        E 0 90 02 61
        E 480 80 01 00
        E 0 80 02 00
        E 240 90 01 60
        E 240 80 01 00
        E 480 90 03 60
        E 240 80 03 00
        E 480 90 03 60
        E 240 80 03 00
        E 960 90 00 60
        E 240 80 00 00
        E 480 90 00 60
        E 240 80 00 00
        E 960 90 03 60
        E 240 80 03 00
        E 480 90 03 60
        E 240 80 03 00
        E 960 90 00 60
        E 240 80 00 00
        E 720 90 02 60
        E 240 80 02 00
        E 720 90 00 60
        E 240 80 00 00
        E 240 90 02 60
        E 240 80 02 00
        E 1200 90 01 60
        E 480 80 01 00
        E 240 90 03 60
        E 480 80 03 00
        E 720 90 03 60
        E 480 80 03 00
        E 240 90 02 60
        E 480 80 02 00
        E 240 90 03 60
        E 480 80 03 00
        E 240 90 03 60
        E 480 80 03 00
        E 480 90 01 60
        E 240 80 01 00
        E 480 90 03 60
        E 240 80 03 00
        E 480 90 03 60
        E 240 80 03 00
        E 960 90 00 60
        E 240 80 00 00
        E 480 90 00 60
        E 240 80 00 00
        E 960 90 03 60
        E 240 80 03 00
        E 480 90 03 60
        E 240 80 03 00
        E 960 90 00 60
        E 240 80 00 00
        E 720 90 02 60
        E 240 80 02 00
        E 720 90 00 60
        E 240 80 00 00
        E 240 90 01 60
        E 240 80 01 00
        E 1200 90 01 60
        E 480 80 01 00
        E 240 90 03 60
        E 480 80 03 00
        E 720 90 03 60
        E 480 80 03 00
        E 240 90 02 60
        E 480 80 02 00
        E 1920 90 01 60
        E 240 80 01 00
        E 480 90 02 60
        E 240 80 02 00
        E 480 90 03 60
        E 240 80 03 00
        E 480 90 03 60
        E 240 80 03 00
        E 1200 90 03 60
        E 240 80 03 00
        E 240 90 00 60
        E 240 80 00 00
        E 720 90 00 60
        E 240 80 00 00
        E 720 90 02 60
        E 240 80 02 00
        E 960 90 00 60
        E 240 80 00 00
        E 960 90 01 60
        E 240 80 01 00
        E 480 90 03 60
        E 240 80 03 00
        E 960 90 03 60
        E 240 80 03 00
        E 480 90 02 60
        E 240 80 02 00
        E 480 90 02 60
        E 240 80 02 00
        E 1200 90 01 60
        E 240 80 01 00
        E 720 90 02 60
        E 240 80 02 00
        E 720 b0 7b 00
        CCINTERP 32
        CHASE_CC_TAKEOFFS 1
        GUID {0C5A1C8C-9556-41B2-8385-E8D93AE12715}
        IGNTEMPO 0 120 4 4
        SRCCOLOR 125
        VELLANE -1 100 0
        CFGEDITVIEW -21890.576665 0.061327 87 12 0 -1 0 0 0 0.5
        KEYSNAP 0
        TRACKSEL 252
        EVTFILTER 0 -1 -1 -1 -1 0 0 0 0 -1 -1 -1 -1 0 -1 0 -1 -1
        CFGEDIT 1 1 0 1 0 0 1 1 1 1 1 0.25 87 484 2501 1285 0 0 0 0 2 0 0 0 0 0.5 0 0 1 64
      >
    >
    <ITEM
      POSITION 74.83296213808464
      SNAPOFFS 0
      LENGTH 21.38084632521966
      LOOP 0
      ALLTAKES 0
      FADEIN 1 0 0 1 0 0 0
      FADEOUT 1 0 0 1 0 0 0
      MUTE 0 0
      SEL 0
      IGUID {314C88C2-C307-4316-AEE5-60D25F82E7B9}
      IID 12
      NAME "untitled MIDI item"
      VOLPAN 1 0 1 -1
      SOFFS 32.07126948773734 59.99999999997526
      PLAYRATE 1 1 0 -1 0 0.0025
      CHANMODE 0
      GUID {6F8CD135-B37E-4FFF-9C4B-0003A6194F28}
      <SOURCE MIDI
        HASDATA 1 960 QN
        CCINTERP 32
        POOLEDEVTS {7CE69426-E598-4BD3-A28A-01F0F8CF0C33}
        E 3840 90 02 60
        E 480 80 02 00
        E 0 90 00 60
        E 480 80 00 00
        E 960 90 03 60
        E 480 80 03 00
        E 240 90 03 60
        E 480 80 03 00
        E 240 90 03 60
        E 480 80 03 00
        E 0 90 03 60
        E 480 80 03 00
        E 0 90 01 60
        E 480 80 01 00
        E 960 90 03 60
        E 480 80 03 00
        E 240 90 03 60
        E 480 80 03 00
        E 240 90 02 60
        E 480 80 02 00
        E 0 90 02 60
        E 480 80 02 00
        E 0 90 00 60
        E 480 80 00 00
        E 960 90 03 60
        E 480 80 03 00
        E 240 90 03 60
        E 480 80 03 00
        E 240 90 03 60
        E 480 80 03 00
        E 0 90 03 60
        E 480 80 03 00
        E 0 90 01 60
        E 480 80 01 00
        E 1440 90 03 60
        E 0 90 00 60
        E 480 80 03 00
        E 0 80 00 00
        E 240 90 03 60
        E 0 90 00 60
        E 480 80 03 00
        E 0 80 00 00
        E 240 90 02 60
        E 240 80 02 00
        E 240 90 02 60
        E 240 80 02 00
        E 0 90 01 60
        E 480 80 01 00
        E 1680 90 02 60
        E 240 80 02 00
        E 240 90 02 60
        E 240 80 02 00
        E 0 90 03 60
        E 240 80 03 00
        E 960 90 02 60
        E 240 80 02 00
        E 240 90 02 60
        E 240 80 02 00
        E 0 90 03 60
        E 240 80 03 00
        E 960 90 02 60
        E 240 80 02 00
        E 240 90 02 60
        E 240 80 02 00
        E 0 90 00 60
        E 240 80 00 00
        E 960 90 00 60
        E 480 80 00 00
        E 0 90 00 60
        E 480 80 00 00
        E 240 90 00 60
        E 480 80 00 00
        E 1680 90 03 60
        E 0 90 00 60
        E 480 80 03 00
        E 0 80 00 00
        E 240 90 02 60
        E 0 90 01 60
        E 480 80 02 00
        E 0 80 01 00
        E 240 90 03 60
        E 0 90 00 60
        E 480 80 03 00
        E 0 80 00 00
        E 480 90 02 60
        E 0 90 01 60
        E 480 80 02 00
        E 0 80 01 00
        E 0 90 01 60
        E 0 90 02 60
        E 480 80 01 00
        E 0 80 02 00
        E 240 90 01 60
        E 240 80 01 00
        E 480 90 03 60
        E 240 80 03 00
        E 240 90 00 60
        E 240 80 00 00
        E 0 90 03 60
        E 240 80 03 00
        E 960 90 00 60
        E 240 80 00 00
        E 240 90 03 60
        E 240 80 03 00
        E 0 90 00 60
        E 240 80 00 00
        E 960 90 00 60
        E 240 80 00 00
        E 240 90 02 60
        E 240 80 02 00
        E 0 90 00 60
        E 240 80 00 00
        E 960 90 00 60
        E 240 80 00 00
        E 240 90 04 60
        E 240 80 04 00
        E 240 90 02 60
        E 240 80 02 00
        E 240 90 04 60
        E 240 80 04 00
        E 240 90 00 60
        E 240 80 00 00
        E 240 90 02 60
        E 240 80 02 00
        E 1200 90 01 60
        E 480 80 01 00
        E 240 90 03 60
        E 480 80 03 00
        E 720 90 00 60
        E 480 80 00 00
        E 240 90 02 60
        E 480 80 02 00
        E 240 90 00 60
        E 0 90 03 60
        E 480 80 00 00
        E 0 80 03 00
        E 240 90 00 60
        E 0 90 03 60
        E 480 80 00 00
        E 0 80 03 00
        E 480 90 01 60
        E 240 80 01 00
        E 480 90 03 60
        E 240 80 03 00
        E 240 90 00 60
        E 240 80 00 00
        E 0 90 03 60
        E 240 80 03 00
        E 960 90 00 60
        E 240 80 00 00
        E 240 90 03 60
        E 240 80 03 00
        E 0 90 00 60
        E 240 80 00 00
        E 960 90 00 60
        E 240 80 00 00
        E 240 90 02 60
        E 240 80 02 00
        E 0 90 00 60
        E 240 80 00 00
        E 960 90 00 60
        E 240 80 00 00
        E 240 90 04 60
        E 240 80 04 00
        E 240 90 02 60
        E 240 80 02 00
        E 720 90 00 60
        E 240 80 00 00
        E 240 90 01 60
        E 240 80 01 00
        E 1200 90 01 60
        E 480 80 01 00
        E 240 90 03 60
        E 480 80 03 00
        E 720 90 00 60
        E 480 80 00 00
        E 240 90 02 60
        E 480 80 02 00
        E 720 90 00 60
        E 240 80 00 00
        E 720 90 01 60
        E 480 80 01 00
        E 480 90 02 60
        E 480 80 02 00
        E 480 90 00 60
        E 480 80 00 00
        E 960 90 03 60
        E 480 80 03 00
        E 1440 90 02 60
        E 480 80 02 00
        E 480 90 02 60
        E 480 80 02 00
        E 960 90 00 60
        E 480 80 00 00
        E 960 90 02 60
        E 480 80 02 00
        E 1440 90 00 60
        E 480 80 00 00
        E 1440 90 02 60
        E 480 80 02 00
        E 480 90 02 60
        E 480 80 02 00
        E 960 90 00 60
        E 480 80 00 00
        E 480 90 00 60
        E 480 80 00 00
        E 0 90 02 5f
        E 480 80 02 00
        E 480 90 00 60
        E 480 80 00 00
        E 960 90 00 60
        E 480 80 00 00
        E 480 90 00 60
        E 480 80 00 00
        E 0 90 01 60
        E 480 80 01 00
        E 480 90 02 60
        E 480 80 02 00
        E 480 90 01 60
        E 480 80 01 00
        E 1440 90 02 60
        E 480 80 02 00
        E 480 90 02 60
        E 480 80 02 00
        E 960 90 02 60
        E 240 80 02 00
        E 240 90 03 60
        E 240 80 03 00
        E 240 90 02 60
        E 240 80 02 00
        E 240 90 03 60
        E 240 80 03 00
        E 240 90 02 60
        E 240 80 02 00
        E 720 90 03 60
        E 0 90 00 5f
        E 240 80 03 00
        E 0 80 00 00
        E 720 b0 7b 00
        CCINTERP 32
        CHASE_CC_TAKEOFFS 1
        GUID {594B69F5-F01C-4C88-991E-E8ED0A7BF242}
        IGNTEMPO 0 120 4 4
        SRCCOLOR 109
        VELLANE -1 100 0
        CFGEDITVIEW 82214.068717 0.078085 98 12 0 -1 0 0 0 0.5
        KEYSNAP 0
        TRACKSEL 252
        EVTFILTER 0 -1 -1 -1 -1 0 0 0 0 -1 -1 -1 -1 0 -1 0 -1 -1
        CFGEDIT 1 1 0 1 0 0 1 1 1 1 1 0.25 -3 736 2567 1407 0 0 0 0 2 0 0 0 0 0.5 0 0 1 64
      >
    >
    <ITEM
      POSITION 96.2138084633043
      SNAPOFFS 0
      LENGTH 17.10467706013362
      LOOP 1
      ALLTAKES 0
      FADEIN 1 0 0 1 0 0 0
      FADEOUT 1 0 0 1 0 0 0
      MUTE 0 0
      COLOR 25494976 R
      SEL 0
      IGUID {B139F794-F64A-41D4-B08A-BD650F1E622B}
      IID 17
      NAME "untitled MIDI item-glued"
      VOLPAN 1 0 1 -1
      SOFFS 0 0
      PLAYRATE 1 1 0 -1 0 0.0025
      CHANMODE 0
      GUID {A683A50D-F22D-4294-9697-B2CD88B74C28}
      <SOURCE MIDI
        HASDATA 1 960 QN
        CCINTERP 32
        POOLEDEVTS {FBDF0C68-21DB-4EC5-BE33-0836D7632572}
        E 0 90 02 60
        E 480 80 02 00
        E 1440 90 03 60
        E 480 80 03 00
        E 240 90 03 60
        E 480 80 03 00
        E 720 90 03 60
        E 480 80 03 00
        E 1440 90 03 60
        E 480 80 03 00
        E 240 90 03 60
        E 480 80 03 00
        E 720 90 02 60
        E 480 80 02 00
        E 1440 90 03 60
        E 480 80 03 00
        E 240 90 03 60
        E 480 80 03 00
        E 720 90 03 60
        E 480 80 03 00
        E 1920 90 03 60
        E 0 90 00 60
        E 480 80 03 00
        E 0 80 00 00
        E 240 90 02 60
        E 0 90 01 60
        E 480 80 02 00
        E 0 80 01 00
        E 3120 90 02 60
        E 240 80 02 00
        E 480 90 03 60
        E 240 80 03 00
        E 960 90 02 60
        E 240 80 02 00
        E 480 90 03 60
        E 240 80 03 00
        E 960 90 02 60
        E 240 80 02 00
        E 480 90 00 60
        E 240 80 00 00
        E 960 90 00 60
        E 480 80 00 00
        E 720 90 00 60
        E 480 80 00 00
        E 1680 90 03 60
        E 480 80 03 00
        E 240 90 02 60
        E 480 80 02 00
        E 240 90 03 60
        E 480 80 03 00
        E 480 90 02 60
        E 480 80 02 00
        E 0 90 02 60
        E 480 80 02 00
        E 0 b0 7b 00
        CCINTERP 32
        CHASE_CC_TAKEOFFS 1
        GUID {11BCF3EA-CE30-48AB-BE97-F715C79BF55C}
        IGNTEMPO 0 120 4 4
        SRCCOLOR 115
        VELLANE -1 100 0
        CFGEDITVIEW 1905.838829 0.062955 85 13 0 -1 0 0 0 0.5
        KEYSNAP 0
        TRACKSEL 252
        EVTFILTER 0 -1 -1 -1 -1 0 0 0 0 -1 -1 -1 -1 0 -1 0 -1 -1
        CFGEDIT 1 1 0 1 0 0 1 1 1 1 1 0.25 12 482 2479 1345 0 0 0 0 2 0 0 0 0 0.5 0 0 1 64
      >
    >
    <ITEM
      POSITION 113.31848552338531
      SNAPOFFS 0
      LENGTH 25.65701559026297
      LOOP 1
      ALLTAKES 0
      FADEIN 1 0 0 1 0 0 0
      FADEOUT 1 0 0 1 0 0 0
      MUTE 0 0
      COLOR 26325731 R
      SEL 0
      IGUID {7DE75295-8699-4E5E-97E0-733498988E07}
      IID 27
      NAME "untitled MIDI item"
      VOLPAN 1 0 1 -1
      SOFFS 19.24276169258788 35.99999999988313
      PLAYRATE 1 1 0 -1 0 0.0025
      CHANMODE 0
      GUID {A3B9F3A0-9A9B-4004-9581-61B61F071779}
      <SOURCE MIDI
        HASDATA 1 960 QN
        CCINTERP 32
        POOLEDEVTS {D8DE15E9-9AF9-4DF6-B6D4-07F4AAB42579}
        E 3840 90 02 60
        E 480 80 02 00
        E 0 90 00 60
        E 480 80 00 00
        E 960 90 03 60
        E 480 80 03 00
        E 240 90 03 60
        E 480 80 03 00
        E 240 90 03 60
        E 480 80 03 00
        E 0 90 03 60
        E 480 80 03 00
        E 0 90 01 60
        E 480 80 01 00
        E 960 90 03 60
        E 480 80 03 00
        E 240 90 03 60
        E 480 80 03 00
        E 240 90 02 60
        E 480 80 02 00
        E 0 90 02 60
        E 480 80 02 00
        E 0 90 00 60
        E 480 80 00 00
        E 960 90 03 60
        E 480 80 03 00
        E 240 90 03 60
        E 480 80 03 00
        E 240 90 03 60
        E 480 80 03 00
        E 0 90 03 60
        E 480 80 03 00
        E 0 90 01 60
        E 480 80 01 00
        E 1440 90 03 60
        E 0 90 00 60
        E 480 80 03 00
        E 0 80 00 00
        E 240 90 03 60
        E 0 90 00 60
        E 480 80 03 00
        E 0 80 00 00
        E 240 90 02 60
        E 240 80 02 00
        E 240 90 02 60
        E 240 80 02 00
        E 0 90 01 60
        E 480 80 01 00
        E 1680 90 02 60
        E 240 80 02 00
        E 240 90 02 60
        E 240 80 02 00
        E 0 90 03 60
        E 240 80 03 00
        E 960 90 02 60
        E 240 80 02 00
        E 240 90 02 60
        E 240 80 02 00
        E 0 90 03 60
        E 240 80 03 00
        E 960 90 02 60
        E 240 80 02 00
        E 240 90 02 60
        E 240 80 02 00
        E 0 90 00 60
        E 240 80 00 00
        E 960 90 00 60
        E 480 80 00 00
        E 0 90 00 60
        E 480 80 00 00
        E 240 90 00 60
        E 480 80 00 00
        E 1680 90 03 61
        E 0 90 00 61
        E 480 80 03 00
        E 0 80 00 00
        E 240 90 02 61
        E 0 90 01 61
        E 480 80 02 00
        E 0 80 01 00
        E 240 90 03 61
        E 0 90 00 61
        E 480 80 03 00
        E 0 80 00 00
        E 480 90 02 61
        E 0 90 01 61
        E 480 80 02 00
        E 0 80 01 00
        E 0 90 01 61
        E 0 90 02 61
        E 480 80 01 00
        E 0 80 02 00
        E 240 90 01 60
        E 240 80 01 00
        E 480 90 03 60
        E 240 80 03 00
        E 480 90 03 60
        E 240 80 03 00
        E 960 90 00 60
        E 240 80 00 00
        E 480 90 00 60
        E 240 80 00 00
        E 960 90 03 60
        E 240 80 03 00
        E 480 90 03 60
        E 240 80 03 00
        E 960 90 00 60
        E 240 80 00 00
        E 720 90 02 60
        E 240 80 02 00
        E 720 90 00 60
        E 240 80 00 00
        E 240 90 02 60
        E 240 80 02 00
        E 1200 90 01 60
        E 480 80 01 00
        E 240 90 03 60
        E 480 80 03 00
        E 720 90 03 60
        E 480 80 03 00
        E 240 90 02 60
        E 480 80 02 00
        E 240 90 03 60
        E 480 80 03 00
        E 240 90 03 60
        E 480 80 03 00
        E 480 90 01 60
        E 240 80 01 00
        E 480 90 03 60
        E 240 80 03 00
        E 480 90 03 60
        E 240 80 03 00
        E 960 90 00 60
        E 240 80 00 00
        E 480 90 00 60
        E 240 80 00 00
        E 960 90 03 60
        E 240 80 03 00
        E 480 90 03 60
        E 240 80 03 00
        E 960 90 00 60
        E 240 80 00 00
        E 720 90 02 60
        E 240 80 02 00
        E 720 90 00 60
        E 240 80 00 00
        E 240 90 01 60
        E 240 80 01 00
        E 1200 90 01 60
        E 480 80 01 00
        E 240 90 03 60
        E 480 80 03 00
        E 720 90 03 60
        E 480 80 03 00
        E 240 90 02 60
        E 480 80 02 00
        E 1920 90 01 60
        E 240 80 01 00
        E 480 90 02 60
        E 240 80 02 00
        E 480 90 03 60
        E 240 80 03 00
        E 480 90 03 60
        E 240 80 03 00
        E 1200 90 03 60
        E 240 80 03 00
        E 240 90 00 60
        E 240 80 00 00
        E 720 90 00 60
        E 240 80 00 00
        E 720 90 02 60
        E 240 80 02 00
        E 960 90 00 60
        E 240 80 00 00
        E 960 90 01 60
        E 240 80 01 00
        E 480 90 03 60
        E 240 80 03 00
        E 960 90 03 60
        E 240 80 03 00
        E 480 90 02 60
        E 240 80 02 00
        E 480 90 02 60
        E 240 80 02 00
        E 1200 90 01 60
        E 240 80 01 00
        E 720 90 02 60
        E 240 80 02 00
        E 720 b0 7b 00
        CCINTERP 32
        CHASE_CC_TAKEOFFS 1
        GUID {0C5A1C8C-9556-41B2-8385-E8D93AE12715}
        IGNTEMPO 0 120 4 4
        SRCCOLOR 125
        VELLANE -1 100 0
        CFGEDITVIEW 38575.456417 0.083801 88 12 0 -1 0 0 0 0.5
        KEYSNAP 0
        TRACKSEL 252
        EVTFILTER 0 -1 -1 -1 -1 0 0 0 0 -1 -1 -1 -1 0 -1 0 -1 -1
        CFGEDIT 1 1 0 1 0 0 1 1 1 1 1 0.25 1 574 2481 1361 0 0 0 0 2 0 0 0 0 0.5 0 0 1 64
      >
    >
    <ITEM
      POSITION 138.97550111357123
      SNAPOFFS 0
      LENGTH 17.10467706013364
      LOOP 1
      ALLTAKES 0
      FADEIN 1 0 0 1 0 0 0
      FADEOUT 1 0 0 1 0 0 0
      MUTE 0 0
      COLOR 17537235 R
      SEL 0
      IGUID {DAD3FD10-C859-4A05-BEE0-9C5332E91EB4}
      IID 8
      NAME "untitled MIDI item"
      VOLPAN 1 0 1 -1
      SOFFS 44.89977728285078 84
      PLAYRATE 1 1 0 -1 0 0.0025
      CHANMODE 0
      GUID {DAF71700-9029-4F35-BC89-1C8252AA1FBE}
      <SOURCE MIDI
        HASDATA 1 960 QN
        CCINTERP 32
        POOLEDEVTS {C3A67BC3-627E-4431-9C14-B5A97B56230E}
        E 3840 90 02 60
        E 480 80 02 00
        E 0 90 00 60
        E 480 80 00 00
        E 960 90 03 60
        E 480 80 03 00
        E 240 90 03 60
        E 480 80 03 00
        E 240 90 03 60
        E 480 80 03 00
        E 0 90 03 60
        E 480 80 03 00
        E 0 90 01 60
        E 480 80 01 00
        E 960 90 03 60
        E 480 80 03 00
        E 240 90 03 60
        E 480 80 03 00
        E 240 90 02 60
        E 480 80 02 00
        E 0 90 02 60
        E 480 80 02 00
        E 0 90 00 60
        E 480 80 00 00
        E 960 90 03 60
        E 480 80 03 00
        E 240 90 03 60
        E 480 80 03 00
        E 240 90 03 60
        E 480 80 03 00
        E 0 90 03 60
        E 480 80 03 00
        E 0 90 01 60
        E 480 80 01 00
        E 1440 90 03 60
        E 0 90 00 60
        E 480 80 03 00
        E 0 80 00 00
        E 240 90 03 60
        E 0 90 00 60
        E 480 80 03 00
        E 0 80 00 00
        E 240 90 02 60
        E 240 80 02 00
        E 240 90 02 60
        E 240 80 02 00
        E 0 90 01 60
        E 480 80 01 00
        E 1680 90 02 60
        E 240 80 02 00
        E 240 90 02 60
        E 240 80 02 00
        E 0 90 03 60
        E 240 80 03 00
        E 960 90 02 60
        E 240 80 02 00
        E 240 90 02 60
        E 240 80 02 00
        E 0 90 03 60
        E 240 80 03 00
        E 960 90 02 60
        E 240 80 02 00
        E 240 90 02 60
        E 240 80 02 00
        E 0 90 00 60
        E 240 80 00 00
        E 960 90 00 60
        E 480 80 00 00
        E 0 90 00 60
        E 480 80 00 00
        E 240 90 00 60
        E 480 80 00 00
        E 1680 90 03 60
        E 0 90 00 60
        E 480 80 03 00
        E 0 80 00 00
        E 240 90 02 60
        E 0 90 01 60
        E 480 80 02 00
        E 0 80 01 00
        E 240 90 03 60
        E 0 90 00 60
        E 480 80 03 00
        E 0 80 00 00
        E 480 90 02 60
        E 0 90 01 60
        E 480 80 02 00
        E 0 80 01 00
        E 0 90 01 60
        E 0 90 02 60
        E 480 80 01 00
        E 0 80 02 00
        E 0 90 02 60
        E 240 80 02 00
        E 0 90 01 60
        E 240 80 01 00
        E 480 90 03 60
        E 240 80 03 00
        E 240 90 00 60
        E 240 80 00 00
        E 0 90 03 60
        E 240 80 03 00
        E 960 90 00 60
        E 240 80 00 00
        E 240 90 03 60
        E 240 80 03 00
        E 0 90 00 60
        E 240 80 00 00
        E 960 90 00 60
        E 240 80 00 00
        E 240 90 02 60
        E 240 80 02 00
        E 0 90 00 60
        E 240 80 00 00
        E 960 90 00 60
        E 240 80 00 00
        E 240 90 04 60
        E 240 80 04 00
        E 240 90 02 60
        E 240 80 02 00
        E 240 90 04 60
        E 240 80 04 00
        E 240 90 00 60
        E 240 80 00 00
        E 240 90 02 60
        E 240 80 02 00
        E 1200 90 01 60
        E 0 90 00 60
        E 480 80 01 00
        E 0 80 00 00
        E 240 90 01 60
        E 0 90 03 60
        E 480 80 01 00
        E 0 80 03 00
        E 720 90 00 60
        E 0 90 03 60
        E 480 80 00 00
        E 0 80 03 00
        E 240 90 01 60
        E 0 90 02 60
        E 480 80 01 00
        E 0 80 02 00
        E 240 90 00 60
        E 0 90 03 60
        E 480 80 00 00
        E 0 80 03 00
        E 240 90 00 60
        E 0 90 03 60
        E 480 80 00 00
        E 0 80 03 00
        E 30960 90 01 60
        E 240 80 01 00
        E 1680 90 01 60
        E 240 80 01 00
        E 480 90 01 60
        E 240 80 01 00
        E 480 90 02 60
        E 240 80 02 00
        E 2160 90 00 60
        E 240 80 00 00
        E 480 90 00 60
        E 240 80 00 00
        E 480 90 01 60
        E 240 80 01 00
        E 2160 90 01 60
        E 240 80 01 00
        E 480 90 01 60
        E 240 80 01 00
        E 480 90 03 60
        E 240 80 03 00
        E 720 90 03 60
        E 480 80 03 00
        E 240 90 02 60
        E 480 80 02 00
        E 240 90 03 60
        E 480 80 03 00
        E 480 90 02 60
        E 480 80 02 00
        E 480 90 01 60
        E 480 80 01 00
        E 1440 90 01 60
        E 240 80 01 00
        E 480 90 01 60
        E 240 80 01 00
        E 480 90 00 60
        E 240 80 00 00
        E 2160 90 00 60
        E 0 90 03 60
        E 240 80 00 00
        E 0 80 03 00
        E 480 90 03 60
        E 0 90 00 60
        E 240 80 03 00
        E 0 80 00 00
        E 480 90 00 60
        E 240 80 00 00
        E 2160 90 01 60
        E 240 80 01 00
        E 480 90 01 60
        E 240 80 01 00
        E 480 90 00 60
        E 240 80 00 00
        E 720 90 03 60
        E 480 80 03 00
        E 240 90 02 60
        E 480 80 02 00
        E 240 90 03 60
        E 480 80 03 00
        E 240 90 02 60
        E 480 80 02 00
        E 240 90 02 60
        E 480 80 02 00
        E 200027 b0 7b 00
        CCINTERP 32
        CHASE_CC_TAKEOFFS 1
        GUID {B37B1CEE-42AE-46B4-852E-850F08B2406E}
        IGNTEMPO 0 120 4 4
        SRCCOLOR 105
        VELLANE -1 100 0
        CFGEDITVIEW 80640 0.061327 87 12 0 -1 0 0 0 0.5
        KEYSNAP 0
        TRACKSEL 252
        EVTFILTER 0 -1 -1 -1 -1 0 0 0 0 -1 -1 -1 -1 0 -1 0 -1 -1
        CFGEDIT 1 1 0 1 0 0 1 1 1 1 1 0.25 87 484 2501 1285 0 0 0 0 2 0 0 0 0 0.5 0 0 1 64
      >
    >
    <ITEM
      POSITION 156.08017817372456
      SNAPOFFS 0
      LENGTH 17.10467706013361
      LOOP 1
      ALLTAKES 0
      FADEIN 1 0 0 1 0 0 0
      FADEOUT 1 0 0 1 0 0 0
      MUTE 0 0
      SEL 0
      IGUID {D0E1EAA2-7E00-4C53-9ECC-6D2C36BE271D}
      IID 15
      NAME "untitled MIDI item"
      VOLPAN 1 0 1 -1
      SOFFS 0 0
      PLAYRATE 1 1 0 -1 0 0.0025
      CHANMODE 0
      GUID {F403C3F1-4E71-4D2C-B37B-6E4A64E4F18C}
      <SOURCE MIDI
        HASDATA 1 960 QN
        CCINTERP 32
        POOLEDEVTS {D04BC749-98C3-4590-92A0-B5FCDB4FBEFA}
        E 0 90 02 60
        E 240 80 02 00
        E 480 90 01 60
        E 480 80 01 00
        E 1680 90 02 60
        E 240 80 02 00
        E 480 90 03 60
        E 240 80 03 00
        E 960 90 02 60
        E 240 80 02 00
        E 480 90 03 60
        E 240 80 03 00
        E 960 90 02 60
        E 240 80 02 00
        E 480 90 00 60
        E 240 80 00 00
        E 960 90 00 60
        E 480 80 00 00
        E 0 90 00 60
        E 480 80 00 00
        E 240 90 00 60
        E 480 80 00 00
        E 1680 90 03 60
        E 480 80 03 00
        E 240 90 02 60
        E 480 80 02 00
        E 240 90 03 60
        E 480 80 03 00
        E 240 90 02 60
        e 0 90 01 60
        E 480 80 02 00
        e 0 80 01 00
        e 240 90 01 60
        E 0 90 02 60
        e 480 80 01 00
        E 0 80 02 00
        E 0 b0 7b 00
        CCINTERP 32
        CHASE_CC_TAKEOFFS 1
        GUID {9F0AE544-2FC2-42E1-A87A-0CC3683A1E88}
        IGNTEMPO 0 120 4 4
        SRCCOLOR 112
        VELLANE -1 100 0
        CFGEDITVIEW 17563.745488 0.111603 87 12 0 -1 0 0 0 0.5
        KEYSNAP 0
        TRACKSEL 252
        EVTFILTER 0 -1 -1 -1 -1 0 0 0 0 -1 -1 -1 -1 0 -1 0 -1 -1
        CFGEDIT 1 1 0 1 0 0 1 1 1 1 1 0.25 65 390 2437 1191 0 0 0 0 2 0 0 0 0 0.5 0 0 1 64
      >
    >
    <ITEM
      POSITION 173.184855233853
      SNAPOFFS 0
      LENGTH 1.06904231625836
      LOOP 1
      ALLTAKES 0
      FADEIN 1 0 0 1 0 0 0
      FADEOUT 1 0 0 1 0 0 0
      MUTE 0 0
      SEL 0
      IGUID {ADB50B20-D29F-4A13-A5B6-B41776AD077F}
      IID 16
      NAME "untitled MIDI item"
      VOLPAN 1 0 1 -1
      SOFFS 0 0
      PLAYRATE 1 1 0 -1 0 0.0025
      CHANMODE 0
      GUID {895B1A7D-6800-445A-9B59-336AD895205F}
      <SOURCE MIDI
        HASDATA 1 960 QN
        CCINTERP 32
        POOLEDEVTS {6120298A-881F-49F6-BB8B-C5F1F5C43490}
        E 0 90 02 60
        E 240 80 02 00
        E 1680 b0 7b 00
        CCINTERP 32
        CHASE_CC_TAKEOFFS 1
        GUID {289ECCB2-1BCE-4D8D-9C17-0914A4D4F313}
        IGNTEMPO 0 120 4 4
        SRCCOLOR 113
        VELLANE -1 100 0
        CFGEDITVIEW -1173.765419 0.225 88 12 0 -1 0 0 0 0.5
        KEYSNAP 0
        TRACKSEL 252
        EVTFILTER 0 -1 -1 -1 -1 0 0 0 0 -1 -1 -1 -1 0 -1 0 -1 -1
        CFGEDIT 1 1 0 1 0 0 1 1 1 1 1 0.25 975 456 2253 1241 0 0 0 0 2 0 0 0 0 0.5 0 0 1 64
      >
    >
  >
  <TRACK {AB410770-3B06-4419-AAD5-025C5894E8A5}
    NAME Med
    PEAKCOL 16576
    BEAT -1
    AUTOMODE 0
    VOLPAN 0.64382266579432 0 -1 -1 1
    MUTESOLO 1 0 0
    IPHASE 0
    PLAYOFFS 0 1
    ISBUS 0 0
    BUSCOMP 0 0 0 0 0
    SHOWINMIX 1 0.6667 0.5 1 0.5 0 -1 0
    FREEMODE 0
    SEL 0
    REC 0 0 1 0 0 0 0
    VU 2
    TRACKHEIGHT 0 0 0 0 0 0
    INQ 0 0 0 0.5 100 0 0 100
    NCHAN 2
    FX 1
    TRACKID {AB410770-3B06-4419-AAD5-025C5894E8A5}
    PERF 0
    MIDIOUT -1
    MAINSEND 1 0
    <FXCHAIN
      SHOW 0
      LASTSEL 0
      DOCKED 0
      BYPASS 0 0 0
      <VST "VSTi: Magical 8bit Plug 2 (Ymck)" Magical8bitPlug2.dll 0 "" 1937337962<56535473796E6A6D61676963616C2038> ""
        am55c+5e7f4AAAAAAgAAAAEAAAAAAAAAAgAAAAAAAAC1BAAAAQAAAAAAEAA=
        VkMyIawEAAA8cm9vdD48UGFyYW1zPjxQQVJBTSBpZD0iYXJwZWdnaW9EaXJlY3Rpb24iIHZhbHVlPSIwLjAiLz48UEFSQU0gaWQ9ImFycGVnZ2lvVGltZSIgdmFsdWU9
        IjAuMDI5OTk5OTk5MzI5NDQ3NzUiLz48UEFSQU0gaWQ9ImF0dGFjayIgdmFsdWU9IjAuMCIvPjxQQVJBTSBpZD0iYmVuZFJhbmdlIiB2YWx1ZT0iMi4wIi8+PFBBUkFN
        IGlkPSJjb2xvclNjaGVtZSIgdmFsdWU9IjEuMCIvPjxQQVJBTSBpZD0iZGVjYXkiIHZhbHVlPSIwLjAiLz48UEFSQU0gaWQ9ImR1dHkiIHZhbHVlPSIwLjAiLz48UEFS
        QU0gaWQ9ImdhaW4iIHZhbHVlPSIwLjUiLz48UEFSQU0gaWQ9ImlzQWR2YW5jZWRQYW5lbE9wZW5fcmF3IiB2YWx1ZT0iMS4wIi8+PFBBUkFNIGlkPSJpc0FycGVnZ2lv
        RW5hYmxlZF9yYXciIHZhbHVlPSIwLjAiLz48UEFSQU0gaWQ9ImlzRHV0eVNlcXVlbmNlRW5hYmxlZF9yYXciIHZhbHVlPSIwLjAiLz48UEFSQU0gaWQ9ImlzUGl0Y2hT
        ZXF1ZW5jZUVuYWJsZWRfcmF3IiB2YWx1ZT0iMC4wIi8+PFBBUkFNIGlkPSJpc1ZvbHVtZVNlcXVlbmNlRW5hYmxlZF9yYXciIHZhbHVlPSIwLjAiLz48UEFSQU0gaWQ9
        Im1heFBvbHkiIHZhbHVlPSI4LjAiLz48UEFSQU0gaWQ9Im5vaXNlQWxnb3JpdGhtX3JhdyIgdmFsdWU9IjAuMCIvPjxQQVJBTSBpZD0ib3NjIiB2YWx1ZT0iMC4wIi8+
        PFBBUkFNIGlkPSJwaXRjaFNlcXVlbmNlTW9kZV9yYXciIHZhbHVlPSIwLjAiLz48UEFSQU0gaWQ9InJlbGVhc2UiIHZhbHVlPSIwLjAiLz48UEFSQU0gaWQ9InJlc3Ry
        aWN0c1RvTkVTRnJlcXVlbmN5X3JhdyIgdmFsdWU9IjAuMCIvPjxQQVJBTSBpZD0ic3VzbGV2ZWwiIHZhbHVlPSIxLjAiLz48UEFSQU0gaWQ9InN3ZWVwSW5pdGlhbFBp
        dGNoIiB2YWx1ZT0iMjQuMCIvPjxQQVJBTSBpZD0ic3dlZXBUaW1lIiB2YWx1ZT0iMC4xMDAwMDAwMDE0OTAxMTYxIi8+PFBBUkFNIGlkPSJ2aWJyYXRvRGVsYXkiIHZh
        bHVlPSIwLjI5OTk5OTk4MjExODYwNjYiLz48UEFSQU0gaWQ9InZpYnJhdG9EZXB0aCIgdmFsdWU9IjAuMCIvPjxQQVJBTSBpZD0idmlicmF0b0lnbm9yZXNXaGVlbF9y
        YXciIHZhbHVlPSIxLjAiLz48UEFSQU0gaWQ9InZpYnJhdG9SYXRlIiB2YWx1ZT0iMC4xNTAwMDAwMDU5NjA0NjQ1Ii8+PC9QYXJhbXM+PHZvbHVtZUVudj48L3ZvbHVt
        ZUVudj48cGl0Y2hFbnY+PC9waXRjaEVudj48ZHV0eUVudj48L2R1dHlFbnY+PC9yb290PgA=
        AGRlZmF1bHQgZGFyawAQAAAA
      >
      PRESETNAME "default dark"
      FLOATPOS 24 52 656 628
      FXID {40E9E793-B566-4796-87A3-D29E210BC95B}
      WAK 0 0
    >
    <ITEM
      POSITION 2.1380846325167
      SNAPOFFS 0
      LENGTH 17.10467706013363
      LOOP 1
      ALLTAKES 0
      FADEIN 1 0 0 1 0 0 0
      FADEOUT 1 0 0 1 0 0 0
      MUTE 0 0
      COLOR 25494976 R
      SEL 0
      IGUID {15CDB8E1-FFE9-40DD-AABD-BAB23830C9A6}
      IID 17
      NAME "untitled MIDI item-glued"
      VOLPAN 1 0 1 -1
      SOFFS 0 0
      PLAYRATE 1 1 0 -1 0 0.0025
      CHANMODE 0
      GUID {5FFC5F79-AEF6-4FE9-AB33-AFA18FB1511E}
      <SOURCE MIDI
        HASDATA 1 960 QN
        CCINTERP 32
        POOLEDEVTS {FCB7142A-9E7A-4890-BAA5-C1BAAA822D7A}
        E 0 90 02 60
        E 480 80 02 00
        E 0 90 00 60
        E 480 80 00 00
        E 960 90 03 60
        E 480 80 03 00
        E 240 90 03 60
        E 480 80 03 00
        E 240 90 03 60
        E 480 80 03 00
        E 0 90 03 60
        E 480 80 03 00
        E 1440 90 03 60
        E 480 80 03 00
        E 240 90 03 60
        E 480 80 03 00
        E 240 90 02 60
        E 480 80 02 00
        E 0 90 02 60
        E 480 80 02 00
        E 1440 90 03 60
        E 480 80 03 00
        E 240 90 03 60
        E 480 80 03 00
        E 240 90 03 60
        E 480 80 03 00
        E 0 90 03 60
        E 480 80 03 00
        E 1920 90 03 60
        E 0 90 00 60
        E 480 80 03 00
        E 0 80 00 00
        E 240 90 03 60
        E 0 90 00 60
        E 480 80 03 00
        E 0 80 00 00
        E 240 90 02 60
        E 240 80 02 00
        E 480 90 01 60
        E 480 80 01 00
        E 1680 90 02 60
        E 240 80 02 00
        E 480 90 03 60
        E 240 80 03 00
        E 960 90 02 60
        E 240 80 02 00
        E 480 90 03 60
        E 240 80 03 00
        E 960 90 02 60
        E 240 80 02 00
        E 480 90 00 60
        E 240 80 00 00
        E 960 90 00 60
        E 480 80 00 00
        E 720 90 00 60
        E 480 80 00 00
        E 1680 90 03 60
        E 0 90 00 60
        E 480 80 03 00
        E 0 80 00 00
        E 240 90 02 60
        E 0 90 01 60
        E 480 80 02 00
        E 0 80 01 00
        E 240 90 03 60
        E 0 90 00 60
        E 480 80 03 00
        E 0 80 00 00
        E 480 90 02 60
        E 0 90 01 60
        E 480 80 02 00
        E 0 80 01 00
        E 0 90 01 60
        E 0 90 02 60
        E 480 80 01 00
        E 0 80 02 00
        E 0 b0 7b 00
        CCINTERP 32
        CHASE_CC_TAKEOFFS 1
        GUID {11BCF3EA-CE30-48AB-BE97-F715C79BF55C}
        IGNTEMPO 0 120 4 4
        SRCCOLOR 115
        VELLANE -1 100 0
        CFGEDITVIEW -921.6 0.062955 103 13 0 -1 0 0 0 0.5
        KEYSNAP 0
        TRACKSEL 252
        EVTFILTER 0 -1 -1 -1 -1 0 0 0 0 -1 -1 -1 -1 0 -1 0 -1 -1
        CFGEDIT 1 1 0 1 0 0 1 1 1 1 1 0.25 12 482 2479 1345 0 0 0 0 2 0 0 0 0 0.5 0 0 1 64
      >
    >
    <ITEM
      POSITION 19.24276169265033
      SNAPOFFS 0
      LENGTH 25.65701559026295
      LOOP 1
      ALLTAKES 0
      FADEIN 1 0 0 1 0 0 0
      FADEOUT 1 0 0 1 0 0 0
      MUTE 0 0
      COLOR 26325731 R
      SEL 0
      IGUID {FDD20C05-FAE8-4AF1-BC68-532676D855FE}
      IID 27
      NAME "untitled MIDI item"
      VOLPAN 1 0 1 -1
      SOFFS 19.24276169258786 35.99999999988312
      PLAYRATE 1 1 0 -1 0 0.0025
      CHANMODE 0
      GUID {4DEA9E77-A25F-487C-8C60-7FE23A2599FE}
      <SOURCE MIDI
        HASDATA 1 960 QN
        CCINTERP 32
        POOLEDEVTS {D4E1A4E9-DFCC-463F-954A-EE9132ED8AE6}
        E 3840 90 02 60
        E 480 80 02 00
        E 0 90 00 60
        E 480 80 00 00
        E 960 90 03 60
        E 480 80 03 00
        E 240 90 03 60
        E 480 80 03 00
        E 240 90 03 60
        E 480 80 03 00
        E 0 90 03 60
        E 480 80 03 00
        E 0 90 01 60
        E 480 80 01 00
        E 960 90 03 60
        E 480 80 03 00
        E 240 90 03 60
        E 480 80 03 00
        E 240 90 02 60
        E 480 80 02 00
        E 0 90 02 60
        E 480 80 02 00
        E 0 90 00 60
        E 480 80 00 00
        E 960 90 03 60
        E 480 80 03 00
        E 240 90 03 60
        E 480 80 03 00
        E 240 90 03 60
        E 480 80 03 00
        E 0 90 03 60
        E 480 80 03 00
        E 0 90 01 60
        E 480 80 01 00
        E 1440 90 03 60
        E 0 90 00 60
        E 480 80 03 00
        E 0 80 00 00
        E 240 90 03 60
        E 0 90 00 60
        E 480 80 03 00
        E 0 80 00 00
        E 240 90 02 60
        E 240 80 02 00
        E 240 90 02 60
        E 240 80 02 00
        E 0 90 01 60
        E 480 80 01 00
        E 1680 90 02 60
        E 240 80 02 00
        E 240 90 02 60
        E 240 80 02 00
        E 0 90 03 60
        E 240 80 03 00
        E 960 90 02 60
        E 240 80 02 00
        E 240 90 02 60
        E 240 80 02 00
        E 0 90 03 60
        E 240 80 03 00
        E 960 90 02 60
        E 240 80 02 00
        E 240 90 02 60
        E 240 80 02 00
        E 0 90 00 60
        E 240 80 00 00
        E 960 90 00 60
        E 480 80 00 00
        E 0 90 00 60
        E 480 80 00 00
        E 240 90 00 60
        E 480 80 00 00
        e 1680 90 03 60
        e 0 90 00 60
        e 480 80 03 00
        e 0 80 00 00
        e 240 90 02 60
        e 0 90 01 60
        e 480 80 02 00
        e 0 80 01 00
        e 240 90 03 60
        e 0 90 00 60
        e 480 80 03 00
        e 0 80 00 00
        e 480 90 02 60
        e 0 90 01 60
        e 480 80 02 00
        e 0 80 01 00
        e 0 90 01 60
        e 0 90 02 60
        e 480 80 01 00
        e 0 80 02 00
        E 0 90 02 60
        E 240 80 02 00
        E 0 90 01 60
        E 240 80 01 00
        E 480 90 03 60
        E 240 80 03 00
        E 240 90 00 60
        E 240 80 00 00
        E 0 90 03 60
        E 240 80 03 00
        E 960 90 00 60
        E 240 80 00 00
        E 240 90 03 60
        E 240 80 03 00
        E 0 90 00 60
        E 240 80 00 00
        E 960 90 00 60
        E 240 80 00 00
        E 240 90 02 60
        E 240 80 02 00
        E 0 90 00 60
        E 240 80 00 00
        E 960 90 00 60
        E 240 80 00 00
        E 240 90 04 60
        E 240 80 04 00
        E 240 90 02 60
        E 240 80 02 00
        E 240 90 04 60
        E 240 80 04 00
        E 240 90 00 60
        E 240 80 00 00
        E 240 90 02 60
        E 240 80 02 00
        E 1200 90 01 60
        E 0 90 00 60
        E 480 80 01 00
        E 0 80 00 00
        E 240 90 01 60
        E 0 90 03 60
        E 480 80 01 00
        E 0 80 03 00
        E 720 90 00 60
        E 0 90 03 60
        E 480 80 00 00
        E 0 80 03 00
        E 240 90 01 60
        E 0 90 02 60
        E 480 80 01 00
        E 0 80 02 00
        E 240 90 00 60
        E 0 90 03 60
        E 480 80 00 00
        E 0 80 03 00
        E 240 90 00 60
        E 0 90 03 60
        E 480 80 00 00
        E 0 80 03 00
        E 240 90 03 60
        E 240 80 03 00
        E 0 90 01 60
        E 240 80 01 00
        E 480 90 03 60
        E 240 80 03 00
        E 240 90 00 60
        E 240 80 00 00
        E 0 90 03 60
        E 240 80 03 00
        E 960 90 00 60
        E 240 80 00 00
        E 240 90 03 60
        E 240 80 03 00
        E 0 90 00 60
        E 240 80 00 00
        E 960 90 00 60
        E 240 80 00 00
        E 240 90 02 60
        E 240 80 02 00
        E 0 90 00 60
        E 240 80 00 00
        E 960 90 00 60
        E 240 80 00 00
        E 240 90 04 60
        E 240 80 04 00
        E 240 90 02 60
        E 240 80 02 00
        E 240 90 04 60
        E 240 80 04 00
        E 240 90 00 60
        E 240 80 00 00
        E 240 90 01 60
        E 240 80 01 00
        E 1200 90 01 60
        E 0 90 00 60
        E 480 80 01 00
        E 0 80 00 00
        E 240 90 01 60
        E 0 90 03 60
        E 480 80 01 00
        E 0 80 03 00
        E 720 90 00 60
        E 0 90 03 60
        E 480 80 00 00
        E 0 80 03 00
        E 240 90 01 60
        E 0 90 02 60
        E 480 80 01 00
        E 0 80 02 00
        E 240 90 01 60
        E 240 80 01 00
        E 240 90 00 60
        E 240 80 00 00
        E 240 90 04 60
        E 240 80 04 00
        E 240 90 04 60
        E 240 80 04 00
        E 0 90 01 60
        E 240 80 01 00
        E 480 90 01 60
        E 240 80 01 00
        E 240 90 03 60
        E 240 80 03 00
        E 0 90 00 60
        E 240 80 00 00
        E 480 90 01 60
        E 240 80 01 00
        E 720 90 03 60
        E 240 80 03 00
        E 0 90 01 60
        E 240 80 01 00
        E 0 90 03 60
        E 240 80 03 00
        E 240 90 00 60
        E 240 80 00 00
        E 240 90 00 60
        E 240 80 00 00
        E 240 90 00 60
        E 240 80 00 00
        E 720 90 02 60
        E 240 80 02 00
        E 720 90 02 60
        E 240 80 02 00
        E 0 90 00 60
        E 240 80 00 00
        E 960 90 00 60
        E 0 90 01 60
        E 240 80 00 00
        E 0 80 01 00
        E 480 90 01 60
        E 0 90 03 60
        E 240 80 01 00
        E 0 80 03 00
        E 480 90 02 60
        E 240 80 02 00
        E 240 90 03 60
        E 0 90 02 60
        E 240 80 03 00
        E 0 80 02 00
        E 480 90 02 60
        E 0 90 00 60
        E 240 80 02 00
        E 0 80 00 00
        E 480 90 02 60
        E 240 80 02 00
        E 240 90 00 60
        E 240 80 00 00
        E 720 90 01 60
        E 240 80 01 00
        E 240 90 03 60
        E 240 80 03 00
        E 240 90 02 60
        E 240 80 02 00
        E 240 90 00 60
        E 240 80 00 00
        E 240 b0 7b 00
        CCINTERP 32
        CHASE_CC_TAKEOFFS 1
        GUID {0C5A1C8C-9556-41B2-8385-E8D93AE12715}
        IGNTEMPO 0 120 4 4
        SRCCOLOR 125
        VELLANE -1 100 0
        CFGEDITVIEW 31367.61675 0.02664 87 12 0 -1 0 0 0 0.5
        KEYSNAP 0
        TRACKSEL 252
        EVTFILTER 0 -1 -1 -1 -1 0 0 0 0 -1 -1 -1 -1 0 -1 0 -1 -1
        CFGEDIT 1 1 0 1 0 0 1 1 1 1 1 0.25 773 426 2067 1227 0 0 0 0 2 0 0 0 0 0.5 0 0 1 64
      >
    >
    <ITEM
      POSITION 44.89977728285078
      SNAPOFFS 0
      LENGTH 17.10467706013363
      LOOP 1
      ALLTAKES 0
      FADEIN 1 0 0 1 0 0 0
      FADEOUT 1 0 0 1 0 0 0
      MUTE 0 0
      COLOR 17537235 R
      SEL 0
      IGUID {C1C065E8-6E31-4B17-A28C-90F1ED3E1C85}
      IID 8
      NAME "untitled MIDI item"
      VOLPAN 1 0 1 -1
      SOFFS 44.89977728285078 84
      PLAYRATE 1 1 0 -1 0 0.0025
      CHANMODE 0
      GUID {1BBC1D57-1D14-4AE2-BD60-2BFBAD0F9407}
      <SOURCE MIDI
        HASDATA 1 960 QN
        CCINTERP 32
        POOLEDEVTS {4FBA9A33-72CA-424D-BDAC-5312F48DB893}
        E 3840 90 02 60
        E 480 80 02 00
        E 0 90 00 60
        E 480 80 00 00
        E 960 90 03 60
        E 480 80 03 00
        E 240 90 03 60
        E 480 80 03 00
        E 240 90 03 60
        E 480 80 03 00
        E 0 90 03 60
        E 480 80 03 00
        E 0 90 01 60
        E 480 80 01 00
        E 960 90 03 60
        E 480 80 03 00
        E 240 90 03 60
        E 480 80 03 00
        E 240 90 02 60
        E 480 80 02 00
        E 0 90 02 60
        E 480 80 02 00
        E 0 90 00 60
        E 480 80 00 00
        E 960 90 03 60
        E 480 80 03 00
        E 240 90 03 60
        E 480 80 03 00
        E 240 90 03 60
        E 480 80 03 00
        E 0 90 03 60
        E 480 80 03 00
        E 0 90 01 60
        E 480 80 01 00
        E 1440 90 03 60
        E 0 90 00 60
        E 480 80 03 00
        E 0 80 00 00
        E 240 90 03 60
        E 0 90 00 60
        E 480 80 03 00
        E 0 80 00 00
        E 240 90 02 60
        E 240 80 02 00
        E 240 90 02 60
        E 240 80 02 00
        E 0 90 01 60
        E 480 80 01 00
        E 1680 90 02 60
        E 240 80 02 00
        E 240 90 02 60
        E 240 80 02 00
        E 0 90 03 60
        E 240 80 03 00
        E 960 90 02 60
        E 240 80 02 00
        E 240 90 02 60
        E 240 80 02 00
        E 0 90 03 60
        E 240 80 03 00
        E 960 90 02 60
        E 240 80 02 00
        E 240 90 02 60
        E 240 80 02 00
        E 0 90 00 60
        E 240 80 00 00
        E 960 90 00 60
        E 480 80 00 00
        E 0 90 00 60
        E 480 80 00 00
        E 240 90 00 60
        E 480 80 00 00
        E 1680 90 03 60
        E 0 90 00 60
        E 480 80 03 00
        E 0 80 00 00
        E 240 90 02 60
        E 0 90 01 60
        E 480 80 02 00
        E 0 80 01 00
        E 240 90 03 60
        E 0 90 00 60
        E 480 80 03 00
        E 0 80 00 00
        E 480 90 02 60
        E 0 90 01 60
        E 480 80 02 00
        E 0 80 01 00
        E 0 90 01 60
        E 0 90 02 60
        E 480 80 01 00
        E 0 80 02 00
        E 0 90 02 60
        E 240 80 02 00
        E 0 90 01 60
        E 240 80 01 00
        E 480 90 03 60
        E 240 80 03 00
        E 240 90 00 60
        E 240 80 00 00
        E 0 90 03 60
        E 240 80 03 00
        E 960 90 00 60
        E 240 80 00 00
        E 240 90 03 60
        E 240 80 03 00
        E 0 90 00 60
        E 240 80 00 00
        E 960 90 00 60
        E 240 80 00 00
        E 240 90 02 60
        E 240 80 02 00
        E 0 90 00 60
        E 240 80 00 00
        E 960 90 00 60
        E 240 80 00 00
        E 240 90 04 60
        E 240 80 04 00
        E 240 90 02 60
        E 240 80 02 00
        E 240 90 04 60
        E 240 80 04 00
        E 240 90 00 60
        E 240 80 00 00
        E 240 90 02 60
        E 240 80 02 00
        E 1200 90 01 60
        E 0 90 00 60
        E 480 80 01 00
        E 0 80 00 00
        E 240 90 01 60
        E 0 90 03 60
        E 480 80 01 00
        E 0 80 03 00
        E 720 90 00 60
        E 0 90 03 60
        E 480 80 00 00
        E 0 80 03 00
        E 240 90 01 60
        E 0 90 02 60
        E 480 80 01 00
        E 0 80 02 00
        E 240 90 00 60
        E 0 90 03 60
        E 480 80 00 00
        E 0 80 03 00
        E 240 90 00 60
        E 0 90 03 60
        E 480 80 00 00
        E 0 80 03 00
        E 30960 90 01 60
        E 0 90 02 60
        E 240 80 01 00
        E 0 80 02 00
        E 1200 90 00 60
        E 240 80 00 00
        E 240 90 01 60
        E 240 80 01 00
        E 480 90 01 60
        E 240 80 01 00
        E 480 90 00 60
        E 240 80 00 00
        E 2160 90 00 60
        E 0 90 03 60
        E 240 80 00 00
        E 0 80 03 00
        E 480 90 03 60
        E 0 90 00 60
        E 240 80 03 00
        E 0 80 00 00
        E 480 90 00 60
        E 240 80 00 00
        E 2160 90 01 60
        E 240 80 01 00
        E 480 90 01 60
        E 240 80 01 00
        E 480 90 03 60
        E 0 90 00 60
        E 240 80 03 00
        E 0 80 00 00
        E 720 90 03 60
        E 0 90 00 60
        E 480 80 03 00
        E 0 80 00 00
        E 240 90 02 60
        E 0 90 01 60
        E 480 80 02 00
        E 0 80 01 00
        E 240 90 03 60
        E 0 90 00 60
        E 480 80 03 00
        E 0 80 00 00
        E 480 90 02 60
        E 0 90 01 60
        E 480 80 02 00
        E 0 80 01 00
        E 0 90 01 60
        E 0 90 02 60
        E 480 80 01 00
        E 0 80 02 00
        E 0 90 00 60
        E 0 90 03 60
        E 480 80 00 00
        E 0 80 03 00
        E 1440 90 01 60
        E 240 80 01 00
        E 480 90 01 60
        E 240 80 01 00
        E 480 90 00 60
        E 240 80 00 00
        E 2160 90 00 60
        E 0 90 03 60
        E 240 80 00 00
        E 0 80 03 00
        E 480 90 03 60
        E 0 90 00 60
        E 240 80 03 00
        E 0 80 00 00
        E 480 90 00 60
        E 240 80 00 00
        E 2160 90 01 60
        E 240 80 01 00
        E 480 90 01 60
        E 240 80 01 00
        E 480 90 00 60
        E 240 80 00 00
        E 720 90 03 60
        E 0 90 00 60
        E 480 80 03 00
        E 0 80 00 00
        E 240 90 02 60
        E 0 90 01 60
        E 480 80 02 00
        E 0 80 01 00
        E 240 90 03 60
        E 0 90 00 60
        E 480 80 03 00
        E 0 80 00 00
        E 240 90 02 60
        E 0 90 01 60
        E 480 80 02 00
        E 0 80 01 00
        E 240 90 01 60
        E 0 90 02 60
        E 480 80 01 00
        E 0 80 02 00
        E 200027 b0 7b 00
        CCINTERP 32
        CHASE_CC_TAKEOFFS 1
        GUID {B37B1CEE-42AE-46B4-852E-850F08B2406E}
        IGNTEMPO 0 120 4 4
        SRCCOLOR 105
        VELLANE -1 100 0
        CFGEDITVIEW 98498.284304 0.047767 87 12 0 -1 0 0 0 0.5
        KEYSNAP 0
        TRACKSEL 252
        EVTFILTER 0 -1 -1 -1 -1 0 0 0 0 -1 -1 -1 -1 0 -1 0 -1 -1
        CFGEDIT 1 1 0 1 0 0 1 1 1 1 1 0.25 773 426 2067 1227 0 0 0 0 2 0 0 0 0 0.5 0 0 1 64
      >
    >
    <ITEM
      POSITION 62.00445434299763
      SNAPOFFS 0
      LENGTH 12.82850779508701
      LOOP 1
      ALLTAKES 0
      FADEIN 1 0 0 1 0 0 0
      FADEOUT 1 0 0 1 0 0 0
      MUTE 0 0
      COLOR 26325731 R
      SEL 0
      IGUID {CD5BF58C-1400-405C-BD07-FA71B36C9539}
      IID 27
      NAME "untitled MIDI item"
      VOLPAN 1 0 1 -1
      SOFFS 19.24276169258786 35.99999999988313
      PLAYRATE 1 1 0 -1 0 0.0025
      CHANMODE 0
      GUID {0CD0247B-A12A-4BFE-8048-5B61B05405C4}
      <SOURCE MIDI
        HASDATA 1 960 QN
        CCINTERP 32
        POOLEDEVTS {C7B2ACAA-D2CB-4ADB-B4E9-CF1BAC2A3838}
        E 3840 90 02 60
        E 480 80 02 00
        E 0 90 00 60
        E 480 80 00 00
        E 960 90 03 60
        E 480 80 03 00
        E 240 90 03 60
        E 480 80 03 00
        E 240 90 03 60
        E 480 80 03 00
        E 0 90 03 60
        E 480 80 03 00
        E 0 90 01 60
        E 480 80 01 00
        E 960 90 03 60
        E 480 80 03 00
        E 240 90 03 60
        E 480 80 03 00
        E 240 90 02 60
        E 480 80 02 00
        E 0 90 02 60
        E 480 80 02 00
        E 0 90 00 60
        E 480 80 00 00
        E 960 90 03 60
        E 480 80 03 00
        E 240 90 03 60
        E 480 80 03 00
        E 240 90 03 60
        E 480 80 03 00
        E 0 90 03 60
        E 480 80 03 00
        E 0 90 01 60
        E 480 80 01 00
        E 1440 90 03 60
        E 0 90 00 60
        E 480 80 03 00
        E 0 80 00 00
        E 240 90 03 60
        E 0 90 00 60
        E 480 80 03 00
        E 0 80 00 00
        E 240 90 02 60
        E 240 80 02 00
        E 240 90 02 60
        E 240 80 02 00
        E 0 90 01 60
        E 480 80 01 00
        E 1680 90 02 60
        E 240 80 02 00
        E 240 90 02 60
        E 240 80 02 00
        E 0 90 03 60
        E 240 80 03 00
        E 960 90 02 60
        E 240 80 02 00
        E 240 90 02 60
        E 240 80 02 00
        E 0 90 03 60
        E 240 80 03 00
        E 960 90 02 60
        E 240 80 02 00
        E 240 90 02 60
        E 240 80 02 00
        E 0 90 00 60
        E 240 80 00 00
        E 960 90 00 60
        E 480 80 00 00
        E 0 90 00 60
        E 480 80 00 00
        E 240 90 00 60
        E 480 80 00 00
        e 1680 90 03 60
        e 0 90 00 60
        e 480 80 03 00
        e 0 80 00 00
        e 240 90 02 60
        e 0 90 01 60
        e 480 80 02 00
        e 0 80 01 00
        e 240 90 03 60
        e 0 90 00 60
        e 480 80 03 00
        e 0 80 00 00
        e 480 90 02 60
        e 0 90 01 60
        e 480 80 02 00
        e 0 80 01 00
        e 0 90 01 60
        e 0 90 02 60
        e 480 80 01 00
        e 0 80 02 00
        E 0 90 02 60
        E 240 80 02 00
        E 0 90 01 60
        E 240 80 01 00
        E 480 90 03 60
        E 240 80 03 00
        E 240 90 00 60
        E 240 80 00 00
        E 0 90 03 60
        E 240 80 03 00
        E 960 90 00 60
        E 240 80 00 00
        E 240 90 03 60
        E 240 80 03 00
        E 0 90 00 60
        E 240 80 00 00
        E 960 90 00 60
        E 240 80 00 00
        E 240 90 02 60
        E 240 80 02 00
        E 0 90 00 60
        E 240 80 00 00
        E 960 90 00 60
        E 240 80 00 00
        E 240 90 04 60
        E 240 80 04 00
        E 240 90 02 60
        E 240 80 02 00
        E 240 90 04 60
        E 240 80 04 00
        E 240 90 00 60
        E 240 80 00 00
        E 240 90 02 60
        E 240 80 02 00
        E 1200 90 01 60
        E 0 90 00 60
        E 480 80 01 00
        E 0 80 00 00
        E 240 90 01 60
        E 0 90 03 60
        E 480 80 01 00
        E 0 80 03 00
        E 720 90 00 60
        E 0 90 03 60
        E 480 80 00 00
        E 0 80 03 00
        E 240 90 01 60
        E 0 90 02 60
        E 480 80 01 00
        E 0 80 02 00
        E 240 90 00 60
        E 0 90 03 60
        E 480 80 00 00
        E 0 80 03 00
        E 240 90 00 60
        E 0 90 03 60
        E 480 80 00 00
        E 0 80 03 00
        E 240 90 03 60
        E 240 80 03 00
        E 0 90 01 60
        E 240 80 01 00
        E 480 90 03 60
        E 240 80 03 00
        E 240 90 00 60
        E 240 80 00 00
        E 0 90 03 60
        E 240 80 03 00
        E 960 90 00 60
        E 240 80 00 00
        E 240 90 03 60
        E 240 80 03 00
        E 0 90 00 60
        E 240 80 00 00
        E 960 90 00 60
        E 240 80 00 00
        E 240 90 02 60
        E 240 80 02 00
        E 0 90 00 60
        E 240 80 00 00
        E 960 90 00 60
        E 240 80 00 00
        E 240 90 04 60
        E 240 80 04 00
        E 240 90 02 60
        E 240 80 02 00
        E 240 90 04 60
        E 240 80 04 00
        E 240 90 00 60
        E 240 80 00 00
        E 240 90 01 60
        E 240 80 01 00
        E 1200 90 01 60
        E 0 90 00 60
        E 480 80 01 00
        E 0 80 00 00
        E 240 90 01 60
        E 0 90 03 60
        E 480 80 01 00
        E 0 80 03 00
        E 720 90 00 60
        E 0 90 03 60
        E 480 80 00 00
        E 0 80 03 00
        E 240 90 01 60
        E 0 90 02 60
        E 480 80 01 00
        E 0 80 02 00
        E 240 90 01 60
        E 240 80 01 00
        E 240 90 00 60
        E 240 80 00 00
        E 240 90 04 60
        E 240 80 04 00
        E 240 90 04 60
        E 240 80 04 00
        E 0 90 01 60
        E 240 80 01 00
        E 480 90 01 60
        E 240 80 01 00
        E 240 90 03 60
        E 240 80 03 00
        E 0 90 00 60
        E 240 80 00 00
        E 480 90 01 60
        E 240 80 01 00
        E 720 90 03 60
        E 240 80 03 00
        E 0 90 01 60
        E 240 80 01 00
        E 0 90 03 60
        E 240 80 03 00
        E 240 90 00 60
        E 240 80 00 00
        E 240 90 00 60
        E 240 80 00 00
        E 240 90 00 60
        E 240 80 00 00
        E 720 90 02 60
        E 240 80 02 00
        E 720 90 02 60
        E 240 80 02 00
        E 0 90 00 60
        E 240 80 00 00
        E 960 90 00 60
        E 0 90 01 60
        E 240 80 00 00
        E 0 80 01 00
        E 480 90 01 60
        E 0 90 03 60
        E 240 80 01 00
        E 0 80 03 00
        E 480 90 02 60
        E 240 80 02 00
        E 240 90 03 60
        E 0 90 02 60
        E 240 80 03 00
        E 0 80 02 00
        E 480 90 02 60
        E 0 90 00 60
        E 240 80 02 00
        E 0 80 00 00
        E 480 90 02 60
        E 240 80 02 00
        E 240 90 00 60
        E 240 80 00 00
        E 720 90 01 60
        E 240 80 01 00
        E 240 90 03 60
        E 240 80 03 00
        E 240 90 02 60
        E 240 80 02 00
        E 240 90 00 60
        E 240 80 00 00
        E 240 b0 7b 00
        CCINTERP 32
        CHASE_CC_TAKEOFFS 1
        GUID {0C5A1C8C-9556-41B2-8385-E8D93AE12715}
        IGNTEMPO 0 120 4 4
        SRCCOLOR 125
        VELLANE -1 100 0
        CFGEDITVIEW 0 0.004775 87 12 0 -1 0 0 0 0.5
        KEYSNAP 0
        TRACKSEL 252
        EVTFILTER 0 -1 -1 -1 -1 0 0 0 0 -1 -1 -1 -1 0 -1 0 -1 -1
        CFGEDIT 1 1 0 1 0 0 1 1 1 1 1 0.25 773 426 2067 1227 0 0 0 0 2 0 0 0 0 0.5 0 0 1 64
      >
    >
    <ITEM
      POSITION 74.83296213808464
      SNAPOFFS 0
      LENGTH 21.38084632521966
      LOOP 0
      ALLTAKES 0
      FADEIN 1 0 0 1 0 0 0
      FADEOUT 1 0 0 1 0 0 0
      MUTE 0 0
      SEL 0
      IGUID {55968BE2-9F5E-48A1-B904-34CE42A642BE}
      IID 12
      NAME "untitled MIDI item"
      VOLPAN 1 0 1 -1
      SOFFS 32.07126948773734 59.99999999997526
      PLAYRATE 1 1 0 -1 0 0.0025
      CHANMODE 0
      GUID {9AFF2171-F042-4322-9DA2-88E147BCB7BC}
      <SOURCE MIDI
        HASDATA 1 960 QN
        CCINTERP 32
        POOLEDEVTS {0F383677-201D-49F9-B463-26D403538CD5}
        E 3840 90 02 60
        E 480 80 02 00
        E 0 90 00 60
        E 480 80 00 00
        E 960 90 03 60
        E 480 80 03 00
        E 240 90 03 60
        E 480 80 03 00
        E 240 90 03 60
        E 480 80 03 00
        E 0 90 03 60
        E 480 80 03 00
        E 0 90 01 60
        E 480 80 01 00
        E 960 90 03 60
        E 480 80 03 00
        E 240 90 03 60
        E 480 80 03 00
        E 240 90 02 60
        E 480 80 02 00
        E 0 90 02 60
        E 480 80 02 00
        E 0 90 00 60
        E 480 80 00 00
        E 960 90 03 60
        E 480 80 03 00
        E 240 90 03 60
        E 480 80 03 00
        E 240 90 03 60
        E 480 80 03 00
        E 0 90 03 60
        E 480 80 03 00
        E 0 90 01 60
        E 480 80 01 00
        E 1440 90 03 60
        E 0 90 00 60
        E 480 80 03 00
        E 0 80 00 00
        E 240 90 03 60
        E 0 90 00 60
        E 480 80 03 00
        E 0 80 00 00
        E 240 90 02 60
        E 240 80 02 00
        E 240 90 02 60
        E 240 80 02 00
        E 0 90 01 60
        E 480 80 01 00
        E 1680 90 02 60
        E 240 80 02 00
        E 240 90 02 60
        E 240 80 02 00
        E 0 90 03 60
        E 240 80 03 00
        E 960 90 02 60
        E 240 80 02 00
        E 240 90 02 60
        E 240 80 02 00
        E 0 90 03 60
        E 240 80 03 00
        E 960 90 02 60
        E 240 80 02 00
        E 240 90 02 60
        E 240 80 02 00
        E 0 90 00 60
        E 240 80 00 00
        E 960 90 00 60
        E 480 80 00 00
        E 0 90 00 60
        E 480 80 00 00
        E 240 90 00 60
        E 480 80 00 00
        E 1680 90 03 60
        E 0 90 00 60
        E 480 80 03 00
        E 0 80 00 00
        E 240 90 02 60
        E 0 90 01 60
        E 480 80 02 00
        E 0 80 01 00
        E 240 90 03 60
        E 0 90 00 60
        E 480 80 03 00
        E 0 80 00 00
        E 480 90 02 60
        E 0 90 01 60
        E 480 80 02 00
        E 0 80 01 00
        E 0 90 01 60
        E 0 90 02 60
        E 480 80 01 00
        E 0 80 02 00
        E 240 90 01 60
        E 240 80 01 00
        E 480 90 03 60
        E 240 80 03 00
        E 240 90 00 60
        E 240 80 00 00
        E 0 90 03 60
        E 240 80 03 00
        E 960 90 00 60
        E 240 80 00 00
        E 240 90 03 60
        E 240 80 03 00
        E 0 90 00 60
        E 240 80 00 00
        E 960 90 00 60
        E 240 80 00 00
        E 240 90 02 60
        E 240 80 02 00
        E 0 90 00 60
        E 240 80 00 00
        E 960 90 00 60
        E 240 80 00 00
        E 240 90 04 60
        E 240 80 04 00
        E 240 90 02 60
        E 240 80 02 00
        E 240 90 04 60
        E 240 80 04 00
        E 240 90 00 60
        E 240 80 00 00
        E 240 90 02 60
        E 240 80 02 00
        E 1200 90 01 60
        E 480 80 01 00
        E 240 90 03 60
        E 480 80 03 00
        E 720 90 00 60
        E 480 80 00 00
        E 240 90 02 60
        E 480 80 02 00
        E 240 90 00 60
        E 0 90 03 60
        E 480 80 00 00
        E 0 80 03 00
        E 240 90 00 60
        E 0 90 03 60
        E 480 80 00 00
        E 0 80 03 00
        E 480 90 01 60
        E 240 80 01 00
        E 480 90 03 60
        E 240 80 03 00
        E 240 90 00 60
        E 240 80 00 00
        E 0 90 03 60
        E 240 80 03 00
        E 960 90 00 60
        E 240 80 00 00
        E 240 90 03 60
        E 240 80 03 00
        E 0 90 00 60
        E 240 80 00 00
        E 960 90 00 60
        E 240 80 00 00
        E 240 90 02 60
        E 240 80 02 00
        E 0 90 00 60
        E 240 80 00 00
        E 960 90 00 60
        E 240 80 00 00
        E 240 90 04 60
        E 240 80 04 00
        E 240 90 02 60
        E 240 80 02 00
        E 240 90 04 60
        E 240 80 04 00
        E 240 90 00 60
        E 240 80 00 00
        E 240 90 01 60
        E 240 80 01 00
        E 1200 90 01 60
        E 480 80 01 00
        E 240 90 03 60
        E 480 80 03 00
        E 720 90 00 60
        E 480 80 00 00
        E 240 90 02 60
        E 480 80 02 00
        E 240 90 02 60
        E 240 80 02 00
        E 240 90 00 60
        E 240 80 00 00
        E 240 90 03 60
        E 240 80 03 00
        E 240 90 01 60
        E 480 80 01 00
        E 480 90 02 60
        E 480 80 02 00
        E 480 90 00 60
        E 480 80 00 00
        E 0 90 03 60
        E 480 80 03 00
        E 0 90 01 60
        E 480 80 01 00
        E 0 90 03 60
        E 480 80 03 00
        E 960 90 00 60
        E 480 80 00 00
        E 0 90 02 60
        E 480 80 02 00
        E 480 90 02 60
        E 480 80 02 00
        E 0 90 00 60
        E 480 80 00 00
        E 0 90 03 60
        E 480 80 03 00
        E 0 90 00 60
        E 480 80 00 00
        E 0 90 03 60
        E 480 80 03 00
        E 0 90 01 60
        E 480 80 01 00
        E 0 90 02 60
        E 480 80 02 00
        E 480 90 00 60
        E 480 80 00 00
        E 0 90 03 60
        E 480 80 03 00
        E 0 90 00 60
        E 480 80 00 00
        E 960 90 00 60
        E 480 80 00 00
        E 0 90 02 60
        E 480 80 02 00
        E 480 90 02 60
        E 480 80 02 00
        E 0 90 00 60
        E 480 80 00 00
        E 0 90 03 60
        E 480 80 03 00
        E 0 90 00 60
        E 480 80 00 00
        E 0 90 03 60
        E 480 80 03 00
        E 0 90 00 60
        E 480 80 00 00
        E 0 90 02 5f
        E 480 80 02 00
        E 480 90 00 60
        E 480 80 00 00
        E 480 90 02 60
        E 480 80 02 00
        E 0 90 00 60
        E 480 80 00 00
        E 0 90 03 60
        E 480 80 03 00
        E 0 90 00 60
        E 480 80 00 00
        E 0 90 01 60
        E 480 80 01 00
        E 480 90 02 60
        E 480 80 02 00
        E 0 90 03 60
        E 480 80 03 00
        E 0 90 01 60
        E 480 80 01 00
        E 480 90 03 60
        E 480 80 03 00
        E 0 90 00 60
        E 480 80 00 00
        E 0 90 02 60
        E 480 80 02 00
        E 480 90 02 60
        E 480 80 02 00
        E 0 90 00 60
        E 480 80 00 00
        E 0 90 01 60
        E 480 80 01 00
        E 0 90 01 60
        E 0 90 02 60
        E 240 80 01 00
        E 0 80 02 00
        E 240 90 00 60
        E 0 90 03 60
        E 240 80 00 00
        E 0 80 03 00
        E 240 90 01 60
        E 0 90 02 60
        E 240 80 01 00
        E 0 80 02 00
        E 240 90 03 60
        E 0 90 00 60
        E 240 80 03 00
        E 0 80 00 00
        E 240 90 01 60
        E 0 90 02 60
        E 240 80 01 00
        E 0 80 02 00
        E 720 90 03 60
        E 240 80 03 00
        E 720 b0 7b 00
        CCINTERP 32
        CHASE_CC_TAKEOFFS 1
        GUID {594B69F5-F01C-4C88-991E-E8ED0A7BF242}
        IGNTEMPO 0 120 4 4
        SRCCOLOR 109
        VELLANE -1 100 0
        CFGEDITVIEW 79409.484638 0.103991 98 12 0 -1 0 0 0 0.5
        KEYSNAP 0
        TRACKSEL 252
        EVTFILTER 0 -1 -1 -1 -1 0 0 0 0 -1 -1 -1 -1 0 -1 0 -1 -1
        CFGEDIT 1 1 0 1 0 0 1 1 1 1 1 0.25 -3 736 2567 1407 0 0 0 0 2 0 0 0 0 0.5 0 0 1 64
      >
    >
    <ITEM
      POSITION 96.2138084633043
      SNAPOFFS 0
      LENGTH 17.104677060081
      LOOP 1
      ALLTAKES 0
      FADEIN 1 0 0 1 0 0 0
      FADEOUT 1 0 0 1 0 0 0
      MUTE 0 0
      COLOR 25494976 R
      SEL 0
      IGUID {046758D3-05A2-459B-B9B4-1643EC03FD06}
      IID 30
      NAME "untitled MIDI item-glued"
      VOLPAN 1 0 1 -1
      SOFFS 0 0
      PLAYRATE 1 1 0 -1 0 0.0025
      CHANMODE 0
      GUID {B27F5AC3-EF0E-484E-BFE2-F8199984E5CA}
      <SOURCE MIDI
        HASDATA 1 960 QN
        CCINTERP 32
        POOLEDEVTS {EB884CB8-32D1-4EE7-9D53-4949C3DFD0B7}
        E 0 90 02 60
        E 480 80 02 00
        E 1440 90 03 60
        E 480 80 03 00
        E 240 90 03 60
        E 480 80 03 00
        E 240 90 03 60
        E 480 80 03 00
        E 0 90 03 60
        E 480 80 03 00
        E 0 90 01 60
        E 480 80 01 00
        E 960 90 03 60
        E 480 80 03 00
        E 240 90 03 60
        E 480 80 03 00
        E 240 90 02 60
        E 480 80 02 00
        E 0 90 02 60
        E 480 80 02 00
        E 0 90 00 60
        E 480 80 00 00
        E 960 90 03 60
        E 480 80 03 00
        E 240 90 03 60
        E 480 80 03 00
        E 240 90 03 60
        E 480 80 03 00
        E 0 90 03 60
        E 480 80 03 00
        E 0 90 01 60
        E 480 80 01 00
        E 1440 90 03 60
        E 0 90 00 60
        E 480 80 03 00
        E 0 80 00 00
        E 240 90 03 60
        E 0 90 00 60
        E 480 80 03 00
        E 0 80 00 00
        E 240 90 02 60
        E 240 80 02 00
        E 240 90 02 60
        E 240 80 02 00
        E 0 90 01 60
        E 480 80 01 00
        E 1680 90 02 60
        E 240 80 02 00
        E 240 90 02 60
        E 240 80 02 00
        E 0 90 03 60
        E 240 80 03 00
        E 960 90 02 60
        E 240 80 02 00
        E 240 90 02 60
        E 240 80 02 00
        E 0 90 03 60
        E 240 80 03 00
        E 960 90 02 60
        E 240 80 02 00
        E 240 90 02 60
        E 240 80 02 00
        E 0 90 00 60
        E 240 80 00 00
        E 960 90 00 60
        E 480 80 00 00
        E 0 90 00 60
        E 480 80 00 00
        E 240 90 00 60
        E 480 80 00 00
        E 1680 90 03 60
        E 0 90 00 60
        E 480 80 03 00
        E 0 80 00 00
        E 240 90 02 60
        E 0 90 01 60
        E 480 80 02 00
        E 0 80 01 00
        E 240 90 03 60
        E 0 90 00 60
        E 480 80 03 00
        E 0 80 00 00
        E 480 90 02 60
        E 0 90 01 60
        E 480 80 02 00
        E 0 80 01 00
        E 0 90 01 60
        E 0 90 02 60
        E 480 80 01 00
        E 0 80 02 00
        E 0 b0 7b 00
        CCINTERP 32
        CHASE_CC_TAKEOFFS 1
        GUID {75B9AAC7-9DA1-4776-836F-2B4244125241}
        IGNTEMPO 0 120 4 4
        SRCCOLOR 130
        VELLANE -1 100 0
      >
    >
    <ITEM
      POSITION 113.31848552338531
      SNAPOFFS 0
      LENGTH 25.65701559026294
      LOOP 1
      ALLTAKES 0
      FADEIN 1 0 0 1 0 0 0
      FADEOUT 1 0 0 1 0 0 0
      MUTE 0 0
      COLOR 26325731 R
      SEL 0
      IGUID {213E51FA-3FA6-4BB3-A672-AA01CE777C31}
      IID 27
      NAME "untitled MIDI item"
      VOLPAN 1 0 1 -1
      SOFFS 19.24276169258788 35.99999999988313
      PLAYRATE 1 1 0 -1 0 0.0025
      CHANMODE 0
      GUID {AA4B7D41-DB38-49F6-926D-C96DB2BBF531}
      <SOURCE MIDI
        HASDATA 1 960 QN
        CCINTERP 32
        POOLEDEVTS {B2E9ECFB-2202-46B8-A318-8D6C3FD385D8}
        E 3840 90 02 60
        E 480 80 02 00
        E 0 90 00 60
        E 480 80 00 00
        E 960 90 03 60
        E 480 80 03 00
        E 240 90 03 60
        E 480 80 03 00
        E 240 90 03 60
        E 480 80 03 00
        E 0 90 03 60
        E 480 80 03 00
        E 0 90 01 60
        E 480 80 01 00
        E 960 90 03 60
        E 480 80 03 00
        E 240 90 03 60
        E 480 80 03 00
        E 240 90 02 60
        E 480 80 02 00
        E 0 90 02 60
        E 480 80 02 00
        E 0 90 00 60
        E 480 80 00 00
        E 960 90 03 60
        E 480 80 03 00
        E 240 90 03 60
        E 480 80 03 00
        E 240 90 03 60
        E 480 80 03 00
        E 0 90 03 60
        E 480 80 03 00
        E 0 90 01 60
        E 480 80 01 00
        E 1440 90 03 60
        E 0 90 00 60
        E 480 80 03 00
        E 0 80 00 00
        E 240 90 03 60
        E 0 90 00 60
        E 480 80 03 00
        E 0 80 00 00
        E 240 90 02 60
        E 240 80 02 00
        E 240 90 02 60
        E 240 80 02 00
        E 0 90 01 60
        E 480 80 01 00
        E 1680 90 02 60
        E 240 80 02 00
        E 240 90 02 60
        E 240 80 02 00
        E 0 90 03 60
        E 240 80 03 00
        E 960 90 02 60
        E 240 80 02 00
        E 240 90 02 60
        E 240 80 02 00
        E 0 90 03 60
        E 240 80 03 00
        E 960 90 02 60
        E 240 80 02 00
        E 240 90 02 60
        E 240 80 02 00
        E 0 90 00 60
        E 240 80 00 00
        E 960 90 00 60
        E 480 80 00 00
        E 0 90 00 60
        E 480 80 00 00
        E 240 90 00 60
        E 480 80 00 00
        e 1680 90 03 60
        e 0 90 00 60
        e 480 80 03 00
        e 0 80 00 00
        e 240 90 02 60
        e 0 90 01 60
        e 480 80 02 00
        e 0 80 01 00
        e 240 90 03 60
        e 0 90 00 60
        e 480 80 03 00
        e 0 80 00 00
        e 480 90 02 60
        e 0 90 01 60
        e 480 80 02 00
        e 0 80 01 00
        e 0 90 01 60
        e 0 90 02 60
        e 480 80 01 00
        e 0 80 02 00
        E 0 90 02 60
        E 240 80 02 00
        E 0 90 01 60
        E 240 80 01 00
        E 480 90 03 60
        E 240 80 03 00
        E 240 90 00 60
        E 240 80 00 00
        E 0 90 03 60
        E 240 80 03 00
        E 960 90 00 60
        E 240 80 00 00
        E 240 90 03 60
        E 240 80 03 00
        E 0 90 00 60
        E 240 80 00 00
        E 960 90 00 60
        E 240 80 00 00
        E 240 90 02 60
        E 240 80 02 00
        E 0 90 00 60
        E 240 80 00 00
        E 960 90 00 60
        E 240 80 00 00
        E 240 90 04 60
        E 240 80 04 00
        E 240 90 02 60
        E 240 80 02 00
        E 240 90 04 60
        E 240 80 04 00
        E 240 90 00 60
        E 240 80 00 00
        E 240 90 02 60
        E 240 80 02 00
        E 1200 90 01 60
        E 0 90 00 60
        E 480 80 01 00
        E 0 80 00 00
        E 240 90 01 60
        E 0 90 03 60
        E 480 80 01 00
        E 0 80 03 00
        E 720 90 00 60
        E 0 90 03 60
        E 480 80 00 00
        E 0 80 03 00
        E 240 90 01 60
        E 0 90 02 60
        E 480 80 01 00
        E 0 80 02 00
        E 240 90 00 60
        E 0 90 03 60
        E 480 80 00 00
        E 0 80 03 00
        E 240 90 00 60
        E 0 90 03 60
        E 480 80 00 00
        E 0 80 03 00
        E 240 90 03 60
        E 240 80 03 00
        E 0 90 01 60
        E 240 80 01 00
        E 480 90 03 60
        E 240 80 03 00
        E 240 90 00 60
        E 240 80 00 00
        E 0 90 03 60
        E 240 80 03 00
        E 960 90 00 60
        E 240 80 00 00
        E 240 90 03 60
        E 240 80 03 00
        E 0 90 00 60
        E 240 80 00 00
        E 960 90 00 60
        E 240 80 00 00
        E 240 90 02 60
        E 240 80 02 00
        E 0 90 00 60
        E 240 80 00 00
        E 960 90 00 60
        E 240 80 00 00
        E 240 90 04 60
        E 240 80 04 00
        E 240 90 02 60
        E 240 80 02 00
        E 240 90 04 60
        E 240 80 04 00
        E 240 90 00 60
        E 240 80 00 00
        E 240 90 01 60
        E 240 80 01 00
        E 1200 90 01 60
        E 0 90 00 60
        E 480 80 01 00
        E 0 80 00 00
        E 240 90 01 60
        E 0 90 03 60
        E 480 80 01 00
        E 0 80 03 00
        E 720 90 00 60
        E 0 90 03 60
        E 480 80 00 00
        E 0 80 03 00
        E 240 90 01 60
        E 0 90 02 60
        E 480 80 01 00
        E 0 80 02 00
        E 240 90 01 60
        E 240 80 01 00
        E 240 90 00 60
        E 240 80 00 00
        E 240 90 04 60
        E 240 80 04 00
        E 240 90 04 60
        E 240 80 04 00
        E 0 90 01 60
        E 240 80 01 00
        E 480 90 01 60
        E 240 80 01 00
        E 240 90 03 60
        E 240 80 03 00
        E 0 90 00 60
        E 240 80 00 00
        E 480 90 01 60
        E 240 80 01 00
        E 720 90 03 60
        E 240 80 03 00
        E 0 90 01 60
        E 240 80 01 00
        E 0 90 03 60
        E 240 80 03 00
        E 240 90 00 60
        E 240 80 00 00
        E 240 90 00 60
        E 240 80 00 00
        E 240 90 00 60
        E 240 80 00 00
        E 720 90 02 60
        E 240 80 02 00
        E 720 90 02 60
        E 240 80 02 00
        E 0 90 00 60
        E 240 80 00 00
        E 960 90 00 60
        E 0 90 01 60
        E 240 80 00 00
        E 0 80 01 00
        E 480 90 01 60
        E 0 90 03 60
        E 240 80 01 00
        E 0 80 03 00
        E 480 90 02 60
        E 240 80 02 00
        E 240 90 03 60
        E 0 90 02 60
        E 240 80 03 00
        E 0 80 02 00
        E 480 90 02 60
        E 0 90 00 60
        E 240 80 02 00
        E 0 80 00 00
        E 480 90 02 60
        E 240 80 02 00
        E 240 90 00 60
        E 240 80 00 00
        E 720 90 01 60
        E 240 80 01 00
        E 240 90 03 60
        E 240 80 03 00
        E 240 90 02 60
        E 240 80 02 00
        E 240 90 00 60
        E 240 80 00 00
        E 240 b0 7b 00
        CCINTERP 32
        CHASE_CC_TAKEOFFS 1
        GUID {0C5A1C8C-9556-41B2-8385-E8D93AE12715}
        IGNTEMPO 0 120 4 4
        SRCCOLOR 125
        VELLANE -1 100 0
        CFGEDITVIEW 0 0.004775 87 12 0 -1 0 0 0 0.5
        KEYSNAP 0
        TRACKSEL 252
        EVTFILTER 0 -1 -1 -1 -1 0 0 0 0 -1 -1 -1 -1 0 -1 0 -1 -1
        CFGEDIT 1 1 0 1 0 0 1 1 1 1 1 0.25 773 426 2067 1227 0 0 0 0 2 0 0 0 0 0.5 0 0 1 64
      >
    >
    <ITEM
      POSITION 138.97550111368767
      SNAPOFFS 0
      LENGTH 17.10467706003172
      LOOP 1
      ALLTAKES 0
      FADEIN 1 0 0 1 0 0 0
      FADEOUT 1 0 0 1 0 0 0
      MUTE 0 0
      COLOR 17537235 R
      SEL 0
      IGUID {B095394A-C869-4449-BE51-BC92A7FBDC71}
      IID 8
      NAME "untitled MIDI item"
      VOLPAN 1 0 1 -1
      SOFFS 44.89977728285078 84
      PLAYRATE 1 1 0 -1 0 0.0025
      CHANMODE 0
      GUID {81426A9D-8677-44CC-A07F-31F8BA59F04F}
      <SOURCE MIDI
        HASDATA 1 960 QN
        CCINTERP 32
        POOLEDEVTS {50B2A9D5-0EEB-4386-8A4A-FC7C75A9BBFF}
        E 3840 90 02 60
        E 480 80 02 00
        E 0 90 00 60
        E 480 80 00 00
        E 960 90 03 60
        E 480 80 03 00
        E 240 90 03 60
        E 480 80 03 00
        E 240 90 03 60
        E 480 80 03 00
        E 0 90 03 60
        E 480 80 03 00
        E 0 90 01 60
        E 480 80 01 00
        E 960 90 03 60
        E 480 80 03 00
        E 240 90 03 60
        E 480 80 03 00
        E 240 90 02 60
        E 480 80 02 00
        E 0 90 02 60
        E 480 80 02 00
        E 0 90 00 60
        E 480 80 00 00
        E 960 90 03 60
        E 480 80 03 00
        E 240 90 03 60
        E 480 80 03 00
        E 240 90 03 60
        E 480 80 03 00
        E 0 90 03 60
        E 480 80 03 00
        E 0 90 01 60
        E 480 80 01 00
        E 1440 90 03 60
        E 0 90 00 60
        E 480 80 03 00
        E 0 80 00 00
        E 240 90 03 60
        E 0 90 00 60
        E 480 80 03 00
        E 0 80 00 00
        E 240 90 02 60
        E 240 80 02 00
        E 240 90 02 60
        E 240 80 02 00
        E 0 90 01 60
        E 480 80 01 00
        E 1680 90 02 60
        E 240 80 02 00
        E 240 90 02 60
        E 240 80 02 00
        E 0 90 03 60
        E 240 80 03 00
        E 960 90 02 60
        E 240 80 02 00
        E 240 90 02 60
        E 240 80 02 00
        E 0 90 03 60
        E 240 80 03 00
        E 960 90 02 60
        E 240 80 02 00
        E 240 90 02 60
        E 240 80 02 00
        E 0 90 00 60
        E 240 80 00 00
        E 960 90 00 60
        E 480 80 00 00
        E 0 90 00 60
        E 480 80 00 00
        E 240 90 00 60
        E 480 80 00 00
        E 1680 90 03 60
        E 0 90 00 60
        E 480 80 03 00
        E 0 80 00 00
        E 240 90 02 60
        E 0 90 01 60
        E 480 80 02 00
        E 0 80 01 00
        E 240 90 03 60
        E 0 90 00 60
        E 480 80 03 00
        E 0 80 00 00
        E 480 90 02 60
        E 0 90 01 60
        E 480 80 02 00
        E 0 80 01 00
        E 0 90 01 60
        E 0 90 02 60
        E 480 80 01 00
        E 0 80 02 00
        E 0 90 02 60
        E 240 80 02 00
        E 0 90 01 60
        E 240 80 01 00
        E 480 90 03 60
        E 240 80 03 00
        E 240 90 00 60
        E 240 80 00 00
        E 0 90 03 60
        E 240 80 03 00
        E 960 90 00 60
        E 240 80 00 00
        E 240 90 03 60
        E 240 80 03 00
        E 0 90 00 60
        E 240 80 00 00
        E 960 90 00 60
        E 240 80 00 00
        E 240 90 02 60
        E 240 80 02 00
        E 0 90 00 60
        E 240 80 00 00
        E 960 90 00 60
        E 240 80 00 00
        E 240 90 04 60
        E 240 80 04 00
        E 240 90 02 60
        E 240 80 02 00
        E 240 90 04 60
        E 240 80 04 00
        E 240 90 00 60
        E 240 80 00 00
        E 240 90 02 60
        E 240 80 02 00
        E 1200 90 01 60
        E 0 90 00 60
        E 480 80 01 00
        E 0 80 00 00
        E 240 90 01 60
        E 0 90 03 60
        E 480 80 01 00
        E 0 80 03 00
        E 720 90 00 60
        E 0 90 03 60
        E 480 80 00 00
        E 0 80 03 00
        E 240 90 01 60
        E 0 90 02 60
        E 480 80 01 00
        E 0 80 02 00
        E 240 90 00 60
        E 0 90 03 60
        E 480 80 00 00
        E 0 80 03 00
        E 240 90 00 60
        E 0 90 03 60
        E 480 80 00 00
        E 0 80 03 00
        E 30960 90 01 60
        E 0 90 02 60
        E 240 80 01 00
        E 0 80 02 00
        E 1200 90 00 60
        E 240 80 00 00
        E 0 90 03 60
        E 240 80 03 00
        E 0 90 01 60
        E 240 80 01 00
        E 480 90 01 60
        E 240 80 01 00
        E 480 90 03 60
        E 0 90 00 60
        E 240 80 03 00
        E 0 80 00 00
        E 2160 90 00 60
        E 0 90 03 60
        E 240 80 00 00
        E 0 80 03 00
        E 480 90 03 60
        E 0 90 00 60
        E 240 80 03 00
        E 0 80 00 00
        E 480 90 00 60
        E 240 80 00 00
        E 1680 90 00 60
        E 240 80 00 00
        E 0 90 03 60
        E 240 80 03 00
        E 0 90 01 60
        E 240 80 01 00
        E 480 90 01 60
        E 240 80 01 00
        E 480 90 03 60
        E 0 90 00 60
        E 240 80 03 00
        E 0 80 00 00
        E 720 90 03 60
        E 0 90 00 60
        E 480 80 03 00
        E 0 80 00 00
        E 240 90 02 60
        E 0 90 01 60
        E 480 80 02 00
        E 0 80 01 00
        E 240 90 03 60
        E 0 90 00 60
        E 480 80 03 00
        E 0 80 00 00
        E 480 90 02 60
        E 0 90 01 60
        E 480 80 02 00
        E 0 80 01 00
        E 0 90 01 60
        E 0 90 02 60
        E 480 80 01 00
        E 0 80 02 00
        E 0 90 00 60
        E 0 90 03 60
        E 480 80 00 00
        E 0 80 03 00
        E 960 90 00 60
        E 240 80 00 00
        E 0 90 03 60
        E 240 80 03 00
        E 0 90 01 60
        E 240 80 01 00
        E 480 90 01 60
        E 240 80 01 00
        E 480 90 03 60
        E 0 90 00 60
        E 240 80 03 00
        E 0 80 00 00
        E 2160 90 00 60
        E 0 90 03 60
        E 240 80 00 00
        E 0 80 03 00
        E 480 90 03 60
        E 0 90 00 60
        E 240 80 03 00
        E 0 80 00 00
        E 480 90 00 60
        E 240 80 00 00
        E 1680 90 00 60
        E 240 80 00 00
        E 0 90 03 60
        E 240 80 03 00
        E 0 90 01 60
        E 240 80 01 00
        E 480 90 01 60
        E 240 80 01 00
        E 480 90 03 60
        E 0 90 00 60
        E 240 80 03 00
        E 0 80 00 00
        E 720 90 03 60
        E 0 90 00 60
        E 480 80 03 00
        E 0 80 00 00
        E 240 90 02 60
        E 0 90 01 60
        E 480 80 02 00
        E 0 80 01 00
        E 240 90 03 60
        E 0 90 00 60
        E 480 80 03 00
        E 0 80 00 00
        E 240 90 02 60
        E 0 90 01 60
        E 480 80 02 00
        E 0 80 01 00
        E 240 90 00 60
        E 0 90 03 60
        E 480 80 00 00
        E 0 80 03 00
        E 200027 b0 7b 00
        CCINTERP 32
        CHASE_CC_TAKEOFFS 1
        GUID {B37B1CEE-42AE-46B4-852E-850F08B2406E}
        IGNTEMPO 0 120 4 4
        SRCCOLOR 105
        VELLANE -1 100 0
        CFGEDITVIEW 78692.969287 0.015021 87 12 0 -1 0 0 0 0.5
        KEYSNAP 0
        TRACKSEL 252
        EVTFILTER 0 -1 -1 -1 -1 0 0 0 0 -1 -1 -1 -1 0 -1 0 -1 -1
        CFGEDIT 1 1 0 1 0 0 1 1 1 1 1 0.25 773 426 2067 1227 0 0 0 0 2 0 0 0 0 0.5 0 0 1 64
      >
    >
    <ITEM
      POSITION 156.08017817371939
      SNAPOFFS 0
      LENGTH 17.10467706013361
      LOOP 1
      ALLTAKES 0
      FADEIN 1 0 0 1 0 0 0
      FADEOUT 1 0 0 1 0 0 0
      MUTE 0 0
      SEL 0
      IGUID {1ECCF6FE-D054-4B8E-8998-0B062B574089}
      IID 15
      NAME "untitled MIDI item"
      VOLPAN 1 0 1 -1
      SOFFS 0 0
      PLAYRATE 1 1 0 -1 0 0.0025
      CHANMODE 0
      GUID {6BAEB4E8-6819-444C-8969-515E33120DE5}
      <SOURCE MIDI
        HASDATA 1 960 QN
        CCINTERP 32
        POOLEDEVTS {B7626CA1-30CE-4832-A947-943928856BEE}
        E 0 90 02 60
        E 240 80 02 00
        E 480 90 01 60
        E 480 80 01 00
        E 1680 90 02 60
        E 240 80 02 00
        E 480 90 03 60
        E 240 80 03 00
        E 960 90 02 60
        E 240 80 02 00
        E 480 90 03 60
        E 240 80 03 00
        E 960 90 02 60
        E 240 80 02 00
        E 480 90 00 60
        E 240 80 00 00
        E 960 90 00 60
        E 480 80 00 00
        E 0 90 00 60
        E 480 80 00 00
        E 240 90 00 60
        E 480 80 00 00
        E 1680 90 03 60
        E 0 90 00 60
        E 480 80 03 00
        E 0 80 00 00
        E 240 90 02 60
        E 0 90 01 60
        E 480 80 02 00
        E 0 80 01 00
        E 240 90 03 60
        E 0 90 00 60
        E 480 80 03 00
        E 0 80 00 00
        E 240 90 02 60
        E 0 90 01 60
        E 480 80 02 00
        E 0 80 01 00
        E 240 90 01 60
        E 0 90 02 60
        E 480 80 01 00
        E 0 80 02 00
        E 0 b0 7b 00
        CCINTERP 32
        CHASE_CC_TAKEOFFS 1
        GUID {9F0AE544-2FC2-42E1-A87A-0CC3683A1E88}
        IGNTEMPO 0 120 4 4
        SRCCOLOR 112
        VELLANE -1 100 0
        CFGEDITVIEW 6611.088778 0.111603 87 12 0 -1 0 0 0 0.5
        KEYSNAP 0
        TRACKSEL 252
        EVTFILTER 0 -1 -1 -1 -1 0 0 0 0 -1 -1 -1 -1 0 -1 0 -1 -1
        CFGEDIT 1 1 0 1 0 0 1 1 1 1 1 0.25 65 390 2437 1191 0 0 0 0 2 0 0 0 0 0.5 0 0 1 64
      >
    >
    <ITEM
      POSITION 173.184855233853
      SNAPOFFS 0
      LENGTH 1.06904231625836
      LOOP 1
      ALLTAKES 0
      FADEIN 1 0 0 1 0 0 0
      FADEOUT 1 0 0 1 0 0 0
      MUTE 0 0
      SEL 0
      IGUID {15F18883-C05E-4459-BE00-84C6F12BB20D}
      IID 16
      NAME "untitled MIDI item"
      VOLPAN 1 0 1 -1
      SOFFS 0 0
      PLAYRATE 1 1 0 -1 0 0.0025
      CHANMODE 0
      GUID {2CD31034-F767-4F13-963C-CDDDCA778EC8}
      <SOURCE MIDI
        HASDATA 1 960 QN
        CCINTERP 32
        POOLEDEVTS {12C84387-E338-4BAB-BD31-7441A0A43B0E}
        E 0 90 00 60
        e 0 90 03 60
        E 240 80 00 00
        e 0 80 03 00
        E 1680 b0 7b 00
        CCINTERP 32
        CHASE_CC_TAKEOFFS 1
        GUID {289ECCB2-1BCE-4D8D-9C17-0914A4D4F313}
        IGNTEMPO 0 120 4 4
        SRCCOLOR 113
        VELLANE -1 100 0
        CFGEDITVIEW -1173.765419 0.225 88 12 0 -1 0 0 0 0.5
        KEYSNAP 0
        TRACKSEL 252
        EVTFILTER 0 -1 -1 -1 -1 0 0 0 0 -1 -1 -1 -1 0 -1 0 -1 -1
        CFGEDIT 1 1 0 1 0 0 1 1 1 1 1 0.25 975 456 2253 1241 0 0 0 0 2 0 0 0 0 0.5 0 0 1 64
      >
    >
  >
  <TRACK {C8E08B1A-EE73-4405-8448-719F25F7DB52}
    NAME Hard
    PEAKCOL 16576
    BEAT -1
    AUTOMODE 0
    VOLPAN 0.64382266579432 0 -1 -1 1
    MUTESOLO 0 0 0
    IPHASE 0
    PLAYOFFS 0 1
    ISBUS 0 0
    BUSCOMP 0 0 0 0 0
    SHOWINMIX 1 0.6667 0.5 1 0.5 0 -1 0
    FREEMODE 0
    SEL 1
    REC 0 0 1 0 0 0 0
    VU 2
    TRACKHEIGHT 0 0 0 0 0 0
    INQ 0 0 0 0.5 100 0 0 100
    NCHAN 2
    FX 1
    TRACKID {C8E08B1A-EE73-4405-8448-719F25F7DB52}
    PERF 0
    MIDIOUT -1
    MAINSEND 1 0
    <FXCHAIN
      SHOW 0
      LASTSEL 0
      DOCKED 0
      BYPASS 0 0 0
      <VST "VSTi: Magical 8bit Plug 2 (Ymck)" Magical8bitPlug2.dll 0 "" 1937337962<56535473796E6A6D61676963616C2038> ""
        am55c+5e7f4AAAAAAgAAAAEAAAAAAAAAAgAAAAAAAAC1BAAAAQAAAAAAEAA=
        VkMyIawEAAA8cm9vdD48UGFyYW1zPjxQQVJBTSBpZD0iYXJwZWdnaW9EaXJlY3Rpb24iIHZhbHVlPSIwLjAiLz48UEFSQU0gaWQ9ImFycGVnZ2lvVGltZSIgdmFsdWU9
        IjAuMDI5OTk5OTk5MzI5NDQ3NzUiLz48UEFSQU0gaWQ9ImF0dGFjayIgdmFsdWU9IjAuMCIvPjxQQVJBTSBpZD0iYmVuZFJhbmdlIiB2YWx1ZT0iMi4wIi8+PFBBUkFN
        IGlkPSJjb2xvclNjaGVtZSIgdmFsdWU9IjEuMCIvPjxQQVJBTSBpZD0iZGVjYXkiIHZhbHVlPSIwLjAiLz48UEFSQU0gaWQ9ImR1dHkiIHZhbHVlPSIwLjAiLz48UEFS
        QU0gaWQ9ImdhaW4iIHZhbHVlPSIwLjUiLz48UEFSQU0gaWQ9ImlzQWR2YW5jZWRQYW5lbE9wZW5fcmF3IiB2YWx1ZT0iMS4wIi8+PFBBUkFNIGlkPSJpc0FycGVnZ2lv
        RW5hYmxlZF9yYXciIHZhbHVlPSIwLjAiLz48UEFSQU0gaWQ9ImlzRHV0eVNlcXVlbmNlRW5hYmxlZF9yYXciIHZhbHVlPSIwLjAiLz48UEFSQU0gaWQ9ImlzUGl0Y2hT
        ZXF1ZW5jZUVuYWJsZWRfcmF3IiB2YWx1ZT0iMC4wIi8+PFBBUkFNIGlkPSJpc1ZvbHVtZVNlcXVlbmNlRW5hYmxlZF9yYXciIHZhbHVlPSIwLjAiLz48UEFSQU0gaWQ9
        Im1heFBvbHkiIHZhbHVlPSI4LjAiLz48UEFSQU0gaWQ9Im5vaXNlQWxnb3JpdGhtX3JhdyIgdmFsdWU9IjAuMCIvPjxQQVJBTSBpZD0ib3NjIiB2YWx1ZT0iMC4wIi8+
        PFBBUkFNIGlkPSJwaXRjaFNlcXVlbmNlTW9kZV9yYXciIHZhbHVlPSIwLjAiLz48UEFSQU0gaWQ9InJlbGVhc2UiIHZhbHVlPSIwLjAiLz48UEFSQU0gaWQ9InJlc3Ry
        aWN0c1RvTkVTRnJlcXVlbmN5X3JhdyIgdmFsdWU9IjAuMCIvPjxQQVJBTSBpZD0ic3VzbGV2ZWwiIHZhbHVlPSIxLjAiLz48UEFSQU0gaWQ9InN3ZWVwSW5pdGlhbFBp
        dGNoIiB2YWx1ZT0iMjQuMCIvPjxQQVJBTSBpZD0ic3dlZXBUaW1lIiB2YWx1ZT0iMC4xMDAwMDAwMDE0OTAxMTYxIi8+PFBBUkFNIGlkPSJ2aWJyYXRvRGVsYXkiIHZh
        bHVlPSIwLjI5OTk5OTk4MjExODYwNjYiLz48UEFSQU0gaWQ9InZpYnJhdG9EZXB0aCIgdmFsdWU9IjAuMCIvPjxQQVJBTSBpZD0idmlicmF0b0lnbm9yZXNXaGVlbF9y
        YXciIHZhbHVlPSIxLjAiLz48UEFSQU0gaWQ9InZpYnJhdG9SYXRlIiB2YWx1ZT0iMC4xNTAwMDAwMDU5NjA0NjQ1Ii8+PC9QYXJhbXM+PHZvbHVtZUVudj48L3ZvbHVt
        ZUVudj48cGl0Y2hFbnY+PC9waXRjaEVudj48ZHV0eUVudj48L2R1dHlFbnY+PC9yb290PgA=
        AGRlZmF1bHQgZGFyawAQAAAA
      >
      PRESETNAME "default dark"
      FLOATPOS 24 52 656 628
      FXID {78B736C1-7246-42F9-BAD7-833EF8CD4E77}
      WAK 0 0
    >
    <ITEM
      POSITION 2.1380846325167
      SNAPOFFS 0
      LENGTH 17.10467706013363
      LOOP 1
      ALLTAKES 0
      FADEIN 1 0 0 1 0 0 0
      FADEOUT 1 0 0 1 0 0 0
      MUTE 0 0
      COLOR 25494976 R
      SEL 0
      IGUID {FCD270F5-83F9-4775-9775-84AEDFB5E0A0}
      IID 17
      NAME "untitled MIDI item-glued"
      VOLPAN 1 0 1 -1
      SOFFS 0 0
      PLAYRATE 1 1 0 -1 0 0.0025
      CHANMODE 0
      GUID {AC786BA3-911C-438E-9C0F-2CE6B5E84CF1}
      <SOURCE MIDI
        HASDATA 1 960 QN
        CCINTERP 32
        POOLEDEVTS {1CAB43C5-893F-4FBA-8D1A-A7221AF062F5}
        E 0 90 02 60
        E 480 80 02 00
        E 0 90 00 60
        E 480 80 00 00
        E 960 90 03 60
        E 480 80 03 00
        E 240 90 03 60
        E 480 80 03 00
        E 240 90 03 60
        E 480 80 03 00
        E 0 90 03 60
        E 480 80 03 00
        E 0 90 01 60
        E 480 80 01 00
        E 960 90 03 60
        E 480 80 03 00
        E 240 90 03 60
        E 480 80 03 00
        E 240 90 02 60
        E 480 80 02 00
        E 0 90 02 60
        E 480 80 02 00
        E 0 90 00 60
        E 480 80 00 00
        E 960 90 03 60
        E 480 80 03 00
        E 240 90 03 60
        E 480 80 03 00
        E 240 90 03 60
        E 480 80 03 00
        E 0 90 03 60
        E 480 80 03 00
        E 0 90 01 60
        E 480 80 01 00
        E 1440 90 03 60
        E 0 90 00 60
        E 480 80 03 00
        E 0 80 00 00
        E 240 90 03 60
        E 0 90 00 60
        E 480 80 03 00
        E 0 80 00 00
        E 240 90 02 60
        E 240 80 02 00
        E 240 90 02 60
        E 240 80 02 00
        E 0 90 01 60
        E 480 80 01 00
        E 1680 90 02 60
        E 240 80 02 00
        E 240 90 02 60
        E 240 80 02 00
        E 0 90 03 60
        E 240 80 03 00
        E 960 90 02 60
        E 240 80 02 00
        E 240 90 02 60
        E 240 80 02 00
        E 0 90 03 60
        E 240 80 03 00
        E 960 90 02 60
        E 240 80 02 00
        E 240 90 02 60
        E 240 80 02 00
        E 0 90 00 60
        E 240 80 00 00
        E 960 90 00 60
        E 480 80 00 00
        E 0 90 00 60
        E 480 80 00 00
        E 240 90 00 60
        E 480 80 00 00
        E 1680 90 03 60
        E 0 90 00 60
        E 480 80 03 00
        E 0 80 00 00
        E 240 90 02 60
        E 0 90 01 60
        E 480 80 02 00
        E 0 80 01 00
        E 240 90 03 60
        E 0 90 00 60
        E 480 80 03 00
        E 0 80 00 00
        E 480 90 02 60
        E 0 90 01 60
        E 480 80 02 00
        E 0 80 01 00
        E 0 90 01 60
        E 0 90 02 60
        E 480 80 01 00
        E 0 80 02 00
        E 0 b0 7b 00
        CCINTERP 32
        CHASE_CC_TAKEOFFS 1
        GUID {11BCF3EA-CE30-48AB-BE97-F715C79BF55C}
        IGNTEMPO 0 120 4 4
        SRCCOLOR 115
        VELLANE -1 100 0
      >
    >
    <ITEM
      POSITION 19.24276169265033
      SNAPOFFS 0
      LENGTH 25.65701559026295
      LOOP 1
      ALLTAKES 0
      FADEIN 1 0 0 1 0 0 0
      FADEOUT 1 0 0 1 0 0 0
      MUTE 0 0
      COLOR 26325731 R
      SEL 0
      IGUID {E8ABFC7B-71E3-4CC9-BAAB-6DFB2B052BE7}
      IID 28
      NAME "untitled MIDI item"
      VOLPAN 1 0 1 -1
      SOFFS 19.24276169258786 35.99999999988312
      PLAYRATE 1 1 0 -1 0 0.0025
      CHANMODE 0
      GUID {97EB180A-5F66-4EBC-AE7E-E41068FC7288}
      <SOURCE MIDI
        HASDATA 1 960 QN
        CCINTERP 32
        POOLEDEVTS {AA63E892-12FE-4947-9987-C776A63E8428}
        E 3840 90 02 60
        E 480 80 02 00
        E 0 90 00 60
        E 480 80 00 00
        E 960 90 03 60
        E 480 80 03 00
        E 240 90 03 60
        E 480 80 03 00
        E 240 90 03 60
        E 480 80 03 00
        E 0 90 03 60
        E 480 80 03 00
        E 0 90 01 60
        E 480 80 01 00
        E 960 90 03 60
        E 480 80 03 00
        E 240 90 03 60
        E 480 80 03 00
        E 240 90 02 60
        E 480 80 02 00
        E 0 90 02 60
        E 480 80 02 00
        E 0 90 00 60
        E 480 80 00 00
        E 960 90 03 60
        E 480 80 03 00
        E 240 90 03 60
        E 480 80 03 00
        E 240 90 03 60
        E 480 80 03 00
        E 0 90 03 60
        E 480 80 03 00
        E 0 90 01 60
        E 480 80 01 00
        E 1440 90 03 60
        E 0 90 00 60
        E 480 80 03 00
        E 0 80 00 00
        E 240 90 03 60
        E 0 90 00 60
        E 480 80 03 00
        E 0 80 00 00
        E 240 90 02 60
        E 240 80 02 00
        E 240 90 02 60
        E 240 80 02 00
        E 0 90 01 60
        E 480 80 01 00
        E 1680 90 02 60
        E 240 80 02 00
        E 240 90 02 60
        E 240 80 02 00
        E 0 90 03 60
        E 240 80 03 00
        E 960 90 02 60
        E 240 80 02 00
        E 240 90 02 60
        E 240 80 02 00
        E 0 90 03 60
        E 240 80 03 00
        E 960 90 02 60
        E 240 80 02 00
        E 240 90 02 60
        E 240 80 02 00
        E 0 90 00 60
        E 240 80 00 00
        E 960 90 00 60
        E 480 80 00 00
        E 0 90 00 60
        E 480 80 00 00
        E 240 90 00 60
        E 480 80 00 00
        E 1680 90 03 60
        E 0 90 00 60
        E 480 80 03 00
        E 0 80 00 00
        E 240 90 02 60
        E 0 90 01 60
        E 480 80 02 00
        E 0 80 01 00
        E 240 90 03 60
        E 0 90 00 60
        E 480 80 03 00
        E 0 80 00 00
        E 480 90 02 60
        E 0 90 01 60
        E 480 80 02 00
        E 0 80 01 00
        E 0 90 01 60
        E 0 90 02 60
        E 480 80 01 00
        E 0 80 02 00
        E 0 90 02 60
        E 240 80 02 00
        E 0 90 01 60
        E 240 80 01 00
        E 480 90 03 60
        E 240 80 03 00
        E 240 90 00 60
        E 240 80 00 00
        E 0 90 03 60
        E 240 80 03 00
        E 960 90 00 60
        E 240 80 00 00
        E 240 90 03 60
        E 240 80 03 00
        E 0 90 00 60
        E 240 80 00 00
        E 960 90 00 60
        E 240 80 00 00
        E 240 90 02 60
        E 240 80 02 00
        E 0 90 00 60
        E 240 80 00 00
        E 960 90 00 60
        E 240 80 00 00
        E 240 90 04 60
        E 240 80 04 00
        E 240 90 02 60
        E 240 80 02 00
        E 240 90 04 60
        E 240 80 04 00
        E 240 90 00 60
        E 240 80 00 00
        E 240 90 02 60
        E 240 80 02 00
        E 1200 90 01 60
        E 0 90 00 60
        E 480 80 01 00
        E 0 80 00 00
        E 240 90 01 60
        E 0 90 03 60
        E 480 80 01 00
        E 0 80 03 00
        E 720 90 00 60
        E 0 90 03 60
        E 480 80 00 00
        E 0 80 03 00
        E 240 90 01 60
        E 0 90 02 60
        E 480 80 01 00
        E 0 80 02 00
        E 240 90 00 60
        E 0 90 03 60
        E 480 80 00 00
        E 0 80 03 00
        E 240 90 01 60
        E 0 90 02 60
        E 480 80 01 00
        E 0 80 02 00
        E 240 90 03 60
        E 240 80 03 00
        E 0 90 01 60
        E 240 80 01 00
        E 480 90 03 60
        E 240 80 03 00
        E 240 90 00 60
        E 240 80 00 00
        E 0 90 03 60
        E 240 80 03 00
        E 960 90 00 60
        E 240 80 00 00
        E 240 90 03 60
        E 240 80 03 00
        E 0 90 00 60
        E 240 80 00 00
        E 960 90 00 60
        E 240 80 00 00
        E 240 90 02 60
        E 240 80 02 00
        E 0 90 00 60
        E 240 80 00 00
        E 960 90 00 60
        E 240 80 00 00
        E 240 90 04 60
        E 240 80 04 00
        E 240 90 02 60
        E 240 80 02 00
        E 240 90 04 60
        E 240 80 04 00
        E 240 90 00 60
        E 240 80 00 00
        E 240 90 01 60
        E 240 80 01 00
        E 1200 90 01 60
        E 0 90 00 60
        E 480 80 01 00
        E 0 80 00 00
        E 240 90 01 60
        E 0 90 03 60
        E 480 80 01 00
        E 0 80 03 00
        E 720 90 00 60
        E 0 90 03 60
        E 480 80 00 00
        E 0 80 03 00
        E 240 90 01 60
        E 0 90 02 60
        E 480 80 01 00
        E 0 80 02 00
        E 240 90 01 60
        E 240 80 01 00
        E 240 90 00 60
        E 240 80 00 00
        E 240 90 04 60
        E 240 80 04 00
        E 240 90 04 60
        E 240 80 04 00
        E 0 90 01 60
        E 240 80 01 00
        E 480 90 01 60
        E 240 80 01 00
        E 240 90 03 60
        E 240 80 03 00
        E 0 90 00 60
        E 240 80 00 00
        E 480 90 01 60
        E 240 80 01 00
        E 720 90 03 60
        E 240 80 03 00
        E 0 90 01 60
        E 240 80 01 00
        E 0 90 03 60
        E 240 80 03 00
        E 240 90 00 60
        E 240 80 00 00
        E 240 90 00 60
        E 240 80 00 00
        E 240 90 00 60
        E 240 80 00 00
        E 720 90 02 60
        E 240 80 02 00
        E 720 90 02 60
        E 240 80 02 00
        E 0 90 00 60
        E 240 80 00 00
        E 960 90 00 60
        E 0 90 01 60
        E 240 80 00 00
        E 0 80 01 00
        E 480 90 01 60
        E 0 90 03 60
        E 240 80 01 00
        E 0 80 03 00
        E 480 90 02 60
        E 240 80 02 00
        E 240 90 03 60
        E 0 90 02 60
        E 240 80 03 00
        E 0 80 02 00
        E 480 90 02 60
        E 0 90 00 60
        E 240 80 02 00
        E 0 80 00 00
        E 480 90 02 60
        E 240 80 02 00
        E 240 90 00 60
        E 240 80 00 00
        E 720 90 01 60
        E 240 80 01 00
        E 240 90 03 60
        E 240 80 03 00
        E 240 90 02 60
        E 240 80 02 00
        E 240 90 00 60
        E 240 80 00 00
        E 240 b0 7b 00
        CCINTERP 32
        CHASE_CC_TAKEOFFS 1
        GUID {ABF65EA6-9E9A-4D28-8531-5B03F14AC3C0}
        IGNTEMPO 0 120 4 4
        SRCCOLOR 126
        VELLANE -1 100 0
        CFGEDITVIEW 31899.027059 0.035479 87 12 0 -1 0 0 0 0.5
        KEYSNAP 0
        TRACKSEL 252
        EVTFILTER 0 -1 -1 -1 -1 0 0 0 0 -1 -1 -1 -1 0 -1 0 -1 -1
        CFGEDIT 1 1 0 1 0 0 1 1 1 1 1 0.25 773 426 2067 1227 0 0 0 0 2 0 0 0 0 0.5 0 0 1 64
      >
    >
    <ITEM
      POSITION 44.89977728285078
      SNAPOFFS 0
      LENGTH 17.10467706013363
      LOOP 1
      ALLTAKES 0
      FADEIN 1 0 0 1 0 0 0
      FADEOUT 1 0 0 1 0 0 0
      MUTE 0 0
      COLOR 17537235 R
      SEL 0
      IGUID {1C1DF1D5-55E9-40A1-BA2A-C9EB16CDD751}
      IID 8
      NAME "untitled MIDI item"
      VOLPAN 1 0 1 -1
      SOFFS 44.89977728285078 84
      PLAYRATE 1 1 0 -1 0 0.0025
      CHANMODE 0
      GUID {BFBCDDCA-46C2-49BA-9F99-00C105ADB4F6}
      <SOURCE MIDI
        HASDATA 1 960 QN
        CCINTERP 32
        POOLEDEVTS {F13A307B-818B-4B3B-BFE2-3A007F55536D}
        E 3840 90 02 60
        E 480 80 02 00
        E 0 90 00 60
        E 480 80 00 00
        E 960 90 03 60
        E 480 80 03 00
        E 240 90 03 60
        E 480 80 03 00
        E 240 90 03 60
        E 480 80 03 00
        E 0 90 03 60
        E 480 80 03 00
        E 0 90 01 60
        E 480 80 01 00
        E 960 90 03 60
        E 480 80 03 00
        E 240 90 03 60
        E 480 80 03 00
        E 240 90 02 60
        E 480 80 02 00
        E 0 90 02 60
        E 480 80 02 00
        E 0 90 00 60
        E 480 80 00 00
        E 960 90 03 60
        E 480 80 03 00
        E 240 90 03 60
        E 480 80 03 00
        E 240 90 03 60
        E 480 80 03 00
        E 0 90 03 60
        E 480 80 03 00
        E 0 90 01 60
        E 480 80 01 00
        E 1440 90 03 60
        E 0 90 00 60
        E 480 80 03 00
        E 0 80 00 00
        E 240 90 03 60
        E 0 90 00 60
        E 480 80 03 00
        E 0 80 00 00
        E 240 90 02 60
        E 240 80 02 00
        E 240 90 02 60
        E 240 80 02 00
        E 0 90 01 60
        E 480 80 01 00
        E 1680 90 02 60
        E 240 80 02 00
        E 240 90 02 60
        E 240 80 02 00
        E 0 90 03 60
        E 240 80 03 00
        E 960 90 02 60
        E 240 80 02 00
        E 240 90 02 60
        E 240 80 02 00
        E 0 90 03 60
        E 240 80 03 00
        E 960 90 02 60
        E 240 80 02 00
        E 240 90 02 60
        E 240 80 02 00
        E 0 90 00 60
        E 240 80 00 00
        E 960 90 00 60
        E 480 80 00 00
        E 0 90 00 60
        E 480 80 00 00
        E 240 90 00 60
        E 480 80 00 00
        E 1680 90 03 60
        E 0 90 00 60
        E 480 80 03 00
        E 0 80 00 00
        E 240 90 02 60
        E 0 90 01 60
        E 480 80 02 00
        E 0 80 01 00
        E 240 90 03 60
        E 0 90 00 60
        E 480 80 03 00
        E 0 80 00 00
        E 480 90 02 60
        E 0 90 01 60
        E 480 80 02 00
        E 0 80 01 00
        E 0 90 01 60
        E 0 90 02 60
        E 480 80 01 00
        E 0 80 02 00
        E 0 90 02 60
        E 240 80 02 00
        E 0 90 01 60
        E 240 80 01 00
        E 480 90 03 60
        E 240 80 03 00
        E 240 90 00 60
        E 240 80 00 00
        E 0 90 03 60
        E 240 80 03 00
        E 960 90 00 60
        E 240 80 00 00
        E 240 90 03 60
        E 240 80 03 00
        E 0 90 00 60
        E 240 80 00 00
        E 960 90 00 60
        E 240 80 00 00
        E 240 90 02 60
        E 240 80 02 00
        E 0 90 00 60
        E 240 80 00 00
        E 960 90 00 60
        E 240 80 00 00
        E 240 90 04 60
        E 240 80 04 00
        E 240 90 02 60
        E 240 80 02 00
        E 240 90 04 60
        E 240 80 04 00
        E 240 90 00 60
        E 240 80 00 00
        E 240 90 02 60
        E 240 80 02 00
        E 1200 90 01 60
        E 0 90 00 60
        E 480 80 01 00
        E 0 80 00 00
        E 240 90 01 60
        E 0 90 03 60
        E 480 80 01 00
        E 0 80 03 00
        E 720 90 00 60
        E 0 90 03 60
        E 480 80 00 00
        E 0 80 03 00
        E 240 90 01 60
        E 0 90 02 60
        E 480 80 01 00
        E 0 80 02 00
        E 240 90 00 60
        E 0 90 03 60
        E 480 80 00 00
        E 0 80 03 00
        E 240 90 00 60
        E 0 90 03 60
        E 480 80 00 00
        E 0 80 03 00
        E 30960 90 01 60
        E 0 90 02 60
        E 240 80 01 00
        E 0 80 02 00
        E 1200 90 00 60
        E 240 80 00 00
        E 0 90 03 60
        E 240 80 03 00
        E 0 90 01 60
        E 240 80 01 00
        E 480 90 01 60
        E 240 80 01 00
        E 480 90 03 60
        E 0 90 00 60
        E 240 80 03 00
        E 0 80 00 00
        E 2160 90 00 60
        E 0 90 03 60
        E 240 80 00 00
        E 0 80 03 00
        E 480 90 03 60
        E 0 90 00 60
        E 240 80 03 00
        E 0 80 00 00
        E 480 90 00 60
        E 240 80 00 00
        E 1680 90 00 60
        E 240 80 00 00
        E 0 90 03 60
        E 240 80 03 00
        E 0 90 01 60
        E 240 80 01 00
        E 480 90 01 60
        E 240 80 01 00
        E 480 90 03 60
        E 0 90 00 60
        E 240 80 03 00
        E 0 80 00 00
        E 720 90 03 60
        E 0 90 00 60
        E 480 80 03 00
        E 0 80 00 00
        E 240 90 02 60
        E 0 90 01 60
        E 480 80 02 00
        E 0 80 01 00
        E 240 90 03 60
        E 0 90 00 60
        E 480 80 03 00
        E 0 80 00 00
        E 480 90 02 60
        E 0 90 01 60
        E 480 80 02 00
        E 0 80 01 00
        E 0 90 01 60
        E 0 90 02 60
        E 480 80 01 00
        E 0 80 02 00
        E 0 90 00 60
        E 0 90 03 60
        E 480 80 00 00
        E 0 80 03 00
        E 960 90 00 60
        E 240 80 00 00
        E 0 90 03 60
        E 240 80 03 00
        E 0 90 01 60
        E 240 80 01 00
        E 480 90 01 60
        E 240 80 01 00
        E 480 90 03 60
        E 0 90 00 60
        E 240 80 03 00
        E 0 80 00 00
        E 2160 90 00 60
        E 0 90 03 60
        E 240 80 00 00
        E 0 80 03 00
        E 480 90 03 60
        E 0 90 00 60
        E 240 80 03 00
        E 0 80 00 00
        E 480 90 00 60
        E 240 80 00 00
        E 1680 90 00 60
        E 240 80 00 00
        E 0 90 03 60
        E 240 80 03 00
        E 0 90 01 60
        E 240 80 01 00
        E 480 90 01 60
        E 240 80 01 00
        E 480 90 03 60
        E 0 90 00 60
        E 240 80 03 00
        E 0 80 00 00
        E 720 90 03 60
        E 0 90 00 60
        E 480 80 03 00
        E 0 80 00 00
        E 240 90 02 60
        E 0 90 01 60
        E 480 80 02 00
        E 0 80 01 00
        E 240 90 03 60
        E 0 90 00 60
        E 480 80 03 00
        E 0 80 00 00
        E 240 90 02 60
        E 0 90 01 60
        E 480 80 02 00
        E 0 80 01 00
        e 240 90 01 60
        E 0 90 02 60
        e 480 80 01 00
        E 0 80 02 00
        E 200027 b0 7b 00
        CCINTERP 32
        CHASE_CC_TAKEOFFS 1
        GUID {B37B1CEE-42AE-46B4-852E-850F08B2406E}
        IGNTEMPO 0 120 4 4
        SRCCOLOR 105
        VELLANE -1 100 0
        CFGEDITVIEW 79718.4 0.026932 87 12 0 -1 0 0 0 0.5
        KEYSNAP 0
        TRACKSEL 252
        EVTFILTER 0 -1 -1 -1 -1 0 0 0 0 -1 -1 -1 -1 0 -1 0 -1 -1
        CFGEDIT 1 1 0 1 0 0 1 1 1 1 1 0.25 773 426 2067 1227 0 0 0 0 2 0 0 0 0 0.5 0 0 1 64
      >
    >
    <ITEM
      POSITION 62.00445434299763
      SNAPOFFS 0
      LENGTH 12.82850779508701
      LOOP 1
      ALLTAKES 0
      FADEIN 1 0 0 1 0 0 0
      FADEOUT 1 0 0 1 0 0 0
      MUTE 0 0
      COLOR 26325731 R
      SEL 0
      IGUID {AF452F29-0B89-4259-8AF2-1B97B015E2EC}
      IID 28
      NAME "untitled MIDI item"
      VOLPAN 1 0 1 -1
      SOFFS 19.24276169258786 35.99999999988313
      PLAYRATE 1 1 0 -1 0 0.0025
      CHANMODE 0
      GUID {900343D4-D814-47B7-8FE5-B9E2BD6D9903}
      <SOURCE MIDI
        HASDATA 1 960 QN
        CCINTERP 32
        POOLEDEVTS {255E6B30-2AC1-4378-BBC7-71EDF681F8D6}
        E 3840 90 02 60
        E 480 80 02 00
        E 0 90 00 60
        E 480 80 00 00
        E 960 90 03 60
        E 480 80 03 00
        E 240 90 03 60
        E 480 80 03 00
        E 240 90 03 60
        E 480 80 03 00
        E 0 90 03 60
        E 480 80 03 00
        E 0 90 01 60
        E 480 80 01 00
        E 960 90 03 60
        E 480 80 03 00
        E 240 90 03 60
        E 480 80 03 00
        E 240 90 02 60
        E 480 80 02 00
        E 0 90 02 60
        E 480 80 02 00
        E 0 90 00 60
        E 480 80 00 00
        E 960 90 03 60
        E 480 80 03 00
        E 240 90 03 60
        E 480 80 03 00
        E 240 90 03 60
        E 480 80 03 00
        E 0 90 03 60
        E 480 80 03 00
        E 0 90 01 60
        E 480 80 01 00
        E 1440 90 03 60
        E 0 90 00 60
        E 480 80 03 00
        E 0 80 00 00
        E 240 90 03 60
        E 0 90 00 60
        E 480 80 03 00
        E 0 80 00 00
        E 240 90 02 60
        E 240 80 02 00
        E 240 90 02 60
        E 240 80 02 00
        E 0 90 01 60
        E 480 80 01 00
        E 1680 90 02 60
        E 240 80 02 00
        E 240 90 02 60
        E 240 80 02 00
        E 0 90 03 60
        E 240 80 03 00
        E 960 90 02 60
        E 240 80 02 00
        E 240 90 02 60
        E 240 80 02 00
        E 0 90 03 60
        E 240 80 03 00
        E 960 90 02 60
        E 240 80 02 00
        E 240 90 02 60
        E 240 80 02 00
        E 0 90 00 60
        E 240 80 00 00
        E 960 90 00 60
        E 480 80 00 00
        E 0 90 00 60
        E 480 80 00 00
        E 240 90 00 60
        E 480 80 00 00
        e 1680 90 03 60
        e 0 90 00 60
        e 480 80 03 00
        e 0 80 00 00
        e 240 90 02 60
        e 0 90 01 60
        e 480 80 02 00
        e 0 80 01 00
        e 240 90 03 60
        e 0 90 00 60
        e 480 80 03 00
        e 0 80 00 00
        e 480 90 02 60
        e 0 90 01 60
        e 480 80 02 00
        e 0 80 01 00
        e 0 90 01 60
        e 0 90 02 60
        e 480 80 01 00
        e 0 80 02 00
        E 0 90 02 60
        E 240 80 02 00
        E 0 90 01 60
        E 240 80 01 00
        E 480 90 03 60
        E 240 80 03 00
        E 240 90 00 60
        E 240 80 00 00
        E 0 90 03 60
        E 240 80 03 00
        E 960 90 00 60
        E 240 80 00 00
        E 240 90 03 60
        E 240 80 03 00
        E 0 90 00 60
        E 240 80 00 00
        E 960 90 00 60
        E 240 80 00 00
        E 240 90 02 60
        E 240 80 02 00
        E 0 90 00 60
        E 240 80 00 00
        E 960 90 00 60
        E 240 80 00 00
        E 240 90 04 60
        E 240 80 04 00
        E 240 90 02 60
        E 240 80 02 00
        E 240 90 04 60
        E 240 80 04 00
        E 240 90 00 60
        E 240 80 00 00
        E 240 90 02 60
        E 240 80 02 00
        E 1200 90 01 60
        E 0 90 00 60
        E 480 80 01 00
        E 0 80 00 00
        E 240 90 01 60
        E 0 90 03 60
        E 480 80 01 00
        E 0 80 03 00
        E 720 90 00 60
        E 0 90 03 60
        E 480 80 00 00
        E 0 80 03 00
        E 240 90 01 60
        E 0 90 02 60
        E 480 80 01 00
        E 0 80 02 00
        E 240 90 00 60
        E 0 90 03 60
        E 480 80 00 00
        E 0 80 03 00
        E 240 90 00 60
        E 0 90 03 60
        E 480 80 00 00
        E 0 80 03 00
        E 240 90 03 60
        E 240 80 03 00
        E 0 90 01 60
        E 240 80 01 00
        E 480 90 03 60
        E 240 80 03 00
        E 240 90 00 60
        E 240 80 00 00
        E 0 90 03 60
        E 240 80 03 00
        E 960 90 00 60
        E 240 80 00 00
        E 240 90 03 60
        E 240 80 03 00
        E 0 90 00 60
        E 240 80 00 00
        E 960 90 00 60
        E 240 80 00 00
        E 240 90 02 60
        E 240 80 02 00
        E 0 90 00 60
        E 240 80 00 00
        E 960 90 00 60
        E 240 80 00 00
        E 240 90 04 60
        E 240 80 04 00
        E 240 90 02 60
        E 240 80 02 00
        E 240 90 04 60
        E 240 80 04 00
        E 240 90 00 60
        E 240 80 00 00
        E 240 90 01 60
        E 240 80 01 00
        E 1200 90 01 60
        E 0 90 00 60
        E 480 80 01 00
        E 0 80 00 00
        E 240 90 01 60
        E 0 90 03 60
        E 480 80 01 00
        E 0 80 03 00
        E 720 90 00 60
        E 0 90 03 60
        E 480 80 00 00
        E 0 80 03 00
        E 240 90 01 60
        E 0 90 02 60
        E 480 80 01 00
        E 0 80 02 00
        E 240 90 01 60
        E 240 80 01 00
        E 240 90 00 60
        E 240 80 00 00
        E 240 90 04 60
        E 240 80 04 00
        E 240 90 04 60
        E 240 80 04 00
        E 0 90 01 60
        E 240 80 01 00
        E 480 90 01 60
        E 240 80 01 00
        E 240 90 03 60
        E 240 80 03 00
        E 0 90 00 60
        E 240 80 00 00
        E 480 90 01 60
        E 240 80 01 00
        E 720 90 03 60
        E 240 80 03 00
        E 0 90 01 60
        E 240 80 01 00
        E 0 90 03 60
        E 240 80 03 00
        E 240 90 00 60
        E 240 80 00 00
        E 240 90 00 60
        E 240 80 00 00
        E 240 90 00 60
        E 240 80 00 00
        E 720 90 02 60
        E 240 80 02 00
        E 720 90 02 60
        E 240 80 02 00
        E 0 90 00 60
        E 240 80 00 00
        E 960 90 00 60
        E 0 90 01 60
        E 240 80 00 00
        E 0 80 01 00
        E 480 90 01 60
        E 0 90 03 60
        E 240 80 01 00
        E 0 80 03 00
        E 480 90 02 60
        E 240 80 02 00
        E 240 90 03 60
        E 0 90 02 60
        E 240 80 03 00
        E 0 80 02 00
        E 480 90 02 60
        E 0 90 00 60
        E 240 80 02 00
        E 0 80 00 00
        E 480 90 02 60
        E 240 80 02 00
        E 240 90 00 60
        E 240 80 00 00
        E 720 90 01 60
        E 240 80 01 00
        E 240 90 03 60
        E 240 80 03 00
        E 240 90 02 60
        E 240 80 02 00
        E 240 90 00 60
        E 240 80 00 00
        E 240 b0 7b 00
        CCINTERP 32
        CHASE_CC_TAKEOFFS 1
        GUID {ABF65EA6-9E9A-4D28-8531-5B03F14AC3C0}
        IGNTEMPO 0 120 4 4
        SRCCOLOR 126
        VELLANE -1 100 0
        CFGEDITVIEW 0 0.004775 87 12 0 -1 0 0 0 0.5
        KEYSNAP 0
        TRACKSEL 252
        EVTFILTER 0 -1 -1 -1 -1 0 0 0 0 -1 -1 -1 -1 0 -1 0 -1 -1
        CFGEDIT 1 1 0 1 0 0 1 1 1 1 1 0.25 773 426 2067 1227 0 0 0 0 2 0 0 0 0 0.5 0 0 1 64
      >
    >
    <ITEM
      POSITION 74.83296213808464
      SNAPOFFS 0
      LENGTH 21.38084632521966
      LOOP 0
      ALLTAKES 0
      FADEIN 1 0 0 1 0 0 0
      FADEOUT 1 0 0 1 0 0 0
      MUTE 0 0
      SEL 0
      IGUID {7826532B-66CE-45F1-B730-A26A3D4DF9CB}
      IID 12
      NAME "untitled MIDI item"
      VOLPAN 1 0 1 -1
      SOFFS 32.07126948773734 59.99999999997526
      PLAYRATE 1 1 0 -1 0 0.0025
      CHANMODE 0
      GUID {A953FD83-F050-47B3-AE06-7B28E3E84B4E}
      <SOURCE MIDI
        HASDATA 1 960 QN
        CCINTERP 32
        POOLEDEVTS {5E39DD54-825A-4B28-A6EE-09C5A854819E}
        E 3840 90 02 60
        E 480 80 02 00
        E 0 90 00 60
        E 480 80 00 00
        E 960 90 03 60
        E 480 80 03 00
        E 240 90 03 60
        E 480 80 03 00
        E 240 90 03 60
        E 480 80 03 00
        E 0 90 03 60
        E 480 80 03 00
        E 0 90 01 60
        E 480 80 01 00
        E 960 90 03 60
        E 480 80 03 00
        E 240 90 03 60
        E 480 80 03 00
        E 240 90 02 60
        E 480 80 02 00
        E 0 90 02 60
        E 480 80 02 00
        E 0 90 00 60
        E 480 80 00 00
        E 960 90 03 60
        E 480 80 03 00
        E 240 90 03 60
        E 480 80 03 00
        E 240 90 03 60
        E 480 80 03 00
        E 0 90 03 60
        E 480 80 03 00
        E 0 90 01 60
        E 480 80 01 00
        E 1440 90 03 60
        E 0 90 00 60
        E 480 80 03 00
        E 0 80 00 00
        E 240 90 03 60
        E 0 90 00 60
        E 480 80 03 00
        E 0 80 00 00
        E 240 90 02 60
        E 240 80 02 00
        E 240 90 02 60
        E 240 80 02 00
        E 0 90 01 60
        E 480 80 01 00
        E 1680 90 02 60
        E 240 80 02 00
        E 240 90 02 60
        E 240 80 02 00
        E 0 90 03 60
        E 240 80 03 00
        E 960 90 02 60
        E 240 80 02 00
        E 240 90 02 60
        E 240 80 02 00
        E 0 90 03 60
        E 240 80 03 00
        E 960 90 02 60
        E 240 80 02 00
        E 240 90 02 60
        E 240 80 02 00
        E 0 90 00 60
        E 240 80 00 00
        E 960 90 00 60
        E 480 80 00 00
        E 0 90 00 60
        E 480 80 00 00
        E 240 90 00 60
        E 480 80 00 00
        E 1680 90 03 60
        E 0 90 00 60
        E 480 80 03 00
        E 0 80 00 00
        E 240 90 02 60
        E 0 90 01 60
        E 480 80 02 00
        E 0 80 01 00
        E 240 90 03 60
        E 0 90 00 60
        E 480 80 03 00
        E 0 80 00 00
        E 480 90 02 60
        E 0 90 01 60
        E 480 80 02 00
        E 0 80 01 00
        E 0 90 01 60
        E 0 90 02 60
        E 480 80 01 00
        E 0 80 02 00
        E 0 90 02 60
        E 240 80 02 00
        E 0 90 01 60
        E 240 80 01 00
        E 480 90 03 60
        E 240 80 03 00
        E 240 90 00 60
        E 240 80 00 00
        E 0 90 03 60
        E 240 80 03 00
        E 960 90 00 60
        E 240 80 00 00
        E 240 90 03 60
        E 240 80 03 00
        E 0 90 00 60
        E 240 80 00 00
        E 960 90 00 60
        E 240 80 00 00
        E 240 90 02 60
        E 240 80 02 00
        E 0 90 00 60
        E 240 80 00 00
        E 960 90 00 60
        E 240 80 00 00
        E 240 90 04 60
        E 240 80 04 00
        E 240 90 02 60
        E 240 80 02 00
        E 240 90 04 60
        E 240 80 04 00
        E 240 90 00 60
        E 240 80 00 00
        E 240 90 02 60
        E 240 80 02 00
        E 1200 90 01 60
        E 0 90 00 60
        E 480 80 01 00
        E 0 80 00 00
        E 240 90 01 60
        E 0 90 03 60
        E 480 80 01 00
        E 0 80 03 00
        E 720 90 00 60
        E 0 90 03 60
        E 480 80 00 00
        E 0 80 03 00
        E 240 90 01 60
        E 0 90 02 60
        E 480 80 01 00
        E 0 80 02 00
        E 240 90 00 60
        E 0 90 03 60
        E 480 80 00 00
        E 0 80 03 00
        E 240 90 00 60
        E 0 90 03 60
        E 480 80 00 00
        E 0 80 03 00
        E 240 90 03 60
        E 240 80 03 00
        E 0 90 01 60
        E 240 80 01 00
        E 480 90 03 60
        E 240 80 03 00
        E 240 90 00 60
        E 240 80 00 00
        E 0 90 03 60
        E 240 80 03 00
        E 960 90 00 60
        E 240 80 00 00
        E 240 90 03 60
        E 240 80 03 00
        E 0 90 00 60
        E 240 80 00 00
        E 960 90 00 60
        E 240 80 00 00
        E 240 90 02 60
        E 240 80 02 00
        E 0 90 00 60
        E 240 80 00 00
        E 960 90 00 60
        E 240 80 00 00
        E 240 90 04 60
        E 240 80 04 00
        E 240 90 02 60
        E 240 80 02 00
        E 240 90 04 60
        E 240 80 04 00
        E 240 90 00 60
        E 240 80 00 00
        E 240 90 01 60
        E 240 80 01 00
        E 1200 90 01 60
        E 0 90 00 60
        E 480 80 01 00
        E 0 80 00 00
        E 240 90 01 60
        E 0 90 03 60
        E 480 80 01 00
        E 0 80 03 00
        E 720 90 00 60
        E 0 90 03 60
        E 480 80 00 00
        E 0 80 03 00
        E 240 90 01 60
        E 0 90 02 60
        E 480 80 01 00
        E 0 80 02 00
        E 240 90 02 60
        E 240 80 02 00
        E 240 90 00 60
        E 240 80 00 00
        E 240 90 03 60
        E 240 80 03 00
        E 240 90 01 60
        E 480 80 01 00
        E 480 90 02 60
        E 480 80 02 00
        E 480 90 00 60
        E 480 80 00 00
        E 0 90 03 60
        E 480 80 03 00
        E 0 90 01 60
        E 480 80 01 00
        E 0 90 03 60
        E 480 80 03 00
        E 960 90 00 60
        E 480 80 00 00
        E 0 90 02 60
        E 480 80 02 00
        E 480 90 02 60
        E 480 80 02 00
        E 0 90 00 60
        E 480 80 00 00
        E 0 90 03 60
        E 480 80 03 00
        E 0 90 00 60
        E 480 80 00 00
        E 0 90 03 60
        E 480 80 03 00
        E 0 90 01 60
        E 480 80 01 00
        E 0 90 02 60
        E 480 80 02 00
        E 480 90 00 60
        E 480 80 00 00
        E 0 90 03 60
        E 480 80 03 00
        E 0 90 00 60
        E 480 80 00 00
        E 960 90 00 60
        E 480 80 00 00
        E 0 90 02 60
        E 480 80 02 00
        E 480 90 02 60
        E 480 80 02 00
        E 0 90 00 60
        E 480 80 00 00
        E 0 90 03 60
        E 480 80 03 00
        E 0 90 00 60
        E 480 80 00 00
        E 0 90 03 60
        E 480 80 03 00
        E 0 90 00 60
        E 480 80 00 00
        E 0 90 02 5f
        E 480 80 02 00
        E 480 90 00 60
        E 480 80 00 00
        E 480 90 02 60
        E 480 80 02 00
        E 0 90 00 60
        E 480 80 00 00
        E 0 90 03 60
        E 480 80 03 00
        E 0 90 00 60
        E 480 80 00 00
        E 0 90 01 60
        E 480 80 01 00
        E 480 90 02 60
        E 480 80 02 00
        E 0 90 03 60
        E 480 80 03 00
        E 0 90 01 60
        E 480 80 01 00
        E 480 90 03 60
        E 480 80 03 00
        E 0 90 00 60
        E 480 80 00 00
        E 0 90 02 60
        E 480 80 02 00
        E 480 90 02 60
        E 480 80 02 00
        E 0 90 00 60
        E 480 80 00 00
        E 0 90 01 60
        E 480 80 01 00
        E 0 90 01 60
        E 0 90 02 60
        E 240 80 01 00
        E 0 80 02 00
        E 240 90 00 60
        E 0 90 03 60
        E 240 80 00 00
        E 0 80 03 00
        E 240 90 01 60
        E 0 90 02 60
        E 240 80 01 00
        E 0 80 02 00
        E 240 90 03 60
        E 0 90 00 60
        E 240 80 03 00
        E 0 80 00 00
        E 240 90 01 60
        E 240 80 01 00
        E 0 90 03 60
        E 240 80 03 00
        E 0 90 00 60
        E 240 80 00 00
        E 240 90 03 60
        E 240 80 03 00
        e 0 90 02 60
        e 240 80 02 00
        E 0 90 03 60
        E 240 80 03 00
        E 240 b0 7b 00
        CCINTERP 32
        CHASE_CC_TAKEOFFS 1
        GUID {594B69F5-F01C-4C88-991E-E8ED0A7BF242}
        IGNTEMPO 0 120 4 4
        SRCCOLOR 109
        VELLANE -1 100 0
        CFGEDITVIEW 84369.164 0.138492 98 12 0 -1 0 0 0 0.5
        KEYSNAP 0
        TRACKSEL 252
        EVTFILTER 0 -1 -1 -1 -1 0 0 0 0 -1 -1 -1 -1 0 -1 0 -1 -1
        CFGEDIT 1 1 0 1 0 0 1 1 1 1 1 0.25 -3 736 2567 1407 0 0 0 0 2 0 0 0 0 0.5 0 0 1 64
      >
    >
    <ITEM
      POSITION 96.2138084633043
      SNAPOFFS 0
      LENGTH 17.104677060081
      LOOP 1
      ALLTAKES 0
      FADEIN 1 0 0 1 0 0 0
      FADEOUT 1 0 0 1 0 0 0
      MUTE 0 0
      COLOR 25494976 R
      SEL 0
      IGUID {9F7774E9-FEDE-4A20-A376-9C785022B726}
      IID 29
      NAME "untitled MIDI item-glued"
      VOLPAN 1 0 1 -1
      SOFFS 0 0
      PLAYRATE 1 1 0 -1 0 0.0025
      CHANMODE 0
      GUID {447A9503-FDA2-4C89-A138-1465D4F1FC8B}
      <SOURCE MIDI
        HASDATA 1 960 QN
        CCINTERP 32
        POOLEDEVTS {F128ED4D-D9D9-4980-ACBD-112C477C270C}
        E 0 90 02 60
        E 480 80 02 00
        E 1440 90 03 60
        E 480 80 03 00
        E 240 90 03 60
        E 480 80 03 00
        E 240 90 03 60
        E 480 80 03 00
        E 0 90 03 60
        E 480 80 03 00
        E 0 90 01 60
        E 480 80 01 00
        E 960 90 03 60
        E 480 80 03 00
        E 240 90 03 60
        E 480 80 03 00
        E 240 90 02 60
        E 480 80 02 00
        E 0 90 02 60
        E 480 80 02 00
        E 0 90 00 60
        E 480 80 00 00
        E 960 90 03 60
        E 480 80 03 00
        E 240 90 03 60
        E 480 80 03 00
        E 240 90 03 60
        E 480 80 03 00
        E 0 90 03 60
        E 480 80 03 00
        E 0 90 01 60
        E 480 80 01 00
        E 1440 90 03 60
        E 0 90 00 60
        E 480 80 03 00
        E 0 80 00 00
        E 240 90 03 60
        E 0 90 00 60
        E 480 80 03 00
        E 0 80 00 00
        E 240 90 02 60
        E 240 80 02 00
        E 240 90 02 60
        E 240 80 02 00
        E 0 90 01 60
        E 480 80 01 00
        E 1680 90 02 60
        E 240 80 02 00
        E 240 90 02 60
        E 240 80 02 00
        E 0 90 03 60
        E 240 80 03 00
        E 960 90 02 60
        E 240 80 02 00
        E 240 90 02 60
        E 240 80 02 00
        E 0 90 03 60
        E 240 80 03 00
        E 960 90 02 60
        E 240 80 02 00
        E 240 90 02 60
        E 240 80 02 00
        E 0 90 00 60
        E 240 80 00 00
        E 960 90 00 60
        E 480 80 00 00
        E 0 90 00 60
        E 480 80 00 00
        E 240 90 00 60
        E 480 80 00 00
        E 1680 90 03 60
        E 0 90 00 60
        E 480 80 03 00
        E 0 80 00 00
        E 240 90 02 60
        E 0 90 01 60
        E 480 80 02 00
        E 0 80 01 00
        E 240 90 03 60
        E 0 90 00 60
        E 480 80 03 00
        E 0 80 00 00
        E 480 90 02 60
        E 0 90 01 60
        E 480 80 02 00
        E 0 80 01 00
        E 0 90 01 60
        E 0 90 02 60
        E 480 80 01 00
        E 0 80 02 00
        E 0 b0 7b 00
        CCINTERP 32
        CHASE_CC_TAKEOFFS 1
        GUID {088988D5-2CF4-4FBB-AA64-8B9E4003C515}
        IGNTEMPO 0 120 4 4
        SRCCOLOR 128
        VELLANE -1 100 0
      >
    >
    <ITEM
      POSITION 113.31848552338531
      SNAPOFFS 0
      LENGTH 25.65701559026294
      LOOP 1
      ALLTAKES 0
      FADEIN 1 0 0 1 0 0 0
      FADEOUT 1 0 0 1 0 0 0
      MUTE 0 0
      COLOR 26325731 R
      SEL 0
      IGUID {EB738651-0ECF-4E0C-932F-9BE51BFD4F39}
      IID 28
      NAME "untitled MIDI item"
      VOLPAN 1 0 1 -1
      SOFFS 19.24276169258788 35.99999999988313
      PLAYRATE 1 1 0 -1 0 0.0025
      CHANMODE 0
      GUID {03AA15D1-B48B-4DEB-89D6-EBE10100B4BE}
      <SOURCE MIDI
        HASDATA 1 960 QN
        CCINTERP 32
        POOLEDEVTS {35519814-7037-43B6-BC45-838AF108A3B8}
        E 3840 90 02 60
        E 480 80 02 00
        E 0 90 00 60
        E 480 80 00 00
        E 960 90 03 60
        E 480 80 03 00
        E 240 90 03 60
        E 480 80 03 00
        E 240 90 03 60
        E 480 80 03 00
        E 0 90 03 60
        E 480 80 03 00
        E 0 90 01 60
        E 480 80 01 00
        E 960 90 03 60
        E 480 80 03 00
        E 240 90 03 60
        E 480 80 03 00
        E 240 90 02 60
        E 480 80 02 00
        E 0 90 02 60
        E 480 80 02 00
        E 0 90 00 60
        E 480 80 00 00
        E 960 90 03 60
        E 480 80 03 00
        E 240 90 03 60
        E 480 80 03 00
        E 240 90 03 60
        E 480 80 03 00
        E 0 90 03 60
        E 480 80 03 00
        E 0 90 01 60
        E 480 80 01 00
        E 1440 90 03 60
        E 0 90 00 60
        E 480 80 03 00
        E 0 80 00 00
        E 240 90 03 60
        E 0 90 00 60
        E 480 80 03 00
        E 0 80 00 00
        E 240 90 02 60
        E 240 80 02 00
        E 240 90 02 60
        E 240 80 02 00
        E 0 90 01 60
        E 480 80 01 00
        E 1680 90 02 60
        E 240 80 02 00
        E 240 90 02 60
        E 240 80 02 00
        E 0 90 03 60
        E 240 80 03 00
        E 960 90 02 60
        E 240 80 02 00
        E 240 90 02 60
        E 240 80 02 00
        E 0 90 03 60
        E 240 80 03 00
        E 960 90 02 60
        E 240 80 02 00
        E 240 90 02 60
        E 240 80 02 00
        E 0 90 00 60
        E 240 80 00 00
        E 960 90 00 60
        E 480 80 00 00
        E 0 90 00 60
        E 480 80 00 00
        E 240 90 00 60
        E 480 80 00 00
        e 1680 90 03 60
        e 0 90 00 60
        e 480 80 03 00
        e 0 80 00 00
        e 240 90 02 60
        e 0 90 01 60
        e 480 80 02 00
        e 0 80 01 00
        e 240 90 03 60
        e 0 90 00 60
        e 480 80 03 00
        e 0 80 00 00
        e 480 90 02 60
        e 0 90 01 60
        e 480 80 02 00
        e 0 80 01 00
        e 0 90 01 60
        e 0 90 02 60
        e 480 80 01 00
        e 0 80 02 00
        E 0 90 02 60
        E 240 80 02 00
        E 0 90 01 60
        E 240 80 01 00
        E 480 90 03 60
        E 240 80 03 00
        E 240 90 00 60
        E 240 80 00 00
        E 0 90 03 60
        E 240 80 03 00
        E 960 90 00 60
        E 240 80 00 00
        E 240 90 03 60
        E 240 80 03 00
        E 0 90 00 60
        E 240 80 00 00
        E 960 90 00 60
        E 240 80 00 00
        E 240 90 02 60
        E 240 80 02 00
        E 0 90 00 60
        E 240 80 00 00
        E 960 90 00 60
        E 240 80 00 00
        E 240 90 04 60
        E 240 80 04 00
        E 240 90 02 60
        E 240 80 02 00
        E 240 90 04 60
        E 240 80 04 00
        E 240 90 00 60
        E 240 80 00 00
        E 240 90 02 60
        E 240 80 02 00
        E 1200 90 01 60
        E 0 90 00 60
        E 480 80 01 00
        E 0 80 00 00
        E 240 90 01 60
        E 0 90 03 60
        E 480 80 01 00
        E 0 80 03 00
        E 720 90 00 60
        E 0 90 03 60
        E 480 80 00 00
        E 0 80 03 00
        E 240 90 01 60
        E 0 90 02 60
        E 480 80 01 00
        E 0 80 02 00
        E 240 90 00 60
        E 0 90 03 60
        E 480 80 00 00
        E 0 80 03 00
        E 240 90 00 60
        E 0 90 03 60
        E 480 80 00 00
        E 0 80 03 00
        E 240 90 03 60
        E 240 80 03 00
        E 0 90 01 60
        E 240 80 01 00
        E 480 90 03 60
        E 240 80 03 00
        E 240 90 00 60
        E 240 80 00 00
        E 0 90 03 60
        E 240 80 03 00
        E 960 90 00 60
        E 240 80 00 00
        E 240 90 03 60
        E 240 80 03 00
        E 0 90 00 60
        E 240 80 00 00
        E 960 90 00 60
        E 240 80 00 00
        E 240 90 02 60
        E 240 80 02 00
        E 0 90 00 60
        E 240 80 00 00
        E 960 90 00 60
        E 240 80 00 00
        E 240 90 04 60
        E 240 80 04 00
        E 240 90 02 60
        E 240 80 02 00
        E 240 90 04 60
        E 240 80 04 00
        E 240 90 00 60
        E 240 80 00 00
        E 240 90 01 60
        E 240 80 01 00
        E 1200 90 01 60
        E 0 90 00 60
        E 480 80 01 00
        E 0 80 00 00
        E 240 90 01 60
        E 0 90 03 60
        E 480 80 01 00
        E 0 80 03 00
        E 720 90 00 60
        E 0 90 03 60
        E 480 80 00 00
        E 0 80 03 00
        E 240 90 01 60
        E 0 90 02 60
        E 480 80 01 00
        E 0 80 02 00
        E 240 90 01 60
        E 240 80 01 00
        E 240 90 00 60
        E 240 80 00 00
        E 240 90 04 60
        E 240 80 04 00
        E 240 90 04 60
        E 240 80 04 00
        E 0 90 01 60
        E 240 80 01 00
        E 480 90 01 60
        E 240 80 01 00
        E 240 90 03 60
        E 240 80 03 00
        E 0 90 00 60
        E 240 80 00 00
        E 480 90 01 60
        E 240 80 01 00
        E 720 90 03 60
        E 240 80 03 00
        E 0 90 01 60
        E 240 80 01 00
        E 0 90 03 60
        E 240 80 03 00
        E 240 90 00 60
        E 240 80 00 00
        E 240 90 00 60
        E 240 80 00 00
        E 240 90 00 60
        E 240 80 00 00
        E 720 90 02 60
        E 240 80 02 00
        E 720 90 02 60
        E 240 80 02 00
        E 0 90 00 60
        E 240 80 00 00
        E 960 90 00 60
        E 0 90 01 60
        E 240 80 00 00
        E 0 80 01 00
        E 480 90 01 60
        E 0 90 03 60
        E 240 80 01 00
        E 0 80 03 00
        E 480 90 02 60
        E 240 80 02 00
        E 240 90 03 60
        E 0 90 02 60
        E 240 80 03 00
        E 0 80 02 00
        E 480 90 02 60
        E 0 90 00 60
        E 240 80 02 00
        E 0 80 00 00
        E 480 90 02 60
        E 240 80 02 00
        E 240 90 00 60
        E 240 80 00 00
        E 720 90 01 60
        E 240 80 01 00
        E 240 90 03 60
        E 240 80 03 00
        E 240 90 02 60
        E 240 80 02 00
        E 240 90 00 60
        E 240 80 00 00
        E 240 b0 7b 00
        CCINTERP 32
        CHASE_CC_TAKEOFFS 1
        GUID {ABF65EA6-9E9A-4D28-8531-5B03F14AC3C0}
        IGNTEMPO 0 120 4 4
        SRCCOLOR 126
        VELLANE -1 100 0
        CFGEDITVIEW 0 0.004775 87 12 0 -1 0 0 0 0.5
        KEYSNAP 0
        TRACKSEL 252
        EVTFILTER 0 -1 -1 -1 -1 0 0 0 0 -1 -1 -1 -1 0 -1 0 -1 -1
        CFGEDIT 1 1 0 1 0 0 1 1 1 1 1 0.25 773 426 2067 1227 0 0 0 0 2 0 0 0 0 0.5 0 0 1 64
      >
    >
    <ITEM
      POSITION 138.97550111368767
      SNAPOFFS 0
      LENGTH 17.10467706003172
      LOOP 1
      ALLTAKES 0
      FADEIN 1 0 0 1 0 0 0
      FADEOUT 1 0 0 1 0 0 0
      MUTE 0 0
      COLOR 17537235 R
      SEL 0
      IGUID {D75F9062-5427-4F74-9203-66D0DBD02F41}
      IID 8
      NAME "untitled MIDI item"
      VOLPAN 1 0 1 -1
      SOFFS 44.89977728285078 84
      PLAYRATE 1 1 0 -1 0 0.0025
      CHANMODE 0
      GUID {52D4B812-BF79-4528-83DC-264603C37E9A}
      <SOURCE MIDI
        HASDATA 1 960 QN
        CCINTERP 32
        POOLEDEVTS {B0B942D6-A8C6-4E36-8C0F-81B967213FC1}
        E 3840 90 02 60
        E 480 80 02 00
        E 0 90 00 60
        E 480 80 00 00
        E 960 90 03 60
        E 480 80 03 00
        E 240 90 03 60
        E 480 80 03 00
        E 240 90 03 60
        E 480 80 03 00
        E 0 90 03 60
        E 480 80 03 00
        E 0 90 01 60
        E 480 80 01 00
        E 960 90 03 60
        E 480 80 03 00
        E 240 90 03 60
        E 480 80 03 00
        E 240 90 02 60
        E 480 80 02 00
        E 0 90 02 60
        E 480 80 02 00
        E 0 90 00 60
        E 480 80 00 00
        E 960 90 03 60
        E 480 80 03 00
        E 240 90 03 60
        E 480 80 03 00
        E 240 90 03 60
        E 480 80 03 00
        E 0 90 03 60
        E 480 80 03 00
        E 0 90 01 60
        E 480 80 01 00
        E 1440 90 03 60
        E 0 90 00 60
        E 480 80 03 00
        E 0 80 00 00
        E 240 90 03 60
        E 0 90 00 60
        E 480 80 03 00
        E 0 80 00 00
        E 240 90 02 60
        E 240 80 02 00
        E 240 90 02 60
        E 240 80 02 00
        E 0 90 01 60
        E 480 80 01 00
        E 1680 90 02 60
        E 240 80 02 00
        E 240 90 02 60
        E 240 80 02 00
        E 0 90 03 60
        E 240 80 03 00
        E 960 90 02 60
        E 240 80 02 00
        E 240 90 02 60
        E 240 80 02 00
        E 0 90 03 60
        E 240 80 03 00
        E 960 90 02 60
        E 240 80 02 00
        E 240 90 02 60
        E 240 80 02 00
        E 0 90 00 60
        E 240 80 00 00
        E 960 90 00 60
        E 480 80 00 00
        E 0 90 00 60
        E 480 80 00 00
        E 240 90 00 60
        E 480 80 00 00
        E 1680 90 03 60
        E 0 90 00 60
        E 480 80 03 00
        E 0 80 00 00
        E 240 90 02 60
        E 0 90 01 60
        E 480 80 02 00
        E 0 80 01 00
        E 240 90 03 60
        E 0 90 00 60
        E 480 80 03 00
        E 0 80 00 00
        E 480 90 02 60
        E 0 90 01 60
        E 480 80 02 00
        E 0 80 01 00
        E 0 90 01 60
        E 0 90 02 60
        E 480 80 01 00
        E 0 80 02 00
        E 0 90 02 60
        E 240 80 02 00
        E 0 90 01 60
        E 240 80 01 00
        E 480 90 03 60
        E 240 80 03 00
        E 240 90 00 60
        E 240 80 00 00
        E 0 90 03 60
        E 240 80 03 00
        E 960 90 00 60
        E 240 80 00 00
        E 240 90 03 60
        E 240 80 03 00
        E 0 90 00 60
        E 240 80 00 00
        E 960 90 00 60
        E 240 80 00 00
        E 240 90 02 60
        E 240 80 02 00
        E 0 90 00 60
        E 240 80 00 00
        E 960 90 00 60
        E 240 80 00 00
        E 240 90 04 60
        E 240 80 04 00
        E 240 90 02 60
        E 240 80 02 00
        E 240 90 04 60
        E 240 80 04 00
        E 240 90 00 60
        E 240 80 00 00
        E 240 90 02 60
        E 240 80 02 00
        E 1200 90 01 60
        E 0 90 00 60
        E 480 80 01 00
        E 0 80 00 00
        E 240 90 01 60
        E 0 90 03 60
        E 480 80 01 00
        E 0 80 03 00
        E 720 90 00 60
        E 0 90 03 60
        E 480 80 00 00
        E 0 80 03 00
        E 240 90 01 60
        E 0 90 02 60
        E 480 80 01 00
        E 0 80 02 00
        E 240 90 00 60
        E 0 90 03 60
        E 480 80 00 00
        E 0 80 03 00
        E 240 90 00 60
        E 0 90 03 60
        E 480 80 00 00
        E 0 80 03 00
        E 30960 90 01 60
        E 0 90 02 60
        E 240 80 01 00
        E 0 80 02 00
        E 1200 90 00 60
        E 240 80 00 00
        E 0 90 03 60
        E 240 80 03 00
        E 0 90 01 60
        E 240 80 01 00
        E 480 90 01 60
        E 240 80 01 00
        E 480 90 03 60
        E 0 90 00 60
        E 240 80 03 00
        E 0 80 00 00
        E 2160 90 00 60
        E 0 90 03 60
        E 240 80 00 00
        E 0 80 03 00
        E 480 90 03 60
        E 0 90 00 60
        E 240 80 03 00
        E 0 80 00 00
        E 480 90 00 60
        E 240 80 00 00
        E 1680 90 00 60
        E 240 80 00 00
        E 0 90 03 60
        E 240 80 03 00
        E 0 90 01 60
        E 240 80 01 00
        E 480 90 01 60
        E 240 80 01 00
        E 480 90 03 60
        E 0 90 00 60
        E 240 80 03 00
        E 0 80 00 00
        E 720 90 03 60
        E 0 90 00 60
        E 480 80 03 00
        E 0 80 00 00
        E 240 90 02 60
        E 0 90 01 60
        E 480 80 02 00
        E 0 80 01 00
        E 240 90 03 60
        E 0 90 00 60
        E 480 80 03 00
        E 0 80 00 00
        E 480 90 02 60
        E 0 90 01 60
        E 480 80 02 00
        E 0 80 01 00
        E 0 90 01 60
        E 0 90 02 60
        E 480 80 01 00
        E 0 80 02 00
        E 0 90 00 60
        E 0 90 03 60
        E 480 80 00 00
        E 0 80 03 00
        E 960 90 00 60
        E 240 80 00 00
        E 0 90 03 60
        E 240 80 03 00
        E 0 90 01 60
        E 240 80 01 00
        E 480 90 01 60
        E 240 80 01 00
        E 480 90 03 60
        E 0 90 00 60
        E 240 80 03 00
        E 0 80 00 00
        E 2160 90 00 60
        E 0 90 03 60
        E 240 80 00 00
        E 0 80 03 00
        E 480 90 03 60
        E 0 90 00 60
        E 240 80 03 00
        E 0 80 00 00
        E 480 90 00 60
        E 240 80 00 00
        E 1680 90 00 60
        E 240 80 00 00
        E 0 90 03 60
        E 240 80 03 00
        E 0 90 01 60
        E 240 80 01 00
        E 480 90 01 60
        E 240 80 01 00
        E 480 90 03 60
        E 0 90 00 60
        E 240 80 03 00
        E 0 80 00 00
        E 720 90 03 60
        E 0 90 00 60
        E 480 80 03 00
        E 0 80 00 00
        E 240 90 02 60
        E 0 90 01 60
        E 480 80 02 00
        E 0 80 01 00
        E 240 90 03 60
        E 0 90 00 60
        E 480 80 03 00
        E 0 80 00 00
        E 240 90 02 60
        E 0 90 01 60
        E 480 80 02 00
        E 0 80 01 00
        E 240 90 00 60
        E 0 90 03 60
        E 480 80 00 00
        E 0 80 03 00
        E 200027 b0 7b 00
        CCINTERP 32
        CHASE_CC_TAKEOFFS 1
        GUID {B37B1CEE-42AE-46B4-852E-850F08B2406E}
        IGNTEMPO 0 120 4 4
        SRCCOLOR 105
        VELLANE -1 100 0
        CFGEDITVIEW 106137.664672 0.111607 87 12 0 -1 0 0 0 0.5
        KEYSNAP 0
        TRACKSEL 252
        EVTFILTER 0 -1 -1 -1 -1 0 0 0 0 -1 -1 -1 -1 0 -1 0 -1 -1
        CFGEDIT 1 1 0 1 0 0 1 1 1 1 1 0.25 773 426 2067 1227 0 0 0 0 2 0 0 0 0 0.5 0 0 1 64
      >
    >
    <ITEM
      POSITION 156.08017817371939
      SNAPOFFS 0
      LENGTH 17.10467706013361
      LOOP 1
      ALLTAKES 0
      FADEIN 1 0 0 1 0 0 0
      FADEOUT 1 0 0 1 0 0 0
      MUTE 0 0
      SEL 0
      IGUID {2CA94A98-7211-4F30-B25E-EFFAA93521F6}
      IID 15
      NAME "untitled MIDI item"
      VOLPAN 1 0 1 -1
      SOFFS 0 0
      PLAYRATE 1 1 0 -1 0 0.0025
      CHANMODE 0
      GUID {F66D5BC0-1324-44B9-81AD-F911867BA330}
      <SOURCE MIDI
        HASDATA 1 960 QN
        CCINTERP 32
        POOLEDEVTS {0BDFCAB9-8129-455C-8065-83EC11FA392D}
        E 0 90 02 60
        E 240 80 02 00
        E 240 90 02 60
        E 240 80 02 00
        E 0 90 01 60
        E 480 80 01 00
        E 1680 90 02 60
        E 240 80 02 00
        E 240 90 02 60
        E 240 80 02 00
        E 0 90 03 60
        E 240 80 03 00
        E 960 90 02 60
        E 240 80 02 00
        E 240 90 02 60
        E 240 80 02 00
        E 0 90 03 60
        E 240 80 03 00
        E 960 90 02 60
        E 240 80 02 00
        E 240 90 02 60
        E 240 80 02 00
        E 0 90 00 60
        E 240 80 00 00
        E 960 90 00 60
        E 480 80 00 00
        E 0 90 00 60
        E 480 80 00 00
        E 240 90 00 60
        E 480 80 00 00
        E 1680 90 03 60
        E 0 90 00 60
        E 480 80 03 00
        E 0 80 00 00
        E 240 90 02 60
        E 0 90 01 60
        E 480 80 02 00
        E 0 80 01 00
        E 240 90 03 60
        E 0 90 00 60
        E 480 80 03 00
        E 0 80 00 00
        e 240 90 02 60
        e 0 90 01 60
        e 480 80 02 00
        e 0 80 01 00
        E 240 90 01 60
        E 0 90 02 60
        E 480 80 01 00
        E 0 80 02 00
        E 0 b0 7b 00
        CCINTERP 32
        CHASE_CC_TAKEOFFS 1
        GUID {9F0AE544-2FC2-42E1-A87A-0CC3683A1E88}
        IGNTEMPO 0 120 4 4
        SRCCOLOR 112
        VELLANE -1 100 0
        CFGEDITVIEW -1140.603194 0.035479 87 12 0 -1 0 0 0 0.5
        KEYSNAP 0
        TRACKSEL 252
        EVTFILTER 0 -1 -1 -1 -1 0 0 0 0 -1 -1 -1 -1 0 -1 0 -1 -1
        CFGEDIT 1 1 0 1 0 0 1 1 1 1 1 0.25 773 426 2067 1227 0 0 0 0 2 0 0 0 0 0.5 0 0 1 64
      >
    >
    <ITEM
      POSITION 173.184855233853
      SNAPOFFS 0
      LENGTH 1.06904231625836
      LOOP 1
      ALLTAKES 0
      FADEIN 1 0 0 1 0 0 0
      FADEOUT 1 0 0 1 0 0 0
      MUTE 0 0
      SEL 0
      IGUID {68D091E0-38C7-4282-9FB7-19F6E3C82A12}
      IID 16
      NAME "untitled MIDI item"
      VOLPAN 1 0 1 -1
      SOFFS 0 0
      PLAYRATE 1 1 0 -1 0 0.0025
      CHANMODE 0
      GUID {C551BA7B-67F8-4748-A8B0-B166E4FB77CA}
      <SOURCE MIDI
        HASDATA 1 960 QN
        CCINTERP 32
        POOLEDEVTS {780A0DB5-0657-435E-9E86-27999F786C74}
        E 0 90 00 60
        e 0 90 03 60
        E 240 80 00 00
        e 0 80 03 00
        E 1680 b0 7b 00
        CCINTERP 32
        CHASE_CC_TAKEOFFS 1
        GUID {289ECCB2-1BCE-4D8D-9C17-0914A4D4F313}
        IGNTEMPO 0 120 4 4
        SRCCOLOR 113
        VELLANE -1 100 0
        CFGEDITVIEW -1173.765419 0.225 88 12 0 -1 0 0 0 0.5
        KEYSNAP 0
        TRACKSEL 252
        EVTFILTER 0 -1 -1 -1 -1 0 0 0 0 -1 -1 -1 -1 0 -1 0 -1 -1
        CFGEDIT 1 1 0 1 0 0 1 1 1 1 1 0.25 975 456 2253 1241 0 0 0 0 2 0 0 0 0 0.5 0 0 1 64
      >
    >
  >
>
