<REAPER_PROJECT 0.1 "6.27/win64" 1659811520
  RIPPLE 0
  GROUPOVERRIDE 0 0 0
  AUTOXFADE 1
  ENVATTACH 1
  POOLEDENVATTACH 0
  MIXERUIFLAGS 11 48
  PEAKGAIN 1
  FEEDBACK 0
  PANLAW 1
  PROJOFFS 0 0 0
  MAXPROJLEN 0 600
  GRID 3199 8 1 8 1 0 0 0
  TIMEMODE 1 5 -1 30 0 0 -1
  VIDEO_CONFIG 0 0 256
  PANMODE 3
  CURSOR 86.8
  ZOOM 50.47430263272125 3105 0
  VZOOMEX 6 0
  USE_REC_CFG 0
  RECMODE 1
  SMPTESYNC 0 30 100 40 1000 300 0 0 1 0 0
  LOOP 0
  LOOPGRAN 0 4
  RECORD_PATH "" ""
  <RECORD_CFG
  >
  <APPLYFX_CFG
  >
  RENDER_FILE "D:\My Files\documents\unity\urptest\Assets\StreamingAssets\songs\clement-panchout_sweet-70s\clement-panchout_sweet-70s.ogg"
  RENDER_FMT 0 2 44100
  RENDER_1X 0
  RENDER_RANGE 1 0 0 18 1000
  RENDER_RESAMPLE 3 0 1
  RENDER_ADDTOPROJ 0
  RENDER_STEMS 128
  RENDER_DITHER 0
  TIMELOCKMODE 1
  TEMPOENVLOCKMODE 1
  ITEMMIX 0
  DEFPITCHMODE 589824 0
  TAKELANE 1
  SAMPLERATE 44100 0 0
  <RENDER_CFG
    dmdnbwAAAD8AgAAAAIAAAAAgAAAAAAEAAA==
  >
  LOCK 1
  <METRONOME 6 2
    VOL 0.25 0.125
    FREQ 800 1600 1
    BEATLEN 4
    SAMPLES "" ""
    PATTERN 2863311530 2863311529
  >
  GLOBAL_AUTO -1
  TEMPO 150 4 4
  PLAYRATE 1 0 0.25 4
  SELECTION 0 0
  SELECTION2 0 0
  MASTERAUTOMODE 0
  MASTERTRACKHEIGHT 0 0
  MASTERPEAKCOL 16576
  MASTERMUTESOLO 0
  MASTERTRACKVIEW 0 0.6667 0.5 0.5 0 -1 0 0 0 0 -1 -1 0
  MASTERHWOUT 0 0 1 0 0 0 0 -1
  MASTER_NCH 2 2
  MASTER_VOLUME 1 0 -1 -1 1
  MASTER_FX 1
  MASTER_SEL 0
  <MASTERPLAYSPEEDENV
    EGUID {8A336D33-BC12-4DB2-963B-AB73A232C945}
    ACT 0 -1
    VIS 0 1 1
    LANEHEIGHT 0 0
    ARM 0
    DEFSHAPE 0 -1 -1
  >
  <TEMPOENVEX
    EGUID {EF03AAC0-2605-49C8-A77F-C16028EB2F2D}
    ACT 0 -1
    VIS 1 0 1
    LANEHEIGHT 0 0
    ARM 0
    DEFSHAPE 1 -1 -1
  >
  <PROJBAY
  >
  <TRACK {262601A2-AEEB-450A-B992-A75FE5E36C47}
    NAME clement-panchout_sweet-70s
    PEAKCOL 16576
    BEAT -1
    AUTOMODE 0
    VOLPAN 1 0 -1 -1 1
    MUTESOLO 0 0 0
    IPHASE 0
    PLAYOFFS 0 1
    ISBUS 0 0
    BUSCOMP 0 0 0 0 0
    SHOWINMIX 1 0.6667 0.5 1 0.5 0 -1 0
    FREEMODE 0
    SEL 0
    REC 0 0 1 0 0 0 0
    VU 2
    TRACKHEIGHT 0 0 0 0 0 0
    INQ 0 0 0 0.5 100 0 0 100
    NCHAN 2
    FX 1
    TRACKID {262601A2-AEEB-450A-B992-A75FE5E36C47}
    PERF 0
    MIDIOUT -1
    MAINSEND 1 0
    <ITEM
      POSITION 0
      SNAPOFFS 0
      LENGTH 116.60834467120182
      LOOP 1
      ALLTAKES 0
      FADEIN 1 0.01 0 1 0 0 0
      FADEOUT 1 0.01 0 1 0 0 0
      MUTE 0 0
      SEL 0
      IGUID {16982478-1587-4998-BDB4-95527A6CB911}
      IID 11
      NAME clement-panchout_sweet-70s.ogg
      VOLPAN 1 0 1 -1
      SOFFS 0
      PLAYRATE 1 1 0 -1 0 0.0025
      CHANMODE 0
      GUID {A8253122-4C2E-4510-A486-639951177DEE}
      <SOURCE VORBIS
        FILE "clement-panchout_sweet-70s.ogg"
      >
    >
  >
  <TRACK {F4E54665-0669-4515-A300-690146501093}
    NAME Hard
    PEAKCOL 16576
    BEAT -1
    AUTOMODE 0
    VOLPAN 1 0 -1 -1 1
    MUTESOLO 0 0 0
    IPHASE 0
    PLAYOFFS 0 1
    ISBUS 0 0
    BUSCOMP 0 0 0 0 0
    SHOWINMIX 1 0.6667 0.5 1 0.5 0 -1 0
    FREEMODE 0
    SEL 1
    REC 0 0 1 0 0 0 0
    VU 2
    TRACKHEIGHT 0 0 0 0 0 0
    INQ 0 0 0 0.5 100 0 0 100
    NCHAN 2
    FX 1
    TRACKID {F4E54665-0669-4515-A300-690146501093}
    PERF 0
    MIDIOUT -1
    MAINSEND 1 0
    <FXCHAIN
      SHOW 0
      LASTSEL 0
      DOCKED 0
      BYPASS 0 0 0
      <VST "VSTi: Magical 8bit Plug 2 (Ymck)" Magical8bitPlug2.dll 0 "" 1937337962<56535473796E6A6D61676963616C2038> ""
        am55c+5e7f4AAAAAAgAAAAEAAAAAAAAAAgAAAAAAAAC1BAAAAQAAAAAAEAA=
        VkMyIawEAAA8cm9vdD48UGFyYW1zPjxQQVJBTSBpZD0iYXJwZWdnaW9EaXJlY3Rpb24iIHZhbHVlPSIwLjAiLz48UEFSQU0gaWQ9ImFycGVnZ2lvVGltZSIgdmFsdWU9
        IjAuMDI5OTk5OTk5MzI5NDQ3NzUiLz48UEFSQU0gaWQ9ImF0dGFjayIgdmFsdWU9IjAuMCIvPjxQQVJBTSBpZD0iYmVuZFJhbmdlIiB2YWx1ZT0iMi4wIi8+PFBBUkFN
        IGlkPSJjb2xvclNjaGVtZSIgdmFsdWU9IjEuMCIvPjxQQVJBTSBpZD0iZGVjYXkiIHZhbHVlPSIwLjAiLz48UEFSQU0gaWQ9ImR1dHkiIHZhbHVlPSIwLjAiLz48UEFS
        QU0gaWQ9ImdhaW4iIHZhbHVlPSIwLjUiLz48UEFSQU0gaWQ9ImlzQWR2YW5jZWRQYW5lbE9wZW5fcmF3IiB2YWx1ZT0iMS4wIi8+PFBBUkFNIGlkPSJpc0FycGVnZ2lv
        RW5hYmxlZF9yYXciIHZhbHVlPSIwLjAiLz48UEFSQU0gaWQ9ImlzRHV0eVNlcXVlbmNlRW5hYmxlZF9yYXciIHZhbHVlPSIwLjAiLz48UEFSQU0gaWQ9ImlzUGl0Y2hT
        ZXF1ZW5jZUVuYWJsZWRfcmF3IiB2YWx1ZT0iMC4wIi8+PFBBUkFNIGlkPSJpc1ZvbHVtZVNlcXVlbmNlRW5hYmxlZF9yYXciIHZhbHVlPSIwLjAiLz48UEFSQU0gaWQ9
        Im1heFBvbHkiIHZhbHVlPSI4LjAiLz48UEFSQU0gaWQ9Im5vaXNlQWxnb3JpdGhtX3JhdyIgdmFsdWU9IjAuMCIvPjxQQVJBTSBpZD0ib3NjIiB2YWx1ZT0iMC4wIi8+
        PFBBUkFNIGlkPSJwaXRjaFNlcXVlbmNlTW9kZV9yYXciIHZhbHVlPSIwLjAiLz48UEFSQU0gaWQ9InJlbGVhc2UiIHZhbHVlPSIwLjAiLz48UEFSQU0gaWQ9InJlc3Ry
        aWN0c1RvTkVTRnJlcXVlbmN5X3JhdyIgdmFsdWU9IjAuMCIvPjxQQVJBTSBpZD0ic3VzbGV2ZWwiIHZhbHVlPSIxLjAiLz48UEFSQU0gaWQ9InN3ZWVwSW5pdGlhbFBp
        dGNoIiB2YWx1ZT0iMjQuMCIvPjxQQVJBTSBpZD0ic3dlZXBUaW1lIiB2YWx1ZT0iMC4xMDAwMDAwMDE0OTAxMTYxIi8+PFBBUkFNIGlkPSJ2aWJyYXRvRGVsYXkiIHZh
        bHVlPSIwLjI5OTk5OTk4MjExODYwNjYiLz48UEFSQU0gaWQ9InZpYnJhdG9EZXB0aCIgdmFsdWU9IjAuMCIvPjxQQVJBTSBpZD0idmlicmF0b0lnbm9yZXNXaGVlbF9y
        YXciIHZhbHVlPSIxLjAiLz48UEFSQU0gaWQ9InZpYnJhdG9SYXRlIiB2YWx1ZT0iMC4xNTAwMDAwMDU5NjA0NjQ1Ii8+PC9QYXJhbXM+PHZvbHVtZUVudj48L3ZvbHVt
        ZUVudj48cGl0Y2hFbnY+PC9waXRjaEVudj48ZHV0eUVudj48L2R1dHlFbnY+PC9yb290PgA=
        AGRlZmF1bHQgZGFyawAQAAAA
      >
      PRESETNAME "default dark"
      FLOATPOS -1896 422 656 628
      FXID {76ECF4DB-6414-413F-B26B-1AC79CA9A6D8}
      WAK 0 0
    >
    <ITEM
      POSITION 0.4
      SNAPOFFS 0
      LENGTH 12.8
      LOOP 0
      ALLTAKES 0
      FADEIN 1 0 0 1 0 0 0
      FADEOUT 1 0 0 1 0 0 0
      MUTE 0 0
      SEL 0
      IGUID {8910A2A5-2023-46EF-A956-A9F36D762E43}
      IID 2
      NAME "untitled MIDI item"
      VOLPAN 1 0 1 -1
      SOFFS 0 0
      PLAYRATE 1 1 0 -1 0 0.0025
      CHANMODE 0
      GUID {DA2BD0FF-2693-434D-9853-AD9F2F4CFF65}
      <SOURCE MIDI
        HASDATA 1 960 QN
        CCINTERP 32
        POOLEDEVTS {9D42E6C9-18F4-4FF0-83FA-138519ED1D57}
        E 0 90 02 50
        E 480 80 02 00
        E 480 90 03 50
        E 480 80 03 00
        E 0 90 00 50
        E 480 80 00 00
        E 480 90 03 50
        E 480 80 03 00
        E 480 90 00 5b
        E 480 80 00 00
        E 480 90 03 5b
        E 0 90 00 50
        E 480 80 03 00
        E 0 80 00 00
        E 480 90 01 5b
        E 0 90 02 50
        E 480 80 01 00
        E 0 80 02 00
        E 480 90 03 5b
        E 0 90 00 50
        E 480 80 03 00
        E 0 80 00 00
        E 960 90 00 50
        E 480 80 00 00
        E 480 90 03 50
        E 480 80 03 00
        E 480 90 01 4a
        E 0 90 02 50
        E 480 80 01 00
        E 0 80 02 00
        E 480 90 03 50
        E 0 90 00 50
        E 480 80 03 00
        E 0 80 00 00
        E 480 90 02 50
        E 0 90 01 50
        E 480 80 02 00
        E 0 80 01 00
        E 960 90 00 50
        E 480 80 00 00
        E 0 90 03 50
        E 480 80 03 00
        E 480 90 00 50
        E 480 80 00 00
        E 480 90 00 50
        E 480 80 00 00
        E 480 90 03 50
        E 480 80 03 00
        E 960 90 03 50
        E 480 80 03 00
        E 480 90 01 5b
        E 480 80 01 00
        E 1440 90 00 5b
        E 480 80 00 00
        E 0 90 01 5b
        E 480 80 01 00
        E 480 90 01 5b
        E 480 80 01 00
        E 0 90 03 5b
        E 480 80 03 00
        E 0 90 00 50
        E 480 80 00 00
        E 480 90 03 50
        E 480 80 03 00
        E 480 90 01 4a
        E 0 90 02 50
        E 480 80 01 00
        E 0 80 02 00
        E 480 90 03 50
        E 0 90 00 50
        E 480 80 03 00
        E 0 80 00 00
        E 480 90 02 50
        E 0 90 01 50
        E 480 80 02 00
        E 0 80 01 00
        E 960 90 00 50
        E 480 80 00 00
        E 0 90 03 50
        E 480 80 03 00
        E 480 90 00 50
        E 480 80 00 00
        E 480 b0 7b 00
        CCINTERP 32
        CHASE_CC_TAKEOFFS 1
        GUID {50CC0F5C-1097-4EA2-9A92-E0E739FB60FE}
        IGNTEMPO 0 120 4 4
        SRCCOLOR 76
        VELLANE -1 100 0
        CFGEDITVIEW 5801.769097 0.063429 36 12 0 -1 0 0 0 0.5
        KEYSNAP 0
        TRACKSEL 252
        EVTFILTER 0 -1 -1 -1 -1 0 0 0 0 -1 -1 -1 -1 0 -1 0 -1 -1
        CFGEDIT 1 1 0 1 0 0 1 1 1 1 1 0.25 608 -15 1582 1032 0 0 0 0 1 0 0 1 0 0.5 0 0 1 64
      >
    >
    <ITEM
      POSITION 13.2
      SNAPOFFS 0
      LENGTH 25.59999999995344
      LOOP 0
      ALLTAKES 0
      FADEIN 1 0 0 1 0 0 0
      FADEOUT 1 0 0 1 0 0 0
      MUTE 0 0
      SEL 0
      IGUID {E5F66599-EA05-4573-9A51-C5FA0095076E}
      IID 2
      NAME "untitled MIDI item"
      VOLPAN 1 0 1 -1
      SOFFS 0 0
      PLAYRATE 1 1 0 -1 0 0.0025
      CHANMODE 0
      GUID {6CA6C584-1A3F-42A1-A1D6-302256C6E1B0}
      <SOURCE MIDI
        HASDATA 1 960 QN
        CCINTERP 32
        POOLEDEVTS {80E1CC35-B590-469B-B6EB-92C8FA1F47A8}
        E 0 90 02 50
        E 0 90 01 50
        E 480 80 02 00
        E 0 80 01 00
        E 480 90 03 50
        E 480 80 03 00
        E 0 90 00 50
        E 480 80 00 00
        E 480 90 00 50
        E 480 80 00 00
        E 0 90 02 60
        E 480 80 02 00
        E 0 90 01 5b
        E 480 80 01 00
        E 480 90 03 5b
        E 480 80 03 00
        E 0 90 00 5b
        E 480 80 00 00
        E 0 90 02 5b
        E 480 80 02 00
        E 480 90 00 5b
        E 480 80 00 00
        E 0 90 03 5b
        E 480 80 03 00
        E 480 90 01 50
        E 480 80 01 00
        E 0 90 01 50
        E 480 80 01 00
        E 0 90 03 50
        E 480 80 03 00
        E 0 90 03 50
        E 480 80 03 00
        E 0 90 00 4a
        E 0 90 03 4a
        E 480 80 00 00
        E 0 80 03 00
        E 960 90 03 4a
        E 480 80 03 00
        E 0 90 00 50
        E 480 80 00 00
        E 0 90 03 50
        E 480 80 03 00
        E 0 90 00 50
        E 480 80 00 00
        E 0 90 03 50
        E 480 80 03 00
        E 0 90 01 50
        E 0 90 02 50
        E 480 80 01 00
        E 0 80 02 00
        E 480 90 00 50
        E 0 90 03 50
        E 480 80 00 00
        E 0 80 03 00
        E 480 90 01 50
        E 0 90 02 50
        E 480 80 01 00
        E 0 80 02 00
        E 480 90 03 50
        E 0 90 01 50
        E 480 80 03 00
        E 0 80 01 00
        E 960 90 00 50
        E 480 80 00 00
        E 0 90 03 50
        E 480 80 03 00
        E 0 90 03 5b
        E 480 80 03 00
        E 0 90 01 5b
        E 480 80 01 00
        E 480 90 00 5b
        E 0 90 03 5b
        E 480 80 00 00
        E 0 80 03 00
        E 480 90 03 5b
        E 480 80 03 00
        E 0 90 02 5b
        E 480 80 02 00
        E 0 90 00 5b
        E 480 80 00 00
        E 0 90 01 5b
        E 480 80 01 00
        E 0 90 00 50
        E 480 80 00 00
        E 0 90 00 5b
        E 480 80 00 00
        E 0 90 03 50
        E 480 80 03 00
        E 0 90 03 50
        E 480 80 03 00
        E 0 90 00 50
        E 480 80 00 00
        E 0 90 00 4a
        E 480 80 00 00
        E 480 90 00 4a
        E 480 80 00 00
        E 0 90 03 4a
        E 480 80 03 00
        E 0 90 01 4a
        E 480 80 01 00
        E 0 90 03 4a
        E 480 80 03 00
        E 480 90 01 4a
        E 0 90 02 4a
        E 480 80 01 00
        E 0 80 02 00
        E 480 90 00 4a
        E 0 90 03 4a
        E 480 80 00 00
        E 0 80 03 00
        E 480 90 02 50
        E 0 90 01 50
        E 480 80 02 00
        E 0 80 01 00
        E 480 90 03 50
        E 480 80 03 00
        E 0 90 00 50
        E 480 80 00 00
        E 480 90 00 50
        E 480 80 00 00
        E 0 90 02 60
        E 480 80 02 00
        E 0 90 01 5b
        E 480 80 01 00
        E 480 90 03 5b
        E 480 80 03 00
        E 0 90 00 5b
        E 480 80 00 00
        E 0 90 02 5b
        E 480 80 02 00
        E 480 90 00 5b
        E 480 80 00 00
        E 0 90 03 5b
        E 480 80 03 00
        E 480 90 00 50
        E 480 80 00 00
        E 0 90 03 50
        E 480 80 03 00
        E 480 90 01 50
        E 0 90 03 50
        E 480 80 01 00
        E 0 80 03 00
        E 480 90 00 4a
        E 0 90 01 4a
        E 480 80 00 00
        E 0 80 01 00
        E 480 90 01 4a
        E 0 90 02 4a
        E 480 80 01 00
        E 0 80 02 00
        E 960 90 00 4a
        E 960 80 00 00
        E 0 90 03 4a
        E 960 80 03 00
        E 0 90 00 4a
        E 960 80 00 00
        E 960 90 03 50
        E 0 90 01 50
        E 480 80 03 00
        E 0 80 01 00
        E 960 90 01 50
        E 0 90 03 50
        E 480 80 01 00
        E 0 80 03 00
        E 480 90 03 5b
        E 480 80 03 00
        E 0 90 00 5b
        E 480 80 00 00
        E 0 90 02 5b
        E 480 80 02 00
        E 0 90 00 5b
        E 480 80 00 00
        E 0 90 02 5b
        E 480 80 02 00
        E 0 90 00 5b
        E 480 80 00 00
        E 480 90 01 5b
        E 720 80 01 00
        E 240 90 01 5b
        E 480 80 01 00
        E 0 90 00 5b
        E 480 80 00 00
        E 0 90 01 5b
        E 480 80 01 00
        E 0 90 00 5b
        E 480 80 00 00
        E 0 90 01 5b
        E 480 80 01 00
        E 0 90 00 5b
        E 480 80 00 00
        E 0 90 03 5b
        E 480 80 03 00
        e 0 90 00 5b
        e 480 80 00 00
        E 0 90 02 5b
        E 480 80 02 00
        E 0 90 00 4a
        E 480 80 00 00
        E 0 90 03 4a
        E 480 80 03 00
        E 0 90 01 5b
        E 480 80 01 00
        E 0 90 02 5b
        E 480 80 02 00
        E 0 90 00 5b
        E 480 80 00 00
        E 0 90 03 5b
        E 480 80 03 00
        E 0 90 01 5b
        E 480 80 01 00
        E 0 b0 7b 00
        CCINTERP 32
        CHASE_CC_TAKEOFFS 1
        GUID {50CC0F5C-1097-4EA2-9A92-E0E739FB60FE}
        IGNTEMPO 0 120 4 4
        SRCCOLOR 76
        VELLANE -1 100 0
        CFGEDITVIEW -1843.2 0.013466 18 10 0 -1 0 0 0 0.5
        KEYSNAP 0
        TRACKSEL 252
        EVTFILTER 0 -1 -1 -1 -1 0 0 0 0 -1 -1 -1 -1 0 -1 0 -1 -1
        CFGEDIT 1 1 0 1 0 0 1 1 1 1 1 0.25 1273 0 2567 1407 0 0 0 0 2 0 0 0 0 0.5 0 0 1 64
      >
    >
    <ITEM
      POSITION 38.79999999995344
      SNAPOFFS 0
      LENGTH 19.2
      LOOP 0
      ALLTAKES 0
      FADEIN 1 0 0 1 0 0 0
      FADEOUT 1 0 0 1 0 0 0
      MUTE 0 0
      SEL 0
      IGUID {12FAC1CD-9850-4AF7-83F1-A272C0FF3F29}
      IID 2
      NAME "untitled MIDI item"
      VOLPAN 1 0 1 -1
      SOFFS 0 0
      PLAYRATE 1 1 0 -1 0 0.0025
      CHANMODE 0
      GUID {378DBE39-DD41-4755-80FE-50D8C094103F}
      <SOURCE MIDI
        HASDATA 1 960 QN
        CCINTERP 32
        POOLEDEVTS {E435C7B0-0EE9-4B94-85EC-15193B673668}
        E 0 90 03 60
        E 0 90 00 60
        E 480 80 03 00
        E 0 80 00 00
        E 7200 90 03 60
        E 0 90 00 60
        E 480 80 03 00
        E 0 80 00 00
        E 960 90 03 60
        E 0 90 00 60
        E 480 80 03 00
        E 0 80 00 00
        E 960 90 03 60
        E 0 90 00 60
        E 480 80 03 00
        E 0 80 00 00
        E 2400 90 02 60
        E 480 80 02 00
        E 1440 90 03 60
        E 0 90 00 60
        E 480 80 03 00
        E 0 80 00 00
        E 1920 90 01 60
        E 480 80 01 00
        E 4800 90 03 60
        E 0 90 00 60
        E 480 80 03 00
        E 0 80 00 00
        E 960 90 03 60
        E 0 90 00 60
        E 480 80 03 00
        E 0 80 00 00
        E 960 90 03 60
        E 0 90 00 60
        E 480 80 03 00
        E 0 80 00 00
        E 4320 90 02 60
        E 480 80 02 00
        E 960 90 02 60
        E 480 80 02 00
        E 0 90 03 60
        E 480 80 03 00
        E 960 90 02 60
        E 480 80 02 00
        E 1920 90 01 60
        E 720 80 01 00
        E 1200 90 02 60
        E 480 80 02 00
        E 960 90 02 60
        E 480 80 02 00
        E 0 90 03 60
        E 480 80 03 00
        E 960 90 02 60
        E 480 80 02 00
        E 1920 90 02 60
        E 0 90 01 60
        E 480 80 02 00
        E 0 80 01 00
        e 480 90 00 60
        E 0 90 03 60
        e 480 80 00 00
        E 0 80 03 00
        E 1440 90 03 50
        E 0 90 01 50
        E 480 80 03 00
        E 0 80 01 00
        E 960 90 01 50
        E 0 90 03 50
        E 480 80 01 00
        E 0 80 03 00
        E 480 90 03 5b
        E 480 80 03 00
        E 0 90 00 5b
        E 480 80 00 00
        E 0 90 02 5b
        E 480 80 02 00
        E 0 90 00 5b
        E 480 80 00 00
        E 0 90 02 5b
        E 480 80 02 00
        E 0 90 00 5b
        E 480 80 00 00
        E 480 90 01 5b
        E 720 80 01 00
        E 240 90 01 5b
        E 480 80 01 00
        E 0 90 00 5b
        E 480 80 00 00
        E 0 90 01 5b
        E 480 80 01 00
        E 0 90 00 5b
        E 480 80 00 00
        E 0 90 01 5b
        E 480 80 01 00
        E 0 90 00 5b
        E 480 80 00 00
        E 0 90 03 5b
        E 480 80 03 00
        E 0 90 00 5b
        E 480 80 00 00
        E 0 90 02 5b
        E 480 80 02 00
        E 0 90 00 4a
        E 480 80 00 00
        E 0 90 03 4a
        E 480 80 03 00
        E 0 90 01 5b
        E 480 80 01 00
        E 0 90 02 5b
        E 480 80 02 00
        E 0 90 00 5b
        E 480 80 00 00
        E 0 90 03 5b
        E 480 80 03 00
        E 0 90 01 5b
        E 480 80 01 00
        E 0 b0 7b 00
        CCINTERP 32
        CHASE_CC_TAKEOFFS 1
        GUID {50CC0F5C-1097-4EA2-9A92-E0E739FB60FE}
        IGNTEMPO 0 120 4 4
        SRCCOLOR 76
        VELLANE -1 100 0
        CFGEDITVIEW 30823.655422 0.05648 18 10 0 -1 0 0 0 0.5
        KEYSNAP 0
        TRACKSEL 252
        EVTFILTER 0 -1 -1 -1 -1 0 0 0 0 -1 -1 -1 -1 0 -1 0 -1 -1
        CFGEDIT 1 1 0 1 0 0 1 1 1 1 1 0.25 1273 0 2567 1407 0 0 0 0 2 0 0 0 0 0.5 0 0 1 64
      >
    >
    <ITEM
      POSITION 58
      SNAPOFFS 0
      LENGTH 12.8
      LOOP 0
      ALLTAKES 0
      FADEIN 1 0 0 1 0 0 0
      FADEOUT 1 0 0 1 0 0 0
      MUTE 0 0
      SEL 0
      IGUID {16078D7A-3647-4DD4-9DFF-CCAF0BD28AB5}
      IID 2
      NAME "untitled MIDI item"
      VOLPAN 1 0 1 -1
      SOFFS 0 0
      PLAYRATE 1 1 0 -1 0 0.0025
      CHANMODE 0
      GUID {BFEBE870-0C4B-4A3E-9DD5-4776B2437448}
      <SOURCE MIDI
        HASDATA 1 960 QN
        CCINTERP 32
        POOLEDEVTS {D3AF0085-8846-4A33-B750-E6219F0B72F2}
        E 0 90 02 50
        E 480 80 02 00
        E 480 90 03 50
        E 480 80 03 00
        E 0 90 00 50
        E 480 80 00 00
        E 480 90 03 50
        E 480 80 03 00
        E 480 90 00 5b
        E 480 80 00 00
        E 480 90 03 5b
        E 0 90 00 50
        E 480 80 03 00
        E 0 80 00 00
        E 480 90 01 5b
        E 0 90 02 50
        E 480 80 01 00
        E 0 80 02 00
        E 480 90 03 5b
        E 0 90 00 50
        E 480 80 03 00
        E 0 80 00 00
        E 960 90 00 50
        E 480 80 00 00
        E 480 90 03 50
        E 480 80 03 00
        E 480 90 01 4a
        E 0 90 02 50
        E 480 80 01 00
        E 0 80 02 00
        E 480 90 03 50
        E 0 90 00 50
        E 480 80 03 00
        E 0 80 00 00
        E 480 90 02 50
        E 0 90 01 50
        E 480 80 02 00
        E 0 80 01 00
        E 960 90 00 50
        E 480 80 00 00
        E 0 90 03 50
        E 480 80 03 00
        E 480 90 00 50
        E 480 80 00 00
        E 480 90 00 50
        E 480 80 00 00
        E 480 90 03 50
        E 480 80 03 00
        E 960 90 03 50
        E 480 80 03 00
        E 480 90 01 5b
        E 480 80 01 00
        E 1440 90 00 5b
        E 480 80 00 00
        E 0 90 01 5b
        E 480 80 01 00
        E 480 90 01 5b
        E 480 80 01 00
        E 0 90 03 5b
        E 480 80 03 00
        E 0 90 00 50
        E 480 80 00 00
        E 480 90 03 50
        E 480 80 03 00
        E 480 90 01 4a
        E 0 90 02 50
        E 480 80 01 00
        E 0 80 02 00
        E 480 90 03 50
        E 0 90 00 50
        E 480 80 03 00
        E 0 80 00 00
        E 480 90 02 50
        E 0 90 01 50
        E 480 80 02 00
        E 0 80 01 00
        E 960 90 00 50
        E 480 80 00 00
        E 0 90 03 50
        E 480 80 03 00
        E 480 90 00 50
        E 480 80 00 00
        E 480 b0 7b 00
        CCINTERP 32
        CHASE_CC_TAKEOFFS 1
        GUID {50CC0F5C-1097-4EA2-9A92-E0E739FB60FE}
        IGNTEMPO 0 120 4 4
        SRCCOLOR 76
        VELLANE -1 100 0
        CFGEDITVIEW -5913.632624 0.031845 18 10 0 -1 0 0 0 0.5
        KEYSNAP 0
        TRACKSEL 252
        EVTFILTER 0 -1 -1 -1 -1 0 0 0 0 -1 -1 -1 -1 0 -1 0 -1 -1
        CFGEDIT 1 1 0 1 0 0 1 1 1 1 1 0.25 1273 0 2567 1407 0 0 0 0 2 0 0 0 0 0.5 0 0 1 64
      >
    >
    <ITEM
      POSITION 70.79999999997672
      SNAPOFFS 0
      LENGTH 25.59999999995343
      LOOP 0
      ALLTAKES 0
      FADEIN 1 0 0 1 0 0 0
      FADEOUT 1 0 0 1 0 0 0
      MUTE 0 0
      SEL 1
      IGUID {4D7D5B26-889F-4261-B991-6E1BCB398345}
      IID 2
      NAME "untitled MIDI item"
      VOLPAN 1 0 1 -1
      SOFFS 0 0
      PLAYRATE 1 1 0 -1 0 0.0025
      CHANMODE 0
      GUID {A80CF131-2757-431E-99D0-C9334644EC5D}
      <SOURCE MIDI
        HASDATA 1 960 QN
        CCINTERP 32
        POOLEDEVTS {76741596-2DF4-4CF3-9DC5-E47D59487E17}
        E 0 90 02 50
        E 0 90 01 50
        E 480 80 02 00
        E 0 80 01 00
        E 480 90 03 50
        E 480 80 03 00
        E 0 90 00 50
        E 480 80 00 00
        E 480 90 00 50
        E 480 80 00 00
        E 0 90 02 60
        E 480 80 02 00
        E 0 90 01 5b
        E 480 80 01 00
        E 480 90 03 5b
        E 480 80 03 00
        E 0 90 00 5b
        E 480 80 00 00
        E 0 90 02 5b
        E 480 80 02 00
        E 480 90 00 5b
        E 480 80 00 00
        E 0 90 03 5b
        E 480 80 03 00
        E 480 90 01 50
        E 480 80 01 00
        E 0 90 01 50
        E 480 80 01 00
        E 0 90 03 50
        E 480 80 03 00
        E 0 90 03 50
        E 480 80 03 00
        E 0 90 00 4a
        E 0 90 03 4a
        E 480 80 00 00
        E 0 80 03 00
        E 960 90 03 4a
        E 480 80 03 00
        E 0 90 00 50
        E 480 80 00 00
        E 0 90 03 50
        E 480 80 03 00
        E 0 90 00 50
        E 480 80 00 00
        E 0 90 03 50
        E 480 80 03 00
        E 0 90 01 50
        E 0 90 02 50
        E 480 80 01 00
        E 0 80 02 00
        E 480 90 00 50
        E 0 90 03 50
        E 480 80 00 00
        E 0 80 03 00
        E 480 90 01 50
        E 0 90 02 50
        E 480 80 01 00
        E 0 80 02 00
        E 480 90 03 50
        E 0 90 01 50
        E 480 80 03 00
        E 0 80 01 00
        E 960 90 00 50
        E 480 80 00 00
        E 0 90 03 50
        E 480 80 03 00
        E 0 90 03 5b
        E 480 80 03 00
        E 0 90 01 5b
        E 480 80 01 00
        E 480 90 00 5b
        E 0 90 03 5b
        E 480 80 00 00
        E 0 80 03 00
        E 480 90 03 5b
        E 480 80 03 00
        E 0 90 02 5b
        E 480 80 02 00
        E 0 90 00 5b
        E 480 80 00 00
        E 0 90 01 5b
        E 480 80 01 00
        E 0 90 00 50
        E 480 80 00 00
        E 0 90 00 5b
        E 480 80 00 00
        E 0 90 03 50
        E 480 80 03 00
        E 0 90 03 50
        E 480 80 03 00
        E 0 90 00 50
        E 480 80 00 00
        E 0 90 00 4a
        E 480 80 00 00
        E 480 90 00 4a
        E 480 80 00 00
        E 0 90 03 4a
        E 480 80 03 00
        E 0 90 01 4a
        E 480 80 01 00
        E 0 90 03 4a
        E 480 80 03 00
        E 480 90 01 4a
        E 0 90 02 4a
        E 480 80 01 00
        E 0 80 02 00
        E 480 90 00 4a
        E 0 90 03 4a
        E 480 80 00 00
        E 0 80 03 00
        E 480 90 02 50
        E 0 90 01 50
        E 480 80 02 00
        E 0 80 01 00
        E 480 90 03 50
        E 480 80 03 00
        E 0 90 00 50
        E 480 80 00 00
        E 480 90 00 50
        E 480 80 00 00
        E 0 90 02 60
        E 480 80 02 00
        E 0 90 01 5b
        E 480 80 01 00
        E 480 90 03 5b
        E 480 80 03 00
        E 0 90 00 5b
        E 480 80 00 00
        E 0 90 02 5b
        E 480 80 02 00
        E 480 90 00 5b
        E 480 80 00 00
        E 0 90 03 5b
        E 480 80 03 00
        E 480 90 00 50
        E 480 80 00 00
        E 0 90 03 50
        E 480 80 03 00
        E 480 90 01 50
        E 0 90 03 50
        E 480 80 01 00
        E 0 80 03 00
        E 480 90 00 4a
        E 0 90 01 4a
        E 480 80 00 00
        E 0 80 01 00
        E 480 90 01 4a
        E 0 90 02 4a
        E 480 80 01 00
        E 0 80 02 00
        E 960 90 00 4a
        E 960 80 00 00
        E 0 90 03 4a
        E 960 80 03 00
        E 0 90 00 4a
        E 960 80 00 00
        E 960 90 03 50
        E 0 90 01 50
        E 480 80 03 00
        E 0 80 01 00
        E 960 90 01 50
        E 0 90 03 50
        E 480 80 01 00
        E 0 80 03 00
        E 480 90 03 5b
        E 480 80 03 00
        E 0 90 00 5b
        E 480 80 00 00
        E 0 90 02 5b
        E 480 80 02 00
        E 0 90 00 5b
        E 480 80 00 00
        E 0 90 02 5b
        E 480 80 02 00
        E 0 90 00 5b
        E 480 80 00 00
        E 480 90 01 5b
        E 720 80 01 00
        E 240 90 01 5b
        E 480 80 01 00
        E 0 90 00 5b
        E 480 80 00 00
        E 0 90 01 5b
        E 480 80 01 00
        E 0 90 00 5b
        E 480 80 00 00
        E 0 90 01 5b
        E 480 80 01 00
        E 0 90 00 5b
        E 480 80 00 00
        E 0 90 03 5b
        E 480 80 03 00
        e 0 90 00 5b
        e 480 80 00 00
        E 0 90 02 5b
        E 480 80 02 00
        E 0 90 00 4a
        E 480 80 00 00
        E 0 90 03 4a
        E 480 80 03 00
        E 0 90 01 5b
        E 480 80 01 00
        E 0 90 02 5b
        E 480 80 02 00
        E 0 90 00 5b
        E 480 80 00 00
        E 0 90 03 5b
        E 480 80 03 00
        E 0 90 01 5b
        E 480 80 01 00
        E 0 b0 7b 00
        CCINTERP 32
        CHASE_CC_TAKEOFFS 1
        GUID {50CC0F5C-1097-4EA2-9A92-E0E739FB60FE}
        IGNTEMPO 0 120 4 4
        SRCCOLOR 76
        VELLANE -1 100 0
        CFGEDITVIEW 39592.322223 0.031807 18 10 0 -1 0 0 0 0.5
        KEYSNAP 0
        TRACKSEL 252
        EVTFILTER 0 -1 -1 -1 -1 0 0 0 0 -1 -1 -1 -1 0 -1 0 -1 -1
        CFGEDIT 1 1 0 1 0 0 1 1 1 1 1 0.25 1273 0 2567 1407 0 0 0 0 2 0 0 0 0 0.5 0 0 1 64
      >
    >
    <ITEM
      POSITION 96.39999999993015
      SNAPOFFS 0
      LENGTH 19.2
      LOOP 0
      ALLTAKES 0
      FADEIN 1 0 0 1 0 0 0
      FADEOUT 1 0 0 1 0 0 0
      MUTE 0 0
      SEL 0
      IGUID {5523BDBC-9390-41BE-B23F-C70A7A46A5F3}
      IID 2
      NAME "untitled MIDI item"
      VOLPAN 1 0 1 -1
      SOFFS 0 0
      PLAYRATE 1 1 0 -1 0 0.0025
      CHANMODE 0
      GUID {8A3168E8-26A1-4F6B-8DD0-DEC75D7640DB}
      <SOURCE MIDI
        HASDATA 1 960 QN
        CCINTERP 32
        POOLEDEVTS {FF7A5CEF-39C3-4542-8306-123DBEA6EE25}
        E 0 90 03 60
        E 0 90 00 60
        E 480 80 03 00
        E 0 80 00 00
        E 7200 90 03 60
        E 0 90 00 60
        E 480 80 03 00
        E 0 80 00 00
        E 960 90 03 60
        E 0 90 00 60
        E 480 80 03 00
        E 0 80 00 00
        E 960 90 03 60
        E 0 90 00 60
        E 480 80 03 00
        E 0 80 00 00
        E 2400 90 02 60
        E 480 80 02 00
        E 1440 90 03 60
        E 0 90 00 60
        E 480 80 03 00
        E 0 80 00 00
        E 1920 90 01 60
        E 480 80 01 00
        E 4800 90 03 60
        E 0 90 00 60
        E 480 80 03 00
        E 0 80 00 00
        E 960 90 03 60
        E 0 90 00 60
        E 480 80 03 00
        E 0 80 00 00
        E 960 90 03 60
        E 0 90 00 60
        E 480 80 03 00
        E 0 80 00 00
        E 4320 90 02 60
        E 480 80 02 00
        E 960 90 02 60
        E 480 80 02 00
        E 0 90 03 60
        E 480 80 03 00
        E 960 90 02 60
        E 480 80 02 00
        E 1920 90 01 60
        E 720 80 01 00
        E 1200 90 02 60
        E 480 80 02 00
        E 960 90 02 60
        E 480 80 02 00
        E 0 90 03 60
        E 480 80 03 00
        E 960 90 02 60
        E 480 80 02 00
        E 1920 90 02 60
        E 0 90 01 60
        E 480 80 02 00
        E 0 80 01 00
        e 480 90 00 60
        E 0 90 03 60
        e 480 80 00 00
        E 0 80 03 00
        E 1440 90 03 50
        E 0 90 01 50
        E 480 80 03 00
        E 0 80 01 00
        E 960 90 01 50
        E 0 90 03 50
        E 480 80 01 00
        E 0 80 03 00
        E 480 90 03 5b
        E 480 80 03 00
        E 0 90 00 5b
        E 480 80 00 00
        E 0 90 02 5b
        E 480 80 02 00
        E 0 90 00 5b
        E 480 80 00 00
        E 0 90 02 5b
        E 480 80 02 00
        E 0 90 00 5b
        E 480 80 00 00
        E 480 90 01 5b
        E 720 80 01 00
        E 240 90 01 5b
        E 480 80 01 00
        E 0 90 00 5b
        E 480 80 00 00
        E 0 90 01 5b
        E 480 80 01 00
        E 0 90 00 5b
        E 480 80 00 00
        E 0 90 01 5b
        E 480 80 01 00
        E 0 90 00 5b
        E 480 80 00 00
        E 0 90 03 5b
        E 480 80 03 00
        E 0 90 00 5b
        E 480 80 00 00
        E 0 90 02 5b
        E 480 80 02 00
        E 0 90 00 4a
        E 480 80 00 00
        E 0 90 03 4a
        E 480 80 03 00
        E 0 90 01 5b
        E 480 80 01 00
        E 0 90 02 5b
        E 480 80 02 00
        E 0 90 00 5b
        E 480 80 00 00
        E 0 90 03 5b
        E 480 80 03 00
        E 0 90 01 5b
        E 480 80 01 00
        E 0 b0 7b 00
        CCINTERP 32
        CHASE_CC_TAKEOFFS 1
        GUID {50CC0F5C-1097-4EA2-9A92-E0E739FB60FE}
        IGNTEMPO 0 120 4 4
        SRCCOLOR 76
        VELLANE -1 100 0
        CFGEDITVIEW 30823.655422 0.05648 18 10 0 -1 0 0 0 0.5
        KEYSNAP 0
        TRACKSEL 252
        EVTFILTER 0 -1 -1 -1 -1 0 0 0 0 -1 -1 -1 -1 0 -1 0 -1 -1
        CFGEDIT 1 1 0 1 0 0 1 1 1 1 1 0.25 1273 0 2567 1407 0 0 0 0 2 0 0 0 0 0.5 0 0 1 64
      >
    >
  >
>
